<svg width="994" height="542" viewBox="0 0 994 542" fill="none" xmlns="http://www.w3.org/2000/svg">
<path fill-rule="evenodd" clip-rule="evenodd" d="M258.856 214.36C259.939 214.36 260.817 215.237 260.817 216.32C260.817 217.364 260.001 218.218 258.971 218.277L258.856 218.281H187.689C139.073 218.281 99.5435 257.324 98.7577 305.753L98.7458 307.224V539.351C98.7458 540.434 97.868 541.312 96.7853 541.312C95.7412 541.312 94.8877 540.496 94.8281 539.466L94.8247 539.351V307.224C94.8247 256.464 135.589 215.192 186.154 214.372L187.689 214.36H258.856Z" fill="#225696"/>
<path fill-rule="evenodd" clip-rule="evenodd" d="M360.563 334.414C361.933 333.956 363.414 334.695 363.871 336.064L364.265 337.262L364.887 339.192C365.019 339.605 365.155 340.034 365.295 340.478C366.359 343.856 367.423 347.39 368.417 350.909C368.867 352.499 369.292 354.053 369.689 355.561L369.924 356.46C371.486 362.482 372.519 367.472 372.881 371.141C373.023 372.578 371.974 373.858 370.537 374C369.1 374.142 367.821 373.092 367.679 371.655C367.358 368.41 366.417 363.816 364.987 358.251L364.863 357.772C364.41 356.023 363.915 354.204 363.386 352.33C362.53 349.299 361.619 346.251 360.702 343.305L360.308 342.049C360.079 341.32 359.859 340.631 359.653 339.988L358.913 337.722C358.455 336.352 359.194 334.871 360.563 334.414Z" fill="#225696"/>
<path fill-rule="evenodd" clip-rule="evenodd" d="M457.024 325.853C458.422 325.935 459.498 327.101 459.484 328.486L459.421 329.766C459.381 330.61 459.341 331.574 459.303 332.65L459.289 333.059C458.881 345.116 459.045 358.733 460.194 372.089C460.317 373.528 459.251 374.794 457.813 374.918C456.375 375.041 455.108 373.975 454.985 372.537C453.852 359.357 453.66 345.968 454.028 334L454.093 332.059C454.117 331.391 454.142 330.767 454.168 330.19L454.261 328.309C454.343 326.911 455.509 325.835 456.894 325.849L457.024 325.853Z" fill="#225696"/>
<path fill-rule="evenodd" clip-rule="evenodd" d="M528.563 253.278C529.338 252.522 530.579 252.537 531.336 253.311C531.773 253.759 532.064 254.331 532.341 255.119L532.439 255.408C532.634 256.009 532.83 256.748 533.058 257.723L533.338 258.967C533.593 260.137 534.109 262.554 534.229 263.1C535.213 267.598 536.112 271.048 537.281 274.453C541.573 286.966 548.038 293.857 558.068 293.696C559.151 293.679 560.042 294.542 560.06 295.625C560.077 296.707 559.213 297.599 558.131 297.616C545.999 297.811 538.352 289.661 533.572 275.726C532.396 272.299 531.49 268.869 530.525 264.511L529.409 259.355L529.248 258.652C529.009 257.628 528.817 256.917 528.642 256.421C528.589 256.269 528.54 256.146 528.498 256.055L528.468 255.992C528.456 255.97 528.468 255.987 528.53 256.051C527.774 255.276 527.788 254.035 528.563 253.278Z" fill="#225696"/>
<path fill-rule="evenodd" clip-rule="evenodd" d="M265.783 266.575C255.066 271.28 239.643 280.495 227.226 299.512C244.74 292.323 304.929 346.173 347.603 333.952C327.802 331.861 285.258 300.623 265.783 266.575Z" fill="#225696"/>
<path fill-rule="evenodd" clip-rule="evenodd" d="M299.708 178.867C300.686 178.402 301.856 178.818 302.321 179.796C302.786 180.774 302.37 181.944 301.392 182.409C277.34 193.843 263.536 207.87 258.96 223.852C254.954 237.843 258.086 253.246 267.346 269.116C268.042 270.309 267.32 271.828 265.955 272.041C260.486 272.894 252.521 277.572 241.797 287.466L240.938 288.264C226.841 301.459 209.404 322.333 188.308 352.142C153.618 401.1 138.689 446.629 147.167 479.879C156.31 515.735 192.121 536.251 254.381 537.325C255.463 537.344 256.326 538.237 256.307 539.319C256.288 540.402 255.396 541.264 254.313 541.246C190.466 540.144 153.017 518.689 143.368 480.848C134.547 446.255 149.82 399.679 185.108 349.876L186.404 348.05C207.279 318.707 224.597 298.095 238.703 284.987L239.139 284.584C248.731 275.734 256.399 270.758 262.399 268.871L262.657 268.791L262.544 268.586C253.979 252.896 251.133 237.482 255.063 223.227L255.191 222.773C260.11 205.592 274.717 190.749 299.708 178.867Z" fill="#225696"/>
<path fill-rule="evenodd" clip-rule="evenodd" d="M579.64 110.131C580.582 109.333 582.007 109.598 582.608 110.653L582.677 110.783L583.064 111.555C583.374 112.166 583.75 112.899 584.195 113.757L585.049 115.396C586.391 117.954 588.016 120.995 589.94 124.53C590.236 125.062 590.52 125.217 591.765 125.455L591.926 125.485C594.527 125.969 595.708 126.348 597.445 127.607C599.74 129.27 601.794 132.042 603.734 136.302L603.785 136.423L603.827 136.547L644.802 272.151L644.832 272.262L645.205 273.831C649.866 293.568 652.287 308.43 652.585 322.063L652.596 322.6C652.906 340.022 649.503 354.309 641.574 365.805C623.341 392.238 581.599 402.972 509.652 396.427L508.67 396.335L508.606 396.374C508.354 396.516 508.068 396.603 507.763 396.621L507.648 396.624C506.604 396.624 505.751 395.808 505.691 394.779L505.688 394.663V394.271C505.688 393.115 506.683 392.21 507.834 392.319C579.856 399.163 620.94 388.814 638.346 363.578C645.757 352.834 648.972 339.336 648.675 322.67C648.439 309.401 646.113 294.857 641.567 275.49L641.031 273.228L600.113 137.813L600.013 137.596C598.437 134.214 596.879 132.101 595.298 130.896L595.145 130.782C594.099 130.024 593.389 129.764 591.663 129.427L591.21 129.341C588.782 128.89 587.539 128.282 586.504 126.419L584.984 123.614C583.531 120.92 582.278 118.561 581.214 116.523L580.423 115.001L580.24 114.645L580.119 114.734C574.328 118.935 566.952 121.638 558.354 123.072L557.826 123.158C548.335 124.675 538.247 124.576 528.707 123.501C527.856 123.405 527.05 123.305 526.294 123.203L525.21 123.051L525.154 124.099C525.103 125.087 525.053 126.208 525.004 127.471L524.903 130.31L524.818 133.202C524.801 133.808 524.785 134.431 524.77 135.071C524.662 139.479 523.228 141.944 519.649 145.379L518.674 146.298C514.685 150.038 513.411 152.485 513.886 157.941L513.905 158.147L531.86 254.321C532.11 255.659 530.957 256.826 529.634 256.619L529.524 256.598L479.595 245.946C478.819 245.781 478.219 245.163 478.076 244.383C476.188 234.094 473.166 223.757 468.886 214.196C463.562 202.302 456.59 192.281 447.815 184.739C446.994 184.033 446.901 182.795 447.607 181.974C448.312 181.153 449.55 181.06 450.371 181.765C459.621 189.716 466.92 200.206 472.465 212.594C476.623 221.883 479.621 231.848 481.578 241.808L481.689 242.384L527.465 252.15L510.027 158.736L510.01 158.607C509.636 154.725 510.147 151.619 511.479 148.986C512.462 147.043 513.599 145.701 515.74 143.675L516.51 142.953C519.659 140.002 520.722 138.348 520.843 135.193L520.915 132.49C520.932 131.891 520.949 131.309 520.967 130.743L521.054 128.176C521.133 126.012 521.216 124.22 521.299 122.767L521.379 121.473L521.446 120.596C521.548 119.485 522.552 118.692 523.643 118.831L524.493 118.975C524.699 119.008 524.924 119.044 525.168 119.081C526.333 119.259 527.667 119.437 529.147 119.604C538.364 120.643 548.117 120.739 557.207 119.286C566.442 117.81 574.09 114.831 579.64 110.131Z" fill="#225696"/>
<path fill-rule="evenodd" clip-rule="evenodd" d="M514.088 481.058C515.132 481.042 515.998 481.845 516.073 482.873L516.078 482.988L516.928 538.864C516.944 539.946 516.08 540.837 514.997 540.854C513.953 540.87 513.088 540.067 513.012 539.038L513.007 538.923L512.158 483.048C512.141 481.965 513.006 481.074 514.088 481.058Z" fill="#225696"/>
<path fill-rule="evenodd" clip-rule="evenodd" d="M503.27 248.995C495.362 245.728 484.906 244.486 477.979 243.375C479.482 251.479 479.874 258.537 479.678 263.307C478.175 297.747 464.712 311.144 461.51 323.823C502.943 308.596 506.145 268.209 503.27 248.995Z" fill="#225696"/>
<path fill-rule="evenodd" clip-rule="evenodd" d="M441.251 450.212C440.402 457.466 438.703 460.537 421.711 469.294C417.333 471.516 408.184 476.352 395.963 482.495C398.512 513.929 399.949 537.064 399.949 537.064L450.989 537.782C450.989 537.782 449.551 485.24 448.505 431.848C445.499 437.664 441.774 445.833 441.251 450.212Z" fill="#439BD7"/>
<path fill-rule="evenodd" clip-rule="evenodd" d="M447.198 328.724C447.852 300.558 437.069 272.914 426.613 254.485C424.914 280.168 419.489 309.968 413.608 319.706C386.16 300.688 365.575 289.775 349.106 281.083C338.715 264.353 329.958 249.388 326.168 238.539C326.233 236.906 326.299 235.207 326.299 233.573C325.645 233.638 325.057 233.703 324.534 233.769C329.109 248.865 338.977 270.3 359.432 299.055C363.353 303.629 367.208 308.792 370.868 314.478C375.769 322.124 380.213 343.755 384.069 370.68C406.811 367.543 424.391 366.889 427.593 371.725L447.329 375.516C446.61 337.873 446.872 344.147 447.198 328.724Z" fill="#439BD7"/>
<path fill-rule="evenodd" clip-rule="evenodd" d="M473.076 422.151C474.137 421.934 475.173 422.618 475.39 423.678C475.599 424.701 474.971 425.701 473.975 425.966L473.862 425.992L443.539 432.201C442.479 432.418 441.443 431.734 441.226 430.673C441.016 429.65 441.645 428.65 442.641 428.386L442.753 428.359L473.076 422.151Z" fill="#225696"/>
<path fill-rule="evenodd" clip-rule="evenodd" d="M450.079 372.814C468.952 366.559 485.045 370.428 498.109 381.884C507.34 389.978 514.347 401.409 517.797 411.201L518.015 411.83C521.227 421.261 525.361 439.552 525.86 446.124L526.283 451.787C526.395 453.314 526.494 454.705 526.59 456.115L526.709 457.909C526.978 462.049 527.183 465.887 527.318 469.545L527.36 470.721C527.591 477.709 527.534 483.493 527.12 487.872L527.061 488.468C526.429 494.537 525.158 497.845 522.08 498.045C518.777 498.249 516.27 494.184 513.282 486.347C511.308 481.169 509.328 474.623 507.646 468.154C507.373 467.106 508.002 466.036 509.05 465.763C510.098 465.491 511.168 466.12 511.441 467.167C513.089 473.509 515.032 479.929 516.946 484.95L517.237 485.703C518.3 488.416 519.318 490.587 520.255 492.106C520.725 492.868 521.16 493.44 521.533 493.803L521.662 493.922L521.759 494.003L521.807 493.927C521.915 493.747 522.031 493.504 522.147 493.2L522.204 493.043C522.643 491.81 522.986 489.934 523.216 487.502C523.634 483.088 523.672 477.049 523.4 469.691L523.338 468.128C523.206 464.979 523.025 461.681 522.796 458.16L522.677 456.381C522.606 455.329 522.533 454.287 522.453 453.191L521.932 446.192C521.371 439.642 517.194 421.313 514.098 412.502C510.857 403.301 504.196 392.437 495.523 384.832C483.346 374.153 468.512 370.663 450.772 376.718L450.688 376.744L450.604 376.767L420.869 384.021C419.817 384.277 418.756 383.633 418.499 382.581C418.252 381.566 418.843 380.544 419.828 380.242L419.939 380.211L449.593 372.977L450.079 372.814Z" fill="#225696"/>
<path fill-rule="evenodd" clip-rule="evenodd" d="M473.152 416.169C473.257 415.091 474.217 414.303 475.294 414.409C476.372 414.515 477.16 415.474 477.054 416.551L477.016 416.923C476.96 417.43 476.887 417.986 476.793 418.635L476.559 420.169C476.41 421.105 476.134 422.826 476.056 423.32L475.91 424.27C475.325 428.149 475.033 431.065 475.009 433.976C474.972 438.603 475.697 442.413 477.344 445.412C477.865 446.361 477.519 447.553 476.57 448.075C475.621 448.596 474.429 448.249 473.907 447.3C471.891 443.63 471.046 439.185 471.088 433.945C471.114 430.691 471.447 427.497 472.105 423.213L472.76 419.082L472.91 418.091C473.021 417.327 473.099 416.712 473.152 416.169Z" fill="#225696"/>
<path fill-rule="evenodd" clip-rule="evenodd" d="M515.195 443.821C516.232 443.942 516.985 444.852 516.924 445.882L516.909 446.042L516.87 446.35C516.835 446.628 516.791 446.95 516.74 447.312L516.625 448.105C516.503 448.919 516.362 449.794 516.201 450.718C515.589 454.244 514.817 457.771 513.869 461.076L513.66 461.795C511.087 470.46 507.774 476.008 503.053 477.087C497.832 478.281 494.198 476.796 492.257 473.552C491.757 472.717 491.417 471.836 491.202 470.956C491.07 470.418 491.008 469.982 490.988 469.689C490.915 468.608 491.731 467.673 492.811 467.6C493.853 467.529 494.76 468.286 494.889 469.309L494.9 469.423C494.905 469.504 494.937 469.721 495.011 470.024C495.138 470.546 495.339 471.067 495.622 471.539C496.678 473.304 498.591 474.085 502.179 473.265C505.059 472.607 507.891 467.703 510.1 459.995C511.005 456.839 511.748 453.444 512.338 450.047L512.487 449.171C512.606 448.455 512.711 447.775 512.804 447.139L512.913 446.368L513.02 445.54C513.146 444.464 514.12 443.695 515.195 443.821Z" fill="#225696"/>
<path fill-rule="evenodd" clip-rule="evenodd" d="M504.38 442.867C505.441 443.083 506.126 444.118 505.909 445.179L505.843 445.49C505.791 445.733 505.728 446.013 505.655 446.328C505.448 447.222 505.201 448.217 504.914 449.288C504.094 452.351 503.115 455.415 501.976 458.287L501.698 458.979C498.569 466.62 494.863 471.475 490.107 472.212C484.957 473.01 481.469 471.392 479.697 468.173C479.199 467.267 478.884 466.314 478.71 465.363C478.604 464.784 478.567 464.315 478.567 464.001C478.567 462.918 479.444 462.041 480.527 462.041C481.571 462.041 482.425 462.857 482.484 463.886L482.491 464.082C482.498 464.2 482.52 464.4 482.567 464.655C482.67 465.217 482.854 465.776 483.133 466.282C484.092 468.026 485.952 468.888 489.507 468.337C492.513 467.872 495.637 463.64 498.331 456.842C499.408 454.125 500.343 451.2 501.127 448.273L501.326 447.518C501.486 446.901 501.63 446.316 501.759 445.768L501.913 445.105L502.067 444.396C502.283 443.335 503.319 442.651 504.38 442.867Z" fill="#225696"/>
<path fill-rule="evenodd" clip-rule="evenodd" d="M464.426 442.001C468.526 438.541 473.853 439.991 479.117 448.386C479.692 449.304 479.414 450.514 478.497 451.089C477.58 451.664 476.37 451.387 475.795 450.469C473.435 446.707 471.343 444.814 469.623 444.346C468.599 444.067 467.746 444.33 466.955 444.997C466.807 445.122 466.678 445.246 466.571 445.36L466.517 445.418L466.522 445.492C466.53 445.613 466.545 445.749 466.566 445.902L466.59 446.06C466.716 446.85 466.986 447.788 467.439 448.876C468.727 451.97 471.219 455.654 475.224 459.914C477.292 462.113 478.765 462.249 480.445 460.882C482.159 459.487 483.876 456.634 485.438 452.798C486.316 450.643 487.09 448.321 487.749 445.998L487.94 445.315C488.062 444.87 488.173 444.446 488.275 444.047L488.43 443.421L488.547 442.925C488.782 441.868 489.829 441.201 490.886 441.436C491.905 441.663 492.561 442.645 492.396 443.662L492.367 443.808L492.242 444.341C492.214 444.453 492.185 444.573 492.154 444.699L491.993 445.332C491.852 445.875 491.695 446.457 491.521 447.069C490.825 449.521 490.007 451.975 489.07 454.277C487.279 458.674 485.272 462.009 482.92 463.923C479.611 466.617 475.816 466.267 472.368 462.599C468.055 458.013 465.3 453.94 463.819 450.383C462.834 448.017 462.513 446.15 462.602 444.813L462.614 444.661C462.626 444.542 462.639 444.442 462.654 444.364C462.699 444.121 462.79 443.889 462.921 443.68C463.213 443.216 463.709 442.606 464.426 442.001Z" fill="#225696"/>
<path fill-rule="evenodd" clip-rule="evenodd" d="M441.643 445.637C418.509 426.882 410.732 379.698 420.469 369.373C420.862 366.105 428.377 371.595 432.886 372.117C443.8 373.359 448.505 373.686 448.505 373.686C444.061 387.279 449.028 403.747 454.06 415.445C457.001 422.438 460.072 427.927 461.575 430.476C460.726 430.933 457.197 432.633 448.832 436.292C444.061 438.449 443.081 442.043 441.643 445.637Z" fill="#225696"/>
<path fill-rule="evenodd" clip-rule="evenodd" d="M258.236 372.871C265.245 370.535 274.552 369.162 282.731 369.903C294.068 370.931 302.603 375.794 306.726 385.254C307.159 386.246 306.705 387.402 305.712 387.834C304.719 388.267 303.564 387.813 303.131 386.82C299.655 378.844 292.413 374.718 282.377 373.808C274.783 373.12 266.005 374.415 259.476 376.591C258.449 376.934 257.339 376.379 256.996 375.351C256.654 374.324 257.209 373.214 258.236 372.871Z" fill="#225696"/>
<path fill-rule="evenodd" clip-rule="evenodd" d="M343.105 375.73C393.715 365.729 424.113 362.89 429.229 370.646C429.269 370.705 429.305 370.766 429.337 370.83L429.383 370.926L453.432 424.775C453.665 425.297 453.658 425.892 453.418 426.406L453.344 426.548L452.916 427.336L452.601 427.922C452.331 428.427 452.042 428.975 451.737 429.559C450.516 431.896 449.296 434.335 448.158 436.752C447.583 437.974 447.043 439.161 446.544 440.304C444.655 444.636 443.454 448.121 443.156 450.325L443.133 450.505C442.125 459.115 438.955 462.573 423.503 470.606L421.962 471.407C418.498 473.237 403.595 481.254 397.25 484.592C382.389 492.41 368.126 499.553 353.579 506.322C336.827 514.116 320.767 520.898 305.529 526.477C285.754 533.716 267.855 538.747 252.169 541.222C251.1 541.391 250.096 540.661 249.927 539.591C249.758 538.522 250.488 537.518 251.558 537.349C266.962 534.919 284.626 529.954 304.181 522.795C319.306 517.257 335.267 510.517 351.925 502.767C365.778 496.321 379.379 489.53 393.496 482.134L396.988 480.296C404.487 476.327 419.084 468.472 420.748 467.617L422.085 466.924C435.841 459.759 438.321 457.144 439.186 450.478L439.239 450.051C439.55 447.365 440.861 443.526 442.95 438.736C443.464 437.558 444.02 436.337 444.61 435.082C445.773 432.612 447.017 430.125 448.261 427.744L448.803 426.713L449.456 425.489L425.879 372.698L425.844 372.651C423.891 370.228 414.546 369.476 399.628 370.806L398.702 370.89C384.553 372.212 365.906 375.221 343.865 379.577C336.313 381.069 328.458 382.701 320.369 384.451C306.728 387.402 293.036 390.552 279.887 393.713L275.823 394.695C271.85 395.659 268.183 396.563 264.872 397.39L262.649 397.947L259.344 398.784C258.295 399.054 257.227 398.422 256.957 397.373C256.697 396.362 257.276 395.332 258.258 395.018L258.408 394.976L263.263 393.75L267.358 392.732C269.962 392.088 272.749 391.405 275.698 390.691L276.507 390.495C290.432 387.128 305.012 383.761 319.54 380.618C327.651 378.864 335.528 377.227 343.105 375.73Z" fill="#225696"/>
<path fill-rule="evenodd" clip-rule="evenodd" d="M327.357 200.179L327.472 200.179C328.555 200.214 329.404 201.119 329.369 202.202L328.251 236.776L328.204 238.234L328.286 238.461C331.58 247.611 338.241 259.713 350.101 278.861L350.556 279.597L353.679 281.251C376.162 293.194 391.153 301.955 410.886 315.414L412.981 316.848L413.131 316.531C418.055 305.968 422.872 280.34 424.616 255.9L424.722 254.356C424.793 253.275 425.727 252.457 426.807 252.529C427.888 252.6 428.706 253.534 428.634 254.615C426.823 281.992 421.185 311.061 415.351 320.719C414.767 321.687 413.488 321.961 412.558 321.318L411.008 320.249C389.19 305.246 373.565 296.174 348.256 282.817C347.949 282.655 347.69 282.413 347.506 282.118L345.64 279.102C334.088 260.364 327.626 248.468 324.382 239.186C324.303 238.959 324.266 238.718 324.274 238.478L325.45 202.076C325.483 201.032 326.327 200.206 327.357 200.179Z" fill="#225696"/>
<path fill-rule="evenodd" clip-rule="evenodd" d="M318.862 152.284C319.94 152.184 320.896 152.976 320.997 154.054C321.097 155.132 320.305 156.088 319.227 156.188C315.008 156.582 310.625 157.781 307.136 160.161C302.145 163.566 299.966 168.82 301.558 176.728C302.816 183.067 306.05 186.504 310.969 187.784C314.91 188.809 319.74 188.401 324.86 186.983C325.904 186.694 326.984 187.306 327.273 188.349C327.562 189.393 326.95 190.473 325.907 190.762C320.182 192.347 314.713 192.81 309.982 191.579C303.605 189.919 299.262 185.304 297.713 177.496C295.809 168.04 298.641 161.21 304.927 156.922C309.073 154.093 314.041 152.734 318.862 152.284Z" fill="#225696"/>
<path fill-rule="evenodd" clip-rule="evenodd" d="M448.448 115.826C449.522 115.686 450.506 116.443 450.646 117.517C453.747 141.332 453.114 168.805 449.796 194.483C449.657 195.556 448.674 196.314 447.601 196.176C446.527 196.037 445.769 195.054 445.907 193.98C449.186 168.614 449.81 141.468 446.757 118.023C446.617 116.95 447.375 115.966 448.448 115.826Z" fill="#225696"/>
<path fill-rule="evenodd" clip-rule="evenodd" d="M445.908 193.911C446.049 192.837 447.034 192.081 448.107 192.222C449.181 192.363 449.937 193.348 449.796 194.421L449.522 196.467C448.445 204.349 447.241 211.381 446.042 216.869C445.811 217.927 444.766 218.597 443.709 218.366C442.651 218.135 441.98 217.09 442.211 216.033L442.413 215.095C443.623 209.381 444.837 202.066 445.908 193.911Z" fill="#225696"/>
<path fill-rule="evenodd" clip-rule="evenodd" d="M333.345 156.986L318.968 158.032C317.82 158.115 316.999 159.162 317.172 160.284L317.233 160.586L318.841 168.047L319.414 170.679C320.869 177.362 322.346 184.045 323.777 190.394L324.629 194.158L325.674 198.724C328.218 209.769 330.237 217.977 331.564 222.501L331.741 223.095C336.359 238.463 340.37 244.059 356.458 255.62C365.663 262.235 379.613 266.689 393.076 267.105C408.469 267.581 421.802 262.905 430.268 252.874C435.622 246.51 439.839 238.097 443.075 228.13C445.684 220.097 447.515 211.511 448.708 202.929C449.125 199.926 449.433 197.137 449.648 194.632L449.702 193.991C449.727 193.68 449.75 193.382 449.771 193.1L449.837 192.122L449.876 191.446C449.917 190.546 449.34 189.734 448.477 189.477C444.613 188.327 438.247 187.519 430.263 186.968C427.86 186.802 425.446 186.669 423.099 186.567L421.931 186.518C421.096 186.484 420.316 186.456 419.601 186.434L418.03 186.39L417.957 186.389C401.153 186.642 385.271 188.489 370.751 191.413C365.506 192.469 360.789 193.598 356.658 194.731L355.667 195.006C354.869 195.23 354.125 195.446 353.439 195.651L352.753 195.858L352.71 195.709C349.204 183.704 339.095 161.844 334.884 157.566C334.481 157.157 333.918 156.945 333.345 156.986ZM332.655 160.968L332.724 161.055C337.047 166.621 346.995 188.659 349.49 198.816C349.755 199.897 350.861 200.532 351.918 200.238L352.887 199.923L353.312 199.789C354.391 199.452 355.664 199.076 357.122 198.671L358.278 198.353C362.184 197.297 366.617 196.245 371.525 195.257L372.502 195.062C386.205 192.361 401.129 190.634 416.889 190.329L417.968 190.31L419.13 190.342C419.927 190.366 420.814 190.397 421.774 190.436C424.449 190.543 427.23 190.689 429.992 190.879L431.426 190.983C437.267 191.421 442.133 192.012 445.493 192.758L445.858 192.841L445.794 193.676C445.777 193.877 445.76 194.083 445.742 194.296L445.639 195.442C445.437 197.578 445.169 199.908 444.824 202.389C443.661 210.76 441.876 219.128 439.346 226.919C436.253 236.444 432.253 244.423 427.269 250.348C419.666 259.357 407.487 263.628 393.197 263.186C380.491 262.793 367.297 258.581 358.746 252.436L357.837 251.779C343.516 241.395 339.922 236.418 335.757 222.825L335.382 221.583C334.008 216.944 331.812 207.968 329.028 195.81L328.258 192.432L327.602 189.531C326.503 184.655 325.377 179.581 324.254 174.461L322.536 166.58L321.499 161.779L332.655 160.968Z" fill="#225696"/>
<path fill-rule="evenodd" clip-rule="evenodd" d="M407.203 222.659C407.203 222.659 417.856 220.503 422.234 224.816L407.203 222.659Z" fill="white"/>
<path fill-rule="evenodd" clip-rule="evenodd" d="M408.691 220.444C411.061 220.145 413.515 220.053 415.846 220.297C419.097 220.637 421.764 221.601 423.61 223.419C424.381 224.179 424.391 225.42 423.631 226.191C422.871 226.963 421.63 226.972 420.858 226.212C419.759 225.129 417.887 224.453 415.437 224.197C413.448 223.988 411.278 224.07 409.182 224.334C408.831 224.379 408.505 224.426 408.211 224.473L407.68 224.564C407.643 224.571 407.613 224.576 407.592 224.58C406.531 224.795 405.497 224.109 405.282 223.048C405.067 221.987 405.753 220.952 406.814 220.737L407.238 220.658C407.61 220.594 408.101 220.519 408.691 220.444Z" fill="#225696"/>
<path fill-rule="evenodd" clip-rule="evenodd" d="M420.576 171.109C421.613 170.992 422.553 171.707 422.728 172.723L422.744 172.837L426.666 207.473C426.816 208.801 425.627 209.874 424.338 209.617L424.228 209.592L412.072 206.455C411.024 206.184 410.393 205.115 410.664 204.067C410.925 203.056 411.928 202.433 412.94 202.633L413.052 202.658L422.449 205.083L418.848 173.278C418.731 172.24 419.446 171.301 420.462 171.126L420.576 171.109Z" fill="#225696"/>
<path fill-rule="evenodd" clip-rule="evenodd" d="M433.54 182.468C435.489 182.468 437.069 180.01 437.069 176.979C437.069 173.947 435.489 171.489 433.54 171.489C431.591 171.489 430.011 173.947 430.011 176.979C430.011 180.01 431.591 182.468 433.54 182.468Z" fill="#225696"/>
<path fill-rule="evenodd" clip-rule="evenodd" d="M399.427 181.814C401.376 181.814 402.955 179.357 402.955 176.325C402.955 173.293 401.376 170.835 399.427 170.835C397.478 170.835 395.898 173.293 395.898 176.325C395.898 179.357 397.478 181.814 399.427 181.814Z" fill="#225696"/>
<path fill-rule="evenodd" clip-rule="evenodd" d="M386.148 142.982C389.876 140.251 394.43 138.895 399.716 139.685C400.787 139.845 401.526 140.842 401.366 141.913C401.206 142.984 400.208 143.723 399.137 143.563C394.946 142.937 391.406 143.991 388.465 146.145C387.636 146.753 386.921 147.403 386.327 148.049L386.136 148.26C385.96 148.46 385.829 148.62 385.745 148.73L385.677 148.824C385.057 149.711 383.834 149.929 382.947 149.309C382.059 148.689 381.842 147.467 382.462 146.579C382.647 146.314 382.973 145.902 383.442 145.393C384.202 144.568 385.103 143.748 386.148 142.982Z" fill="#225696"/>
<path fill-rule="evenodd" clip-rule="evenodd" d="M432.65 138.972C434.665 138.656 436.805 138.646 438.868 139.156C442.349 140.017 444.967 142.246 446.131 146.011C446.45 147.046 445.871 148.144 444.836 148.463C443.802 148.783 442.704 148.203 442.384 147.169C441.651 144.797 440.14 143.51 437.927 142.963C436.445 142.596 434.8 142.604 433.257 142.846L433.013 142.886C432.825 142.919 432.675 142.949 432.57 142.973L432.465 142.998C431.417 143.271 430.347 142.642 430.074 141.594C429.802 140.546 430.43 139.476 431.478 139.203C431.723 139.14 432.123 139.054 432.65 138.972Z" fill="#225696"/>
<path fill-rule="evenodd" clip-rule="evenodd" d="M471.248 112.15C470.398 109.602 471.378 106.53 473.143 103.459L472.685 102.936L470.463 109.144C470.463 109.144 463.536 112.15 461.249 103.262C460.53 100.518 462.164 97.2502 464.712 93.9826L464.647 93.9173C455.04 96.1392 436.154 99.7989 434.455 96.0085C432.037 90.6497 466.019 76.4031 476.41 71.8939C481.704 69.5413 500.067 64.5092 510.001 63.0715C514.053 62.4833 521.372 61.9605 529.737 62.8101C530.456 56.9285 529.475 50.9815 526.339 45.2306C523.136 39.2837 516.405 30.5266 510.458 27.3244C451.446 -3.97885 422.692 48.8903 422.692 48.8903C422.692 48.8903 414.392 26.1481 387.467 25.3638C376.488 25.0371 365.771 29.3503 357.994 37.1271C335.971 59.2158 350.675 84.1799 350.675 84.1799C350.675 84.1799 340.414 78.9518 326.56 85.6177C310.026 93.5905 301.726 112.346 306.04 130.187C310.614 149.139 319.045 167.176 319.045 167.176C372.763 175.476 386.487 122.737 378.579 115.941C390.473 124.763 411.909 130.645 448.179 126.985C456.478 126.135 466.673 122.868 477.064 117.901C474.973 117.705 472.685 116.398 471.248 112.15Z" fill="#225696"/>
<path fill-rule="evenodd" clip-rule="evenodd" d="M521.094 105.216C522.107 104.964 523.133 105.549 523.439 106.534L523.47 106.645L531.536 139.031L578.062 125.236C579.063 124.939 580.114 125.479 580.463 126.449L580.499 126.559C580.796 127.56 580.256 128.61 579.286 128.96L579.177 128.996L530.686 143.373C529.653 143.679 528.574 143.094 528.257 142.077L528.227 141.967L519.666 107.592C519.404 106.542 520.043 105.478 521.094 105.216Z" fill="#225696"/>
<path fill-rule="evenodd" clip-rule="evenodd" d="M509.715 61.132C520.163 59.5941 534.172 60.2101 546.186 64.2009C563.477 69.9446 575.028 81.864 578.177 101.009L578.252 101.482L585.153 127.262C585.418 128.251 584.878 129.269 583.928 129.613L583.816 129.649L537.678 143.308C536.64 143.615 535.549 143.022 535.242 141.984C534.945 140.983 535.486 139.933 536.456 139.584L536.565 139.548L580.872 126.431L574.438 102.397C574.429 102.363 574.421 102.329 574.414 102.294L574.395 102.189C571.626 84.2605 561.1 73.2866 544.95 67.922C533.768 64.2076 520.611 63.5762 510.771 64.942L510.282 65.0119C501.169 66.3309 483.1 71.1372 477.375 73.6118L470.84 76.4402C470.143 76.7435 469.469 77.038 468.789 77.3368L467.204 78.0355C463.81 79.5371 460.677 80.962 457.692 82.3714C455.002 83.6418 452.512 84.8627 450.238 86.0327L449.384 86.4751C445.03 88.7446 441.612 90.7666 439.292 92.4837C438.011 93.4322 437.103 94.262 436.61 94.9196C436.563 94.9824 436.521 95.0415 436.485 95.0964L436.411 95.2133L436.527 95.2596C437.008 95.4379 437.738 95.5703 438.679 95.6379C440.572 95.774 443.181 95.6426 446.357 95.2704C451.571 94.6596 458.021 93.4378 464.205 92.0073C465.26 91.7633 466.313 92.4207 466.557 93.4756C466.801 94.5305 466.144 95.5835 465.089 95.8275C459.009 97.2337 452.682 98.4417 447.417 99.0923L446.814 99.1648C438.66 100.12 433.999 99.7853 432.668 96.815C430.89 92.8745 436.294 88.822 448.085 82.7312L448.444 82.546C450.761 81.3541 453.29 80.1141 456.018 78.8257L457.421 78.1672C460.248 76.8475 463.214 75.5082 466.409 74.1001L469.696 72.6617L476.014 69.9295C482.274 67.2867 500.381 62.483 509.715 61.132Z" fill="#225696"/>
<path fill-rule="evenodd" clip-rule="evenodd" d="M533.564 98.8777C534.47 98.2845 535.685 98.5381 536.278 99.4439C536.871 100.35 536.618 101.565 535.712 102.158C532.488 104.269 525.623 107.667 519.014 110.318C510.567 113.707 503.26 115.675 498.253 115.548C497.171 115.521 496.316 114.621 496.343 113.539C496.37 112.456 497.27 111.601 498.352 111.628C502.679 111.738 509.571 109.882 517.554 106.679L518.64 106.238C524.682 103.749 530.753 100.719 533.564 98.8777Z" fill="#225696"/>
<path fill-rule="evenodd" clip-rule="evenodd" d="M482.736 78.24C483.345 79.1348 483.114 80.3545 482.219 80.9642L481.661 81.3543L481.393 81.5441C480.723 82.0224 479.975 82.5711 479.168 83.1811C476.863 84.9236 474.559 86.8035 472.415 88.7452C469.745 91.1639 467.519 93.5036 465.893 95.6778C463.643 98.685 462.715 101.159 463.147 102.836C463.827 105.459 464.911 106.841 466.257 107.409C467.185 107.801 468.239 107.8 469.24 107.545C469.338 107.52 469.428 107.494 469.509 107.469L469.697 107.405C470.694 106.982 471.845 107.447 472.268 108.443C472.691 109.44 472.226 110.591 471.229 111.014C471.004 111.11 470.657 111.23 470.209 111.345C468.45 111.793 466.562 111.794 464.732 111.022C462.192 109.95 460.322 107.565 459.35 103.817C458.547 100.695 459.86 97.1974 462.753 93.3293C464.55 90.926 466.941 88.4131 469.783 85.8388C472.021 83.8121 474.412 81.8611 476.803 80.0535L477.419 79.5909C477.822 79.2905 478.209 79.0063 478.577 78.7394L479.398 78.1519L480.012 77.7239C480.906 77.1142 482.126 77.3452 482.736 78.24Z" fill="#225696"/>
<path fill-rule="evenodd" clip-rule="evenodd" d="M488.385 87.1221C489.043 87.9284 488.954 89.1013 488.2 89.7993L488.088 89.8963L487.717 90.2064L487.457 90.4281C486.926 90.8823 486.334 91.404 485.695 91.9845C483.869 93.6435 482.044 95.4363 480.345 97.2917C478.144 99.6958 476.326 102.022 475.027 104.181C473.168 107.269 472.513 109.788 473.103 111.518C473.898 113.851 474.959 115.14 476.184 115.7C477.177 116.155 478.3 116.129 479.389 115.786L479.591 115.719C479.743 115.666 479.855 115.619 479.918 115.589L479.95 115.573C480.911 115.074 482.095 115.448 482.594 116.409C483.093 117.37 482.719 118.553 481.758 119.053C481.497 119.188 481.092 119.361 480.565 119.527C478.633 120.134 476.556 120.183 474.552 119.266C472.282 118.227 470.516 116.081 469.392 112.783C468.344 109.708 469.271 106.14 471.668 102.159C473.119 99.7475 475.09 97.2253 477.453 94.6438C479.24 92.6921 481.149 90.8171 483.058 89.0825L483.619 88.5769C483.985 88.25 484.334 87.9435 484.663 87.6589L485.05 87.3271L485.626 86.8441C486.465 86.1591 487.7 86.2836 488.385 87.1221Z" fill="#225696"/>
<path fill-rule="evenodd" clip-rule="evenodd" d="M492.988 97.8423C493.816 97.1445 495.053 97.2501 495.75 98.078C496.448 98.906 496.343 100.143 495.515 100.841L495.177 101.132L495.005 101.283C494.587 101.652 494.119 102.075 493.615 102.545C492.175 103.89 490.735 105.338 489.395 106.831C487.782 108.629 486.431 110.366 485.429 111.977L485.193 112.365C482.639 116.633 483.003 118.86 486.868 119.933C494.49 122.05 499.599 122.146 502.654 121.126C502.856 121.059 503.031 120.991 503.182 120.925L503.257 120.892L503.28 120.831C503.55 120.084 503.604 119.337 503.358 118.686L503.301 118.548C502.581 116.959 500.005 115.687 494.69 115.281C493.611 115.199 492.802 114.257 492.885 113.178C492.967 112.098 493.909 111.289 494.988 111.372C501.582 111.874 505.446 113.783 506.872 116.928C507.668 118.682 507.573 120.487 506.968 122.163C506.791 122.652 506.607 123.03 506.46 123.278C506.34 123.481 506.184 123.661 506 123.808C505.6 124.13 504.91 124.507 503.896 124.846C500.035 126.134 494.145 126.024 485.819 123.711C478.723 121.74 478.102 116.341 482.099 109.908C483.236 108.078 484.722 106.169 486.477 104.213C487.9 102.626 489.42 101.097 490.94 99.6787L491.459 99.1985C491.628 99.044 491.792 98.8952 491.951 98.7523L492.684 98.1032C492.817 97.9875 492.919 97.8999 492.988 97.8423Z" fill="#225696"/>
<path fill-rule="evenodd" clip-rule="evenodd" d="M516.863 145.218C526.143 157.504 588.945 148.224 599.271 132.344C594.304 125.547 590.383 129.403 588.161 125.417C582.933 115.81 580.842 111.562 580.842 111.562C569.928 120.842 552.806 122.476 540.062 122.215C532.482 122.149 526.208 121.365 523.267 120.973C523.202 121.953 522.94 125.874 522.679 134.958C522.614 140.251 519.673 142.604 516.863 145.218Z" fill="#225696"/>
<path fill-rule="evenodd" clip-rule="evenodd" d="M859.761 356.825H605.675C602.342 356.825 599.467 359.112 598.683 362.38L563.328 511.904H471.248C471.248 511.904 466.15 538.24 495.885 538.24H820.288C823.621 538.24 826.497 535.953 827.281 532.685L866.753 365.648C867.799 361.138 864.401 356.825 859.761 356.825Z" fill="#225696"/>
<path fill-rule="evenodd" clip-rule="evenodd" d="M838.783 420.347C822.706 420.347 810.094 406.623 811.401 390.612C812.381 378.783 812.512 371.464 813.753 365.974C815.452 358.394 830.026 348.003 847.082 335.455C856.036 328.92 862.244 322.777 865.708 317.092C869.171 311.406 870.936 304.414 870.936 296.049C870.936 285.723 867.668 277.554 861.068 271.607C854.533 265.66 846.56 262.72 837.214 262.72C818.655 262.72 806.238 272.522 799.834 292.193C795.586 305.263 782.45 313.236 768.857 311.341C750.755 308.792 739.972 289.971 746.703 272.98C752.781 257.622 761.472 245.075 772.778 235.272C791.534 219.065 814.538 210.961 841.593 210.961C869.237 210.961 892.436 218.934 911.127 234.815C929.817 250.76 939.228 270.954 939.228 295.395C939.228 325.718 923.674 351.074 892.502 371.464C878.974 380.417 870.74 387.41 867.864 392.442C866.884 394.141 866.1 396.297 865.446 398.977C862.571 411.459 851.592 420.347 838.783 420.347ZM842.508 502.232H840.025C822.576 502.232 808.395 488.05 808.395 470.602C808.395 453.153 822.576 438.972 840.025 438.972H842.508C859.957 438.972 874.138 453.153 874.138 470.602C874.138 488.116 860.022 502.232 842.508 502.232Z" fill="#439BD7"/>
<path fill-rule="evenodd" clip-rule="evenodd" d="M193.374 152.734C189.78 154.302 185.663 152.472 184.421 148.747C183.506 146.002 182.853 144.369 182.591 143.062C182.265 141.232 184.487 137.507 187.035 133.063C188.408 130.776 189.192 128.815 189.388 127.181C189.649 125.613 189.323 123.848 188.538 122.018C187.558 119.731 186.055 118.228 184.029 117.575C182.003 116.856 179.977 116.986 177.886 117.901C173.769 119.666 171.939 123.064 172.397 128.031C172.723 131.364 170.567 134.37 167.364 135.285C163.117 136.461 158.869 133.324 158.738 128.88C158.607 124.894 159.326 121.234 160.895 117.967C163.509 112.543 167.822 108.556 173.834 105.942C179.977 103.263 185.859 102.805 191.61 104.57C197.295 106.334 201.347 109.863 203.7 115.287C206.641 122.018 205.595 129.142 200.628 136.657C198.472 139.925 197.361 142.277 197.165 143.65C197.099 144.107 197.165 144.695 197.23 145.349C197.818 148.486 196.25 151.492 193.374 152.734ZM202.066 170.574L201.478 170.836C197.622 172.535 193.113 170.705 191.414 166.849C189.715 162.994 191.544 158.484 195.4 156.785L195.988 156.524C199.844 154.825 204.353 156.655 206.052 160.51C207.751 164.366 205.987 168.875 202.066 170.574Z" fill="#439BD7"/>
<path fill-rule="evenodd" clip-rule="evenodd" d="M228.141 69.0839C222.848 68.8225 218.927 64.0519 219.645 58.8238C220.168 54.9681 220.364 52.5501 220.887 50.7202C221.606 48.2369 226.573 45.1 232.454 41.2443C235.526 39.2184 237.682 37.3232 238.924 35.5588C240.166 33.7289 240.885 31.507 241.015 28.6969C241.211 25.2986 240.296 22.5539 238.205 20.4626C236.179 18.3714 233.565 17.2604 230.494 17.0644C224.351 16.7376 220.103 19.7438 217.62 26.0828C215.986 30.3307 211.476 32.6833 207.033 31.8337C201.151 30.6574 197.883 24.253 200.432 18.7635C202.719 13.7968 205.791 9.81039 209.712 6.80423C216.182 1.83754 223.893 -0.449754 232.846 0.0730557C241.93 0.595865 249.446 3.60202 255.327 9.22223C261.209 14.8424 263.954 21.639 263.496 29.6772C262.973 39.6759 257.353 47.7141 246.701 53.9225C242.061 56.6019 239.251 58.7584 238.205 60.3922C237.878 60.915 237.552 61.6339 237.29 62.4835C236.179 66.6006 232.389 69.28 228.141 69.0839ZM227.88 96.1394L227.03 96.074C221.279 95.7473 216.835 90.8459 217.162 85.095C217.489 79.3441 222.39 74.9002 228.141 75.227L228.991 75.2923C234.741 75.6191 239.185 80.5204 238.859 86.2713C238.597 92.0222 233.631 96.4661 227.88 96.1394Z" fill="#439BD7"/>
<path fill-rule="evenodd" clip-rule="evenodd" d="M991.051 537.26C992.134 537.26 993.012 538.138 993.012 539.221C993.012 540.265 992.196 541.118 991.166 541.178L991.051 541.181H1.9606C0.877823 541.181 6.10352e-05 540.303 6.10352e-05 539.221C6.10352e-05 538.176 0.816245 537.323 1.8454 537.263L1.9606 537.26H991.051Z" fill="#225696"/>
</svg>
