<svg width="603" height="311" viewBox="0 0 603 311" fill="none" xmlns="http://www.w3.org/2000/svg">
<path fill-rule="evenodd" clip-rule="evenodd" d="M199.515 144.982C200.122 144.982 200.615 145.474 200.615 146.081C200.615 146.666 200.157 147.144 199.58 147.178L199.515 147.18H152.266C124.952 147.18 105.554 168.897 108.505 195.929L108.601 196.75L117.545 268.032C117.621 268.634 117.193 269.184 116.591 269.259C116.01 269.332 115.478 268.938 115.373 268.369L115.363 268.305L106.419 197.023C102.853 168.588 122.943 145.449 151.401 144.989L152.266 144.982H199.515Z" fill="#225696"/>
<path fill-rule="evenodd" clip-rule="evenodd" d="M231.94 121.99C232.404 121.921 232.86 122.153 233.077 122.569L234.359 125.021C234.406 125.111 234.44 125.206 234.461 125.305L234.474 125.38L236.014 136.442C236.049 136.695 235.995 136.951 235.863 137.167L235.821 137.23L229.956 145.472C229.604 145.967 228.917 146.082 228.422 145.731C227.946 145.393 227.821 144.745 228.125 144.256L228.163 144.198L233.775 136.313L232.322 125.871L231.49 124.281L231.373 124.3C217.085 126.532 208.144 130.607 204.047 136.204L203.922 136.378C200.36 141.393 200.633 147.69 204.348 155.113C204.673 155.763 204.288 156.544 203.575 156.683C179.436 161.394 159.792 181.623 148.072 210.667C137.513 236.835 135.138 266.628 141.976 285.748L143.086 288.883C145.436 295.486 146.862 298.693 148.984 301.543C151.71 305.206 155.09 307.063 159.754 307.106C160.362 307.112 160.849 307.609 160.844 308.216C160.838 308.822 160.341 309.31 159.734 309.304C154.353 309.253 150.342 307.05 147.219 302.855L147.042 302.614C144.905 299.677 143.456 296.437 141.205 290.155L139.95 286.617C139.935 286.573 139.92 286.53 139.904 286.487C132.868 266.811 135.286 236.477 146.032 209.845C157.766 180.768 177.374 160.235 201.661 154.837L201.767 154.814L201.693 154.652C198.352 147.243 198.275 140.675 202.007 135.279L202.128 135.106C206.667 128.715 216.448 124.293 231.94 121.99Z" fill="#225696"/>
<path fill-rule="evenodd" clip-rule="evenodd" d="M245.774 174.469C245.774 174.396 245.774 174.322 245.774 174.249C247.497 174.432 249.183 174.432 250.833 173.04C254.865 169.56 256.295 168.498 256.295 168.498C256.295 168.498 256.661 168.938 257.321 169.67C258.127 168.205 258.934 166.667 259.777 165.128C242.365 151.648 229.06 144.835 229.06 144.835L228.07 144.139L221.692 151.941C221.692 151.941 232.102 159.084 245.774 174.469Z" fill="#439BD7"/>
<path fill-rule="evenodd" clip-rule="evenodd" d="M329.935 300.916C329.935 300.916 302.077 226.044 305.633 202.857C307.575 190.183 304.533 175.861 300.354 164.762L292.363 165.275L282.796 187.839C283.42 187.985 284.043 188.132 284.666 188.205C284.666 188.205 284.299 190.586 283.383 196.007C282.76 199.634 283.823 200.037 284.629 202.564C285.692 204.249 286.499 206.154 285.619 209.121C285.326 210.073 284.629 219.158 283.053 231.465C285.985 237.656 288.771 244.249 291.41 251.282C308.309 296.3 306.549 301.209 306.549 301.209L329.935 300.916Z" fill="#439BD7"/>
<path fill-rule="evenodd" clip-rule="evenodd" d="M294.805 124.516C295.002 123.942 295.628 123.636 296.202 123.832C307.341 127.645 315.115 133.667 320.188 141.529C323.865 147.228 325.822 153.159 327.119 160.654L327.172 160.965L327.914 161.53C363.403 188.69 388.761 219.314 405.611 251.445L406.124 252.43C412.459 264.647 417.232 276.471 420.66 287.646C423.071 295.502 424.568 302.183 425.374 307.453C425.465 308.053 425.053 308.614 424.453 308.705C423.852 308.797 423.291 308.385 423.199 307.785L423.114 307.236C422.305 302.155 420.852 295.769 418.558 288.29C415.167 277.239 410.444 265.537 404.171 253.441C387.302 220.906 361.653 189.89 325.495 162.45C325.271 162.28 325.121 162.031 325.075 161.754C323.824 154.176 321.945 148.308 318.34 142.72C313.537 135.276 306.164 129.565 295.489 125.912C294.915 125.715 294.609 125.09 294.805 124.516Z" fill="#225696"/>
<path fill-rule="evenodd" clip-rule="evenodd" d="M312.321 197.474C313.106 197.502 313.724 198.142 313.734 198.918L313.732 199.013L313.724 199.255C313.718 199.478 313.712 199.74 313.706 200.039C313.541 208.29 313.956 218.278 315.435 227.831C316.104 232.158 316.965 236.112 318.032 239.609C318.268 240.383 317.832 241.202 317.057 241.438C316.283 241.674 315.463 241.238 315.227 240.464C314.116 236.823 313.226 232.735 312.537 228.279C311.056 218.712 310.622 208.769 310.765 200.458L310.787 199.415L310.802 198.884C310.831 198.1 311.471 197.482 312.248 197.473L312.321 197.474Z" fill="#225696"/>
<path fill-rule="evenodd" clip-rule="evenodd" d="M325.06 161.282C325.317 162.857 325.537 164.286 325.72 165.531C327.956 180.11 323.154 189.817 319.965 196.52C328.506 190.476 334.297 178.975 337.193 170.22C333.711 167.436 328.909 164.139 325.06 161.282Z" fill="#225696"/>
<path fill-rule="evenodd" clip-rule="evenodd" d="M204.244 154.945C198.269 156.154 188.445 159.158 181.334 164.029C186.283 166.74 210.805 181.392 230.819 190.183C230.966 190.11 232.065 188.278 232.615 187.546C221.545 178.791 209.889 166.264 204.244 154.945Z" fill="#225696"/>
<path fill-rule="evenodd" clip-rule="evenodd" d="M220.083 95.5332C220.669 95.3738 221.274 95.7193 221.433 96.3049C221.587 96.8696 221.271 97.4513 220.723 97.6351L220.531 97.6921C220.472 97.7101 220.399 97.7333 220.312 97.762C220.013 97.8604 219.678 97.9827 219.316 98.1296C218.279 98.5502 217.242 99.0815 216.281 99.7281C212.234 102.452 210.778 106.183 213.265 111.435C214.826 114.735 217.007 116.135 219.79 116.122C222.006 116.111 224.468 115.224 227.16 113.697C227.688 113.397 228.36 113.582 228.66 114.11C228.959 114.637 228.774 115.308 228.246 115.608C225.255 117.305 222.475 118.307 219.8 118.32C216.155 118.337 213.2 116.439 211.277 112.375C208.279 106.043 210.173 101.189 215.053 97.9051C216.15 97.1666 217.319 96.5674 218.488 96.0932C219.193 95.8072 219.749 95.6242 220.083 95.5332Z" fill="#225696"/>
<path fill-rule="evenodd" clip-rule="evenodd" d="M255.435 45.6478C253.151 46.1055 251.193 46.6504 249.562 47.1999L249.342 47.2749C235.493 51.9861 227.121 60.2419 223.33 71.0059C220.552 78.8945 220.468 87.2657 221.985 95.0767C222.176 96.0586 222.379 96.9514 222.584 97.7442L222.674 98.0872L222.736 98.3136C222.776 98.4566 222.812 98.5836 222.844 98.6941L222.903 98.8936C222.945 99.6086 223.658 100.101 224.349 99.8705L228.116 98.6156L228.167 98.6549C231.306 101.108 239.739 111.721 242.455 116.885C242.756 117.457 243.484 117.648 244.027 117.296L244.351 117.092L244.684 116.887C244.803 116.815 244.928 116.739 245.062 116.659L245.338 116.495C246.433 115.848 247.72 115.126 249.192 114.347C253.405 112.119 258.241 109.889 263.625 107.806L264.316 107.541C268.698 105.872 273.257 104.376 277.972 103.094L278.711 102.896L279.486 102.725C279.662 102.687 279.847 102.648 280.04 102.606L280.439 102.522C281.805 102.235 283.254 101.949 284.72 101.681C285.887 101.468 287.018 101.276 288.094 101.111L288.831 101C291.485 100.614 293.63 100.423 295.073 100.476C295.75 100.5 296.288 99.9129 296.204 99.2412C294.454 85.2515 291.138 70.9386 286.385 58.9009C282.745 49.6711 275.482 45.3234 265.968 44.8003C262.524 44.6111 258.969 44.9394 255.435 45.6478ZM265.847 46.9949C274.565 47.4741 281.044 51.3527 284.339 59.7071L284.554 60.2556C288.904 71.4406 292.016 84.6069 293.772 97.5985L293.863 98.2819L293.835 98.283C292.22 98.3393 290.168 98.5682 287.76 98.9386C286.662 99.1073 285.512 99.3025 284.325 99.519C283.024 99.7564 281.738 100.008 280.51 100.262L279.583 100.457C279.321 100.512 279.074 100.565 278.844 100.616L278.191 100.76L278.151 100.77C272.843 102.182 267.728 103.863 262.832 105.757C257.364 107.871 252.45 110.137 248.163 112.405L247.572 112.72C246.312 113.396 245.192 114.028 244.218 114.604L243.831 114.834L243.791 114.765C240.266 108.731 231.764 98.2313 228.863 96.4615L228.798 96.4249C228.535 96.2878 228.226 96.2624 227.942 96.3569L224.771 97.413C224.558 96.612 224.344 95.688 224.144 94.658C222.695 87.1976 222.775 79.2017 225.405 71.7356C228.936 61.7098 236.683 54.0053 249.659 49.4902L250.054 49.3544C251.644 48.8082 253.584 48.2602 255.867 47.8027C259.231 47.1284 262.606 46.8167 265.847 46.9949Z" fill="#225696"/>
<path fill-rule="evenodd" clip-rule="evenodd" d="M227.941 96.3208C228.248 96.2178 228.586 96.2559 228.863 96.4248C231.735 98.1769 240.096 108.485 243.683 114.546L243.831 114.798L244.218 114.567L244.678 114.297C245.697 113.705 246.86 113.058 248.163 112.368C252.45 110.101 257.364 107.835 262.832 105.72C267.494 103.917 272.357 102.306 277.394 100.937L278.151 100.733L278.673 100.616L279.578 100.42L279.981 100.334C281.362 100.043 282.826 99.7523 284.31 99.4806C285.332 99.2935 286.328 99.1223 287.286 98.9703L287.762 98.8958C290.931 98.4078 293.482 98.1663 295.234 98.243C295.74 98.2651 296.165 98.6293 296.264 99.1253L296.316 99.3947L296.418 99.9634C296.441 100.1 296.466 100.244 296.491 100.395L296.575 100.91C296.714 101.786 296.852 102.753 296.982 103.799C297.752 109.982 297.972 116.399 297.306 122.416C297.282 122.633 297.257 122.849 297.231 123.064C297.157 123.666 296.608 124.095 296.006 124.021C295.403 123.948 294.974 123.4 295.047 122.797C295.073 122.591 295.097 122.383 295.12 122.174C295.764 116.352 295.55 110.097 294.8 104.07L294.723 103.467C294.606 102.578 294.484 101.753 294.362 101.003L294.266 100.429L294.156 100.431C292.676 100.465 290.696 100.674 288.341 101.031L288.097 101.068C287.015 101.234 285.879 101.428 284.707 101.642C283.426 101.877 282.16 102.126 280.95 102.377L279.847 102.61L278.96 102.803L278.693 102.863L277.972 103.058C273.257 104.339 268.698 105.835 264.316 107.505L263.625 107.77C258.241 109.852 253.405 112.082 249.192 114.311L248.613 114.619C247.475 115.23 246.456 115.803 245.56 116.328L245.062 116.623C244.928 116.703 244.803 116.778 244.684 116.851L244.109 117.207C244.074 117.229 244.046 117.246 244.027 117.259C243.484 117.611 242.756 117.421 242.455 116.848C239.766 111.736 231.474 101.283 228.263 98.6943L228.116 98.5793L222.061 100.606L224.097 104.723L225.66 107.864C226.831 110.213 227.996 112.536 229.128 114.777L230.697 117.871C234.008 124.375 236.513 129.118 237.884 131.414C242.264 138.723 244.845 140.9 254.749 144.8C258.077 146.087 262.318 146.813 266.668 146.813C267.275 146.813 267.768 147.305 267.768 147.912C267.768 148.519 267.275 149.011 266.668 149.011C262.056 149.011 257.547 148.239 253.949 146.847L253.036 146.484C243.609 142.693 240.612 140.144 236.272 132.999L235.996 132.541C234.61 130.219 232.141 125.55 228.874 119.138L227.916 117.252C226.425 114.311 224.865 111.202 223.3 108.06L221.957 105.357L219.532 100.448C219.248 99.8707 219.519 99.1804 220.108 98.9443L220.17 98.9215L227.941 96.3208Z" fill="#225696"/>
<path fill-rule="evenodd" clip-rule="evenodd" d="M221.472 103.297C221.472 103.297 214.471 95.1649 209.412 85.458C204.647 76.3371 206.626 65.0184 214.507 58.425C221.105 52.8939 227.41 54.3591 227.41 54.3591C227.41 54.3591 216.01 42.784 224.991 27.7657C228.143 22.4909 233.385 18.6814 239.433 17.3627C254.168 14.1393 261.793 25.3481 261.793 25.3481C261.793 25.3481 270.26 -7.32591 306.622 1.68508C310.288 2.60083 315.127 6.48361 317.692 9.26749C333.198 26.1539 304.02 58.0221 286.279 64.3957C266.815 71.4287 254.278 71.0624 246.617 67.7657C252.152 69.4506 252.336 100.476 221.472 103.297Z" fill="#225696"/>
<path fill-rule="evenodd" clip-rule="evenodd" d="M277.148 91.8157C277.882 91.5393 278.698 91.8897 279.008 92.6003L279.037 92.6702L285.928 110.949C286.282 111.888 285.607 112.89 284.616 112.929L284.548 112.93L277.474 112.894C276.664 112.89 276.011 112.23 276.015 111.421C276.019 110.636 276.64 109.999 277.416 109.965L277.489 109.963L282.432 109.989L276.293 93.7034C276.016 92.9698 276.367 92.1537 277.078 91.844L277.148 91.8157Z" fill="#225696"/>
<path fill-rule="evenodd" clip-rule="evenodd" d="M273.889 127.29C275.812 127.29 277.371 125.732 277.371 123.81C277.371 121.888 275.812 120.33 273.889 120.33C271.966 120.33 270.407 121.888 270.407 123.81C270.407 125.732 271.966 127.29 273.889 127.29Z" fill="#225696"/>
<path fill-rule="evenodd" clip-rule="evenodd" d="M285.804 94.6634C286.865 94.3982 287.39 92.8469 286.977 91.1984C286.565 89.5498 285.37 88.4284 284.31 88.6935C283.249 88.9587 282.724 90.51 283.137 92.1585C283.55 93.807 284.744 94.9285 285.804 94.6634Z" fill="#225696"/>
<path fill-rule="evenodd" clip-rule="evenodd" d="M267.15 98.9898C268.21 98.7246 268.735 97.1733 268.323 95.5248C267.91 93.8763 266.716 92.7548 265.655 93.0199C264.595 93.2851 264.069 94.8364 264.482 96.4849C264.895 98.1334 266.089 99.2549 267.15 98.9898Z" fill="#225696"/>
<path fill-rule="evenodd" clip-rule="evenodd" d="M261.652 77.5525C262.459 77.475 263.175 78.0652 263.252 78.8707C263.33 79.6762 262.739 80.392 261.933 80.4694C259.922 80.6627 258.353 81.4692 257.139 82.7048C256.645 83.2066 256.246 83.7457 255.935 84.2815L255.851 84.4288C255.735 84.6388 255.66 84.7977 255.624 84.8873L255.613 84.9146C255.326 85.6713 254.48 86.0524 253.722 85.7658C252.965 85.4791 252.584 84.6333 252.871 83.8766C252.962 83.6355 253.134 83.2664 253.398 82.8112C253.826 82.0731 254.371 81.3383 255.047 80.6511C256.725 78.9441 258.921 77.8149 261.652 77.5525Z" fill="#225696"/>
<path fill-rule="evenodd" clip-rule="evenodd" d="M279.996 72.4557C281.331 71.9929 282.709 71.7923 284.058 72.0219C285.723 72.3052 287.135 73.2307 288.117 74.8424C288.539 75.5335 288.319 76.435 287.628 76.8559C286.936 77.2769 286.034 77.0579 285.613 76.3668C285.081 75.4942 284.41 75.0543 283.566 74.9107C282.778 74.7765 281.866 74.9092 280.958 75.2241C280.723 75.3058 280.508 75.3929 280.32 75.4789L280.155 75.5573L280.125 75.5729C279.414 75.9597 278.523 75.697 278.136 74.9862C277.749 74.2754 278.012 73.3856 278.723 72.9989L278.85 72.9327C279.122 72.7945 279.512 72.6236 279.996 72.4557Z" fill="#225696"/>
<path fill-rule="evenodd" clip-rule="evenodd" d="M496.315 206.374H353.798C351.929 206.374 350.316 207.656 349.876 209.487L330.045 293.297H278.398C278.398 293.297 275.539 308.059 292.217 308.059C300.684 308.059 474.175 308.059 474.175 308.059C476.044 308.059 477.657 306.777 478.097 304.945L500.237 211.319C500.823 208.791 498.917 206.374 496.315 206.374Z" fill="#225696"/>
<path fill-rule="evenodd" clip-rule="evenodd" d="M439.755 82.2711H438.619C437.592 82.2711 436.786 81.4653 436.786 80.4396V77.5459C436.786 76.5202 437.592 75.7144 438.619 75.7144H439.755C440.781 75.7144 441.588 76.5202 441.588 77.5459V80.4396C441.588 81.4653 440.781 82.2711 439.755 82.2711Z" fill="#439BD7"/>
<path fill-rule="evenodd" clip-rule="evenodd" d="M433.12 82.2711H403.869C402.843 82.2711 402.037 81.4653 402.037 80.4396V77.5459C402.037 76.5202 402.843 75.7144 403.869 75.7144H433.12C434.147 75.7144 434.953 76.5202 434.953 77.5459V80.4396C434.953 81.4653 434.147 82.2711 433.12 82.2711Z" fill="#225696"/>
<path fill-rule="evenodd" clip-rule="evenodd" d="M436.126 112.711H403.906C402.88 112.711 402.073 111.905 402.073 110.879V107.986C402.073 106.96 402.88 106.154 403.906 106.154H436.126C437.153 106.154 437.959 106.96 437.959 107.986V110.879C437.959 111.905 437.116 112.711 436.126 112.711Z" fill="#225696"/>
<path fill-rule="evenodd" clip-rule="evenodd" d="M464.974 102.564H412.96C411.934 102.564 411.127 101.758 411.127 100.733V97.8388C411.127 96.8132 411.934 96.0073 412.96 96.0073H464.974C466 96.0073 466.807 96.8132 466.807 97.8388V100.733C466.807 101.758 466 102.564 464.974 102.564Z" fill="#439BD7"/>
<path fill-rule="evenodd" clip-rule="evenodd" d="M498.147 102.564H471.755C470.729 102.564 469.922 101.758 469.922 100.733V97.8388C469.922 96.8132 470.729 96.0073 471.755 96.0073H498.147C499.173 96.0073 499.98 96.8132 499.98 97.8388V100.733C499.98 101.758 499.173 102.564 498.147 102.564Z" fill="#439BD7"/>
<path fill-rule="evenodd" clip-rule="evenodd" d="M508.337 92.4542H507.201C506.175 92.4542 505.368 91.6484 505.368 90.6227V87.729C505.368 86.7033 506.175 85.8975 507.201 85.8975H508.337C509.364 85.8975 510.17 86.7033 510.17 87.729V90.6227C510.17 91.6117 509.364 92.4542 508.337 92.4542Z" fill="#225696"/>
<path fill-rule="evenodd" clip-rule="evenodd" d="M457.79 92.4176H403.869C402.843 92.4176 402.037 91.6117 402.037 90.5861V87.6923C402.037 86.6667 402.843 85.8608 403.869 85.8608H457.79C458.816 85.8608 459.622 86.6667 459.622 87.6923V90.5861C459.622 91.6117 458.816 92.4176 457.79 92.4176Z" fill="#225696"/>
<path fill-rule="evenodd" clip-rule="evenodd" d="M474.798 82.2711H445.547C444.52 82.2711 443.714 81.4653 443.714 80.4396V77.5459C443.714 76.5202 444.52 75.7144 445.547 75.7144H474.798C475.824 75.7144 476.63 76.5202 476.63 77.5459V80.4396C476.63 81.4653 475.787 82.2711 474.798 82.2711Z" fill="#225696"/>
<path fill-rule="evenodd" clip-rule="evenodd" d="M500.97 92.4542H464.021C462.995 92.4542 462.188 91.6484 462.188 90.6227V87.6923C462.188 86.6667 462.995 85.8608 464.021 85.8608H500.97C501.996 85.8608 502.802 86.6667 502.802 87.6923V90.6227C502.802 91.6117 501.996 92.4542 500.97 92.4542Z" fill="#439BD7"/>
<path fill-rule="evenodd" clip-rule="evenodd" d="M433.12 147.985H403.869C402.843 147.985 402.037 147.18 402.037 146.154V143.26C402.037 142.235 402.843 141.429 403.869 141.429H433.12C434.147 141.429 434.953 142.235 434.953 143.26V146.154C434.953 147.18 434.147 147.985 433.12 147.985Z" fill="#225696"/>
<path fill-rule="evenodd" clip-rule="evenodd" d="M436.126 178.425H403.906C402.88 178.425 402.073 177.619 402.073 176.593V173.7C402.073 172.674 402.88 171.868 403.906 171.868H436.126C437.153 171.868 437.959 172.674 437.959 173.7V176.593C437.959 177.582 437.116 178.425 436.126 178.425Z" fill="#225696"/>
<path fill-rule="evenodd" clip-rule="evenodd" d="M464.974 168.278H412.96C411.934 168.278 411.127 167.473 411.127 166.447V163.553C411.127 162.528 411.934 161.722 412.96 161.722H464.974C466 161.722 466.807 162.528 466.807 163.553V166.447C466.807 167.473 466 168.278 464.974 168.278Z" fill="#439BD7"/>
<path fill-rule="evenodd" clip-rule="evenodd" d="M498.147 168.278H471.755C470.729 168.278 469.922 167.473 469.922 166.447V163.553C469.922 162.528 470.729 161.722 471.755 161.722H498.147C499.173 161.722 499.98 162.528 499.98 163.553V166.447C499.98 167.473 499.173 168.278 498.147 168.278Z" fill="#439BD7"/>
<path fill-rule="evenodd" clip-rule="evenodd" d="M508.337 158.169H507.201C506.175 158.169 505.368 157.363 505.368 156.337V153.443C505.368 152.418 506.175 151.612 507.201 151.612H508.337C509.364 151.612 510.17 152.418 510.17 153.443V156.337C510.17 157.326 509.364 158.169 508.337 158.169Z" fill="#225696"/>
<path fill-rule="evenodd" clip-rule="evenodd" d="M516.695 147.985H515.559C514.532 147.985 513.726 147.18 513.726 146.154V143.26C513.726 142.235 514.532 141.429 515.559 141.429H516.695C517.721 141.429 518.528 142.235 518.528 143.26V146.154C518.528 147.18 517.721 147.985 516.695 147.985Z" fill="#225696"/>
<path fill-rule="evenodd" clip-rule="evenodd" d="M457.79 158.132H403.869C402.843 158.132 402.037 157.326 402.037 156.3V153.407C402.037 152.381 402.843 151.575 403.869 151.575H457.79C458.816 151.575 459.622 152.381 459.622 153.407V156.3C459.622 157.326 458.816 158.132 457.79 158.132Z" fill="#225696"/>
<path fill-rule="evenodd" clip-rule="evenodd" d="M474.798 147.985H438.655C437.629 147.985 436.823 147.18 436.823 146.154V143.26C436.823 142.235 437.629 141.429 438.655 141.429H474.798C475.824 141.429 476.63 142.235 476.63 143.26V146.154C476.63 147.18 475.787 147.985 474.798 147.985Z" fill="#439BD7"/>
<path fill-rule="evenodd" clip-rule="evenodd" d="M510.243 147.985H480.992C479.966 147.985 479.16 147.18 479.16 146.154V143.26C479.16 142.235 479.966 141.429 480.992 141.429H510.243C511.27 141.429 512.076 142.235 512.076 143.26V146.154C512.076 147.18 511.27 147.985 510.243 147.985Z" fill="#439BD7"/>
<path fill-rule="evenodd" clip-rule="evenodd" d="M439.755 138.169H438.619C437.592 138.169 436.786 137.363 436.786 136.337V133.443C436.786 132.418 437.592 131.612 438.619 131.612H439.755C440.781 131.612 441.588 132.418 441.588 133.443V136.337C441.588 137.326 440.781 138.169 439.755 138.169Z" fill="#439BD7"/>
<path fill-rule="evenodd" clip-rule="evenodd" d="M433.12 138.169H403.869C402.843 138.169 402.037 137.363 402.037 136.337V133.443C402.037 132.418 402.843 131.612 403.869 131.612H433.12C434.147 131.612 434.953 132.418 434.953 133.443V136.337C434.953 137.326 434.147 138.169 433.12 138.169Z" fill="#225696"/>
<path fill-rule="evenodd" clip-rule="evenodd" d="M474.798 138.169H445.547C444.52 138.169 443.714 137.363 443.714 136.337V133.443C443.714 132.418 444.52 131.612 445.547 131.612H474.798C475.824 131.612 476.63 132.418 476.63 133.443V136.337C476.63 137.326 475.787 138.169 474.798 138.169Z" fill="#225696"/>
<path fill-rule="evenodd" clip-rule="evenodd" d="M500.97 158.169H464.021C462.995 158.169 462.188 157.363 462.188 156.337V153.407C462.188 152.381 462.995 151.575 464.021 151.575H500.97C501.996 151.575 502.802 152.381 502.802 153.407V156.337C502.802 157.326 501.996 158.169 500.97 158.169Z" fill="#439BD7"/>
<path fill-rule="evenodd" clip-rule="evenodd" d="M546.485 267.952C552.372 267.503 557.484 271.916 557.892 277.792C558.342 283.674 553.926 288.783 548.017 289.193C547.095 289.239 546.342 289.22 545.6 289.109C544.999 289.019 544.585 288.459 544.675 287.859C544.765 287.259 545.325 286.845 545.926 286.935C546.503 287.022 547.119 287.037 547.886 286.999C552.556 286.675 556.056 282.625 555.699 277.952C555.375 273.285 551.322 269.787 546.66 270.143C545.898 270.206 545.141 270.364 544.424 270.603C543.848 270.795 543.225 270.484 543.033 269.908C542.841 269.332 543.153 268.71 543.729 268.518C544.61 268.225 545.538 268.031 546.485 267.952Z" fill="#225696"/>
<path fill-rule="evenodd" clip-rule="evenodd" d="M506.687 253.289C507.139 252.919 507.797 252.969 508.189 253.39L508.235 253.443L521.907 270.109C522.292 270.579 522.224 271.271 521.754 271.656C521.302 272.026 520.644 271.977 520.252 271.555L520.206 271.503L506.534 254.836C506.149 254.367 506.218 253.674 506.687 253.289Z" fill="#225696"/>
<path fill-rule="evenodd" clip-rule="evenodd" d="M505.368 265.641V297.07C505.368 303.15 510.28 308.059 516.365 308.059H534.913C540.998 308.059 545.909 303.15 545.909 297.07V265.641H505.368ZM521.79 288.645C522.047 288.828 522.157 289.011 522.157 289.304C522.157 289.524 522.083 289.67 521.937 289.817C521.79 289.963 521.607 290.037 521.423 290.037C521.277 290.037 521.167 290 521.057 289.927L513.726 285.531C513.469 285.348 513.323 285.128 513.323 284.872C513.323 284.615 513.469 284.396 513.726 284.213L521.057 279.817C521.167 279.744 521.277 279.707 521.423 279.707C521.643 279.707 521.79 279.78 521.937 279.927C522.083 280.073 522.157 280.257 522.157 280.44C522.157 280.696 522.047 280.916 521.79 281.099L515.485 284.872L521.79 288.645ZM530.954 277.802L525.052 292.528C525.016 292.601 524.979 292.674 524.906 292.747C524.759 292.894 524.576 292.967 524.393 292.967C524.173 292.967 524.026 292.894 523.879 292.747C523.733 292.601 523.659 292.418 523.659 292.235C523.659 292.125 523.696 292.015 523.733 291.905L529.634 277.18C529.671 277.106 529.708 277.033 529.781 276.96C529.928 276.813 530.111 276.74 530.294 276.74C530.514 276.74 530.661 276.813 530.807 276.96C530.954 277.106 531.027 277.289 531.027 277.473C531.027 277.619 530.991 277.729 530.954 277.802ZM540.924 285.531L533.593 289.927C533.483 290 533.373 290.037 533.227 290.037C533.007 290.037 532.86 289.963 532.713 289.817C532.567 289.67 532.493 289.487 532.493 289.304C532.493 289.048 532.603 288.828 532.86 288.645L539.165 284.872L532.86 281.099C532.603 280.916 532.493 280.733 532.493 280.44C532.493 280.22 532.567 280.073 532.713 279.927C532.86 279.78 533.043 279.707 533.227 279.707C533.373 279.707 533.483 279.744 533.593 279.817L540.924 284.213C541.181 284.396 541.327 284.615 541.327 284.872C541.327 285.128 541.217 285.385 540.924 285.531Z" fill="#225696"/>
<path fill-rule="evenodd" clip-rule="evenodd" d="M88.4172 267.951C89.1291 267.907 89.7646 267.917 90.3539 267.995C90.9559 268.075 91.3788 268.628 91.2986 269.23C91.2183 269.831 90.6652 270.254 90.0632 270.174C89.6321 270.116 89.1342 270.108 88.5619 270.144C83.905 270.467 80.4232 274.507 80.7488 279.192C81.0731 283.858 85.1253 287.356 89.7949 287C90.4005 286.954 90.9289 287.407 90.9751 288.012C91.0214 288.617 90.568 289.145 89.9624 289.191C84.0759 289.641 78.9636 285.227 78.5548 279.344C78.1454 273.453 82.536 268.359 88.4172 267.951Z" fill="#225696"/>
<path fill-rule="evenodd" clip-rule="evenodd" d="M88.6323 265.641V297.07C88.6323 303.15 93.5442 308.059 99.629 308.059H118.177C124.261 308.059 129.173 303.15 129.173 297.07V265.641H88.6323ZM105.017 288.645C105.274 288.828 105.384 289.011 105.384 289.304C105.384 289.524 105.311 289.67 105.164 289.817C105.017 289.963 104.834 290.037 104.651 290.037C104.504 290.037 104.394 290 104.284 289.927L96.9532 285.531C96.6966 285.348 96.5499 285.128 96.5499 284.872C96.5499 284.615 96.6966 284.396 96.9532 284.213L104.284 279.817C104.394 279.744 104.504 279.707 104.651 279.707C104.871 279.707 105.017 279.78 105.164 279.927C105.311 280.073 105.384 280.257 105.384 280.44C105.384 280.696 105.274 280.916 105.017 281.099L98.7126 284.872L105.017 288.645ZM120.486 285.531L113.155 289.927C113.045 290 112.935 290.037 112.788 290.037C112.568 290.037 112.422 289.963 112.275 289.817C112.129 289.67 112.055 289.487 112.055 289.304C112.055 289.048 112.165 288.828 112.422 288.645L118.726 284.872L112.422 281.099C112.165 280.916 112.055 280.733 112.055 280.44C112.055 280.22 112.129 280.073 112.275 279.927C112.422 279.78 112.605 279.707 112.788 279.707C112.935 279.707 113.045 279.744 113.155 279.817L120.486 284.213C120.743 284.396 120.889 284.615 120.889 284.872C120.889 285.128 120.743 285.385 120.486 285.531Z" fill="#225696"/>
<path fill-rule="evenodd" clip-rule="evenodd" d="M151.075 242.921C151.587 242.638 152.226 242.807 152.535 243.294L152.569 243.351L157.591 252.436C157.885 252.967 157.692 253.635 157.16 253.929C156.648 254.212 156.009 254.043 155.7 253.556L155.666 253.498L150.644 244.414C150.35 243.883 150.543 243.214 151.075 242.921Z" fill="#225696"/>
<path fill-rule="evenodd" clip-rule="evenodd" d="M173.27 252.857C173.877 252.857 174.37 253.349 174.37 253.956C174.37 254.541 173.912 255.02 173.334 255.053L173.27 255.055H145.485C144.878 255.055 144.385 254.563 144.385 253.956C144.385 253.371 144.843 252.892 145.42 252.859L145.485 252.857H173.27Z" fill="#225696"/>
<path fill-rule="evenodd" clip-rule="evenodd" d="M169.421 283.553C169.018 283.15 168.505 282.93 167.882 282.93C167.295 282.93 166.782 283.15 166.342 283.553C165.939 283.956 165.719 284.469 165.719 285.092C165.719 285.678 165.939 286.191 166.342 286.63C166.745 287.033 167.258 287.253 167.882 287.253C168.468 287.253 168.981 287.033 169.421 286.63C169.824 286.227 170.044 285.714 170.044 285.092C170.044 284.469 169.861 283.956 169.421 283.553Z" fill="#225696"/>
<path fill-rule="evenodd" clip-rule="evenodd" d="M167.918 280.33C168.505 280.33 169.018 280.11 169.458 279.707C169.861 279.304 170.081 278.791 170.081 278.169C170.081 277.582 169.861 277.07 169.458 276.63C169.054 276.227 168.541 276.007 167.918 276.007C167.332 276.007 166.819 276.227 166.379 276.63C165.975 277.033 165.755 277.546 165.755 278.169C165.755 278.755 165.975 279.267 166.379 279.707C166.819 280.11 167.295 280.33 167.918 280.33Z" fill="#225696"/>
<path fill-rule="evenodd" clip-rule="evenodd" d="M169.421 293.48C169.824 293.077 170.044 292.564 170.044 291.941C170.044 291.355 169.824 290.842 169.421 290.403C169.018 290 168.505 289.78 167.882 289.78C167.295 289.78 166.782 290 166.342 290.403C165.939 290.806 165.719 291.318 165.719 291.941C165.719 292.527 165.939 293.04 166.342 293.48C166.745 293.883 167.258 294.102 167.882 294.102C168.505 294.102 169.018 293.883 169.421 293.48Z" fill="#225696"/>
<path fill-rule="evenodd" clip-rule="evenodd" d="M176.019 260.586L171.144 254.249H147.648L142.773 260.586C142.296 261.209 142.039 261.905 142.039 262.637V301.209C142.039 302.417 142.699 303.516 143.836 304.249C145.338 305.201 147.281 306.63 147.391 308.022H171.327C171.474 306.63 173.38 305.165 174.883 304.249C176.019 303.553 176.679 302.417 176.679 301.209V262.637C176.716 261.905 176.496 261.172 176.019 260.586ZM165.829 267.985L168.395 263.7C168.505 263.553 168.615 263.48 168.798 263.48C168.945 263.48 169.091 263.553 169.201 263.7L171.767 267.985C171.804 268.059 171.804 268.132 171.804 268.205C171.804 268.315 171.767 268.425 171.694 268.498C171.62 268.571 171.51 268.608 171.4 268.608C171.254 268.608 171.107 268.535 171.034 268.388L168.835 264.725L166.635 268.388C166.525 268.535 166.415 268.608 166.269 268.608C166.159 268.608 166.049 268.571 165.975 268.498C165.902 268.425 165.866 268.315 165.866 268.205C165.756 268.095 165.792 268.022 165.829 267.985ZM165.975 269.597C166.049 269.56 166.122 269.524 166.232 269.524C166.342 269.524 166.452 269.56 166.525 269.634C166.599 269.707 166.635 269.817 166.635 269.927C166.635 270.037 166.599 270.146 166.525 270.22C166.452 270.293 166.379 270.33 166.379 270.366C165.975 270.769 165.756 271.282 165.756 271.905C165.756 272.491 165.939 272.967 166.305 273.333C166.415 273.406 166.525 273.48 166.672 273.48C166.855 273.48 166.965 273.37 167.002 273.223L167.882 270.586C167.992 270.256 168.138 270.037 168.248 269.89C168.505 269.634 168.798 269.524 169.164 269.524C169.531 269.524 169.824 269.67 170.081 269.927C170.594 270.439 170.887 271.099 170.887 271.941C170.887 272.857 170.521 273.626 169.824 274.249C169.751 274.322 169.678 274.322 169.568 274.322C169.458 274.322 169.348 274.286 169.274 274.212C169.201 274.139 169.164 274.029 169.164 273.919C169.164 273.809 169.201 273.7 169.274 273.626C169.348 273.553 169.421 273.516 169.421 273.48C169.824 273.077 170.044 272.564 170.044 271.941C170.044 271.355 169.861 270.879 169.494 270.513C169.384 270.439 169.274 270.366 169.128 270.366C168.945 270.366 168.835 270.476 168.798 270.623L167.918 273.26C167.808 273.59 167.662 273.809 167.552 273.956C167.295 274.212 167.002 274.322 166.635 274.322C166.269 274.322 165.975 274.176 165.719 273.919C165.206 273.406 164.912 272.747 164.912 271.905C164.912 270.989 165.242 270.22 165.975 269.597ZM165.792 276.044C166.379 275.458 167.075 275.165 167.918 275.165C168.761 275.165 169.458 275.458 170.044 276.044C170.631 276.63 170.924 277.326 170.924 278.168C170.924 279.011 170.631 279.707 170.044 280.293C169.458 280.879 168.761 281.172 167.918 281.172C167.075 281.172 166.379 280.879 165.792 280.293C165.206 279.707 164.912 279.011 164.912 278.168C164.912 277.326 165.206 276.63 165.792 276.044ZM165.022 294.835C164.949 294.762 164.912 294.652 164.912 294.542C164.912 294.432 164.949 294.322 165.022 294.249C165.096 294.176 165.206 294.139 165.316 294.139H165.792C165.206 293.553 164.876 292.82 164.876 291.978C164.876 291.135 165.169 290.439 165.756 289.853C166.342 289.267 167.038 288.974 167.882 288.974C168.725 288.974 169.421 289.267 170.008 289.853C170.594 290.439 170.887 291.135 170.887 291.978C170.887 292.82 170.594 293.516 170.008 294.102C169.421 294.689 168.725 294.982 167.882 294.982H165.316C165.206 294.945 165.096 294.908 165.022 294.835ZM171.73 296.447L169.164 300.733C169.055 300.879 168.945 300.952 168.761 300.952C168.615 300.952 168.468 300.879 168.358 300.733L165.792 296.447C165.756 296.374 165.756 296.3 165.756 296.227C165.756 296.117 165.792 296.007 165.865 295.934C165.939 295.861 166.049 295.824 166.159 295.824C166.305 295.824 166.452 295.897 166.525 296.044L168.725 299.707L170.924 296.044C171.034 295.897 171.144 295.824 171.29 295.824C171.4 295.824 171.51 295.861 171.584 295.934C171.657 296.007 171.694 296.117 171.694 296.227C171.767 296.337 171.767 296.374 171.73 296.447ZM173.38 287.949C173.307 288.022 173.197 288.059 173.087 288.059H167.918C167.075 288.059 166.379 287.766 165.792 287.179C165.206 286.593 164.912 285.897 164.912 285.055C164.912 284.212 165.206 283.516 165.792 282.93C166.379 282.344 167.075 282.051 167.918 282.051C168.761 282.051 169.458 282.344 170.044 282.93C170.631 283.516 170.924 284.212 170.924 285.055C170.924 285.897 170.631 286.593 170.044 287.179C170.044 287.179 170.044 287.179 170.008 287.216H173.087C173.197 287.216 173.307 287.253 173.38 287.326C173.453 287.399 173.49 287.509 173.49 287.619C173.49 287.729 173.453 287.875 173.38 287.949Z" fill="#225696"/>
<path fill-rule="evenodd" clip-rule="evenodd" d="M264.013 128.851C265.61 126.675 268.467 127.253 271.381 130.262C274.218 133.197 276.04 137.091 277.048 141.321C277.189 141.911 276.824 142.504 276.233 142.644C275.642 142.785 275.049 142.42 274.909 141.83C273.984 137.95 272.322 134.399 269.8 131.79C267.702 129.623 266.371 129.354 265.786 130.151C265.074 131.121 265.168 133.33 266.223 135.447L266.289 135.576C267.819 138.535 268.247 144.362 268.024 151.573C268.005 152.179 267.498 152.656 266.891 152.637C266.283 152.618 265.807 152.111 265.825 151.504L265.847 150.736C266.001 144.372 265.584 139.119 264.384 136.682L264.335 136.586C262.871 133.761 262.716 130.618 264.013 128.851Z" fill="#225696"/>
<path fill-rule="evenodd" clip-rule="evenodd" d="M313.074 123.736C307.183 123.736 302.407 128.509 302.407 134.396C302.407 140.283 307.183 145.055 313.074 145.055C318.965 145.055 323.741 140.283 323.741 134.396C323.741 128.509 318.965 123.736 313.074 123.736ZM313.074 125.934C317.75 125.934 321.541 129.723 321.541 134.396C321.541 139.069 317.75 142.857 313.074 142.857C308.397 142.857 304.606 139.069 304.606 134.396C304.606 129.723 308.397 125.934 313.074 125.934Z" fill="#225696"/>
<path fill-rule="evenodd" clip-rule="evenodd" d="M255.981 169.366C256.443 169.031 257.081 169.109 257.452 169.533L257.651 169.784C257.785 169.951 257.943 170.146 258.125 170.367C258.646 170.999 259.252 171.705 259.934 172.466C261.882 174.642 264.047 176.818 266.367 178.846C271.94 183.717 277.488 186.945 282.642 187.78C283.067 187.849 283.413 188.159 283.527 188.574L283.551 188.668C283.588 188.826 283.631 189.056 283.671 189.362C283.887 190.985 283.852 193.221 283.409 196.107L283.369 196.363C283.14 197.797 283.489 198.803 284.645 200.575L285.224 201.448C286.064 202.73 286.478 203.515 286.788 204.557C287.234 206.058 287.218 207.645 286.674 209.429L286.667 209.462C286.535 210.196 285.444 220.807 284.922 225.368L284.874 225.782C283.489 237.69 281.826 248.805 279.68 259.333C276.852 273.212 273.422 284.772 269.272 293.404C264.271 303.808 258.325 309.724 251.245 310.253C250.639 310.299 250.111 309.845 250.066 309.239C250.021 308.634 250.475 308.107 251.081 308.062C257.121 307.61 262.485 302.329 267.149 292.744L267.29 292.452C271.347 284.014 274.73 272.611 277.525 258.894C279.599 248.719 281.221 237.977 282.577 226.487L282.78 224.736C283.287 220.228 284.388 209.561 284.562 208.821L284.567 208.801C285.309 206.365 284.934 205.008 283.289 202.508L282.904 201.928C281.396 199.649 280.854 198.167 281.197 196.017C281.619 193.373 281.678 191.349 281.522 189.907L281.51 189.807L281.307 189.765C276.049 188.651 270.605 185.422 265.174 180.721L264.919 180.5C262.527 178.408 260.3 176.17 258.295 173.932C257.72 173.291 257.198 172.686 256.731 172.129L256.443 171.784L255.945 172.182C254.985 172.955 253.76 173.973 252.244 175.268C251.276 176.094 250.221 176.532 249.028 176.667L248.847 176.686C248.104 176.755 247.471 176.715 246.201 176.569L246.046 176.551C243.049 176.199 241.814 176.437 240.197 178.248L240.113 178.343C239.075 179.528 233.767 188.025 225.666 201.366L223.1 205.598L222.051 207.332C219.59 211.404 217.034 215.649 214.458 219.94L208.158 230.46L206.545 233.163C206.234 233.684 205.559 233.855 205.037 233.545C204.535 233.246 204.358 232.609 204.623 232.097L206.473 228.994L209.808 223.42C213.126 217.88 216.457 212.34 219.64 207.071L223.56 200.596C231.974 186.735 237.28 178.239 238.458 176.896C239.7 175.475 241.043 174.669 242.551 174.358C243.551 174.152 244.345 174.155 245.794 174.31L246.604 174.402C248.856 174.648 249.739 174.515 250.815 173.597L251.735 172.815C252.853 171.869 253.793 171.093 254.567 170.469L255.142 170.01C255.282 169.9 255.41 169.8 255.526 169.71L255.905 169.421C255.937 169.397 255.962 169.379 255.981 169.366Z" fill="#225696"/>
<path fill-rule="evenodd" clip-rule="evenodd" d="M283.42 196.044C284.336 190.586 284.703 188.242 284.703 188.242C270.7 186.081 256.295 168.498 256.295 168.498C256.295 168.498 254.865 169.561 250.833 173.04C249.22 174.432 247.534 174.432 245.774 174.249C244.528 189.524 271.983 203.114 284.959 203.773C284.153 200.11 282.723 200.183 283.42 196.044Z" fill="#225696"/>
<path fill-rule="evenodd" clip-rule="evenodd" d="M203.736 214.751C207.842 214.232 211.458 215.184 214.342 217.879C214.786 218.293 214.809 218.989 214.394 219.432C213.979 219.875 213.283 219.899 212.84 219.484C210.47 217.27 207.508 216.489 204.012 216.932C200.84 217.333 197.392 218.718 193.896 220.782C192.405 221.661 191.008 222.605 189.746 223.548L189.424 223.791C189.216 223.949 189.021 224.101 188.839 224.246L188.575 224.456C188.482 224.532 188.398 224.601 188.324 224.662L188.174 224.788C187.714 225.185 187.019 225.133 186.623 224.674C186.226 224.214 186.277 223.52 186.737 223.124L186.889 222.996C186.953 222.942 187.031 222.878 187.121 222.805L187.471 222.524C187.761 222.295 188.081 222.048 188.429 221.788C189.751 220.8 191.214 219.812 192.778 218.889C196.509 216.687 200.219 215.196 203.736 214.751Z" fill="#225696"/>
<path fill-rule="evenodd" clip-rule="evenodd" d="M295.532 129.235L295.435 129.246C293.961 129.458 289.902 131.765 284.183 135.449L283.013 136.208C277.814 139.594 272.701 143.189 271.004 144.666L270.912 144.75C269.391 146.179 265.961 151.813 260.94 160.811L260.624 161.378C260.33 161.906 260.031 162.444 259.729 162.989L258.84 164.602C257.201 167.583 255.513 170.697 253.834 173.831L252.376 176.561C251.842 177.562 251.341 178.508 250.876 179.387L249.895 181.248C249.622 181.769 249.808 182.413 250.317 182.708L278.029 198.789L278.089 198.821C278.652 199.104 279.345 198.855 279.594 198.267L293.168 166.185L293.355 166.181C299.09 166.05 302.925 164.533 304.657 162.086C306.322 159.732 305.522 156.719 303.043 156.523L302.978 156.519C302.655 156.497 302.226 156.497 301.697 156.517L301.361 156.531L301.401 156.518C304.731 155.412 306.735 153.73 307.37 151.68C308.088 149.366 306.727 146.943 304.675 146.815L304.627 146.812C304.138 146.785 303.247 146.885 301.979 147.101L301.779 147.135L301.853 147.096C303.681 146.095 304.883 144.589 305.271 142.891C305.763 140.735 304.787 138.691 302.797 138.168L302.736 138.154C301.591 137.904 298.582 138.494 294.441 139.654L293.998 139.778L294.199 139.662C295.492 138.911 296.595 138.238 297.477 137.658C299.889 136.071 300.717 133.917 299.872 131.936C299.151 130.244 297.302 129.083 295.532 129.235ZM297.849 132.798C298.248 133.733 297.843 134.786 296.267 135.822L295.977 136.011C294.932 136.686 293.584 137.49 291.989 138.396L291.192 138.847C291 138.955 290.805 139.064 290.608 139.173C289.064 140.033 287.42 140.922 285.765 141.798L284.664 142.378L282.929 143.28L282.662 143.417C281.445 144.04 282.231 145.881 283.523 145.434L284.338 145.154C293.098 142.157 301 139.972 302.24 140.294C302.977 140.488 303.374 141.319 303.127 142.402C302.816 143.762 301.604 145.012 299.615 145.682L299.436 145.741L284.517 151.053C283.222 151.514 283.78 153.43 285.089 153.168L285.207 153.14L287.28 152.628L287.796 152.502C289.801 152.013 291.852 151.524 293.828 151.068L294.695 150.869L295.926 150.59C300.549 149.554 303.774 148.949 304.521 149.008C305.06 149.041 305.592 149.989 305.27 151.03C304.749 152.711 302.444 154.256 298.081 155.108L296.618 155.387C288.895 156.882 286.14 157.863 285.714 158.821C285.372 159.59 285.985 160.433 286.809 160.363L288.795 160.096C290.269 159.902 291.801 159.707 293.31 159.525L294.085 159.433L295.817 159.234C299.385 158.838 301.93 158.64 302.87 158.714C303.398 158.756 303.65 159.702 302.861 160.817C301.52 162.712 298.039 164.008 292.44 163.993L292.366 163.995C291.953 164.021 291.587 164.279 291.424 164.664L278.054 196.262L252.333 181.337L254.141 177.924C254.374 177.486 254.614 177.036 254.859 176.576L255.772 174.869C257.753 171.173 259.744 167.505 261.654 164.053L262.546 162.446L263.44 160.845C268.031 152.664 271.321 147.305 272.449 146.323C276.453 142.838 293.784 131.59 295.72 131.425C296.525 131.356 297.493 131.963 297.849 132.798Z" fill="#225696"/>
<path fill-rule="evenodd" clip-rule="evenodd" d="M234.291 267.952C240.177 267.503 245.29 271.916 245.698 277.792C246.148 283.674 241.731 288.783 235.834 289.192C234.428 289.277 233.095 289.133 231.901 288.735C231.325 288.543 231.013 287.921 231.205 287.345C231.397 286.769 232.02 286.458 232.596 286.65C233.506 286.953 234.561 287.067 235.691 286.999C240.361 286.675 243.862 282.626 243.504 277.952C243.18 273.285 239.128 269.787 234.453 270.144C233.991 270.177 233.529 270.243 233.065 270.342C232.472 270.469 231.887 270.091 231.76 269.498C231.633 268.904 232.011 268.32 232.605 268.193C233.168 268.072 233.732 267.992 234.291 267.952Z" fill="#225696"/>
<path fill-rule="evenodd" clip-rule="evenodd" d="M193.21 265.641V297.07C193.21 303.15 198.122 308.059 204.207 308.059H222.755C228.84 308.059 233.751 303.15 233.751 297.07V265.641H193.21ZM209.595 288.645C209.852 288.828 209.962 289.011 209.962 289.304C209.962 289.524 209.889 289.67 209.742 289.817C209.595 289.963 209.412 290.037 209.229 290.037C209.082 290.037 208.972 290 208.862 289.927L201.531 285.531C201.275 285.348 201.128 285.128 201.128 284.872C201.128 284.615 201.275 284.396 201.531 284.213L208.862 279.817C208.972 279.744 209.082 279.707 209.229 279.707C209.449 279.707 209.595 279.78 209.742 279.927C209.889 280.073 209.962 280.257 209.962 280.44C209.962 280.696 209.852 280.916 209.595 281.099L203.291 284.872L209.595 288.645ZM218.759 277.802L212.858 292.528C212.821 292.601 212.784 292.674 212.711 292.747C212.565 292.894 212.381 292.967 212.198 292.967C211.978 292.967 211.831 292.894 211.685 292.747C211.538 292.601 211.465 292.418 211.465 292.235C211.465 292.125 211.501 292.015 211.538 291.905L217.44 277.18C217.476 277.106 217.513 277.033 217.586 276.96C217.733 276.813 217.916 276.74 218.1 276.74C218.319 276.74 218.466 276.813 218.613 276.96C218.759 277.106 218.833 277.289 218.833 277.473C218.833 277.619 218.796 277.729 218.759 277.802ZM228.73 285.531L221.399 289.927C221.289 290 221.179 290.037 221.032 290.037C220.812 290.037 220.665 289.963 220.519 289.817C220.372 289.67 220.299 289.487 220.299 289.304C220.299 289.048 220.409 288.828 220.665 288.645L226.97 284.872L220.665 281.099C220.409 280.916 220.299 280.733 220.299 280.44C220.299 280.22 220.372 280.073 220.519 279.927C220.665 279.78 220.849 279.707 221.032 279.707C221.179 279.707 221.289 279.744 221.399 279.817L228.73 284.213C228.986 284.396 229.133 284.615 229.133 284.872C229.169 285.128 229.023 285.385 228.73 285.531Z" fill="#225696"/>
<path fill-rule="evenodd" clip-rule="evenodd" d="M600.93 307.875C601.537 307.875 602.029 308.367 602.029 308.974C602.029 309.56 601.572 310.038 600.994 310.071L600.93 310.073H1.09966C0.492336 310.073 0 309.581 0 308.974C0 308.389 0.457797 307.911 1.03505 307.877L1.09966 307.875H600.93Z" fill="#225696"/>
<path fill-rule="evenodd" clip-rule="evenodd" d="M312.927 152.931L310.911 121.575L270.443 124.176L271.836 145.385C275.429 142.308 293.097 130.513 295.662 130.293C298.228 130.073 301.307 133.81 296.909 136.703C292.51 139.597 283.2 144.359 283.2 144.359C290.934 141.648 300.721 138.718 302.554 139.194C305.34 139.927 305.156 145.055 299.841 146.74L284.922 152.051C284.922 152.051 302.297 147.692 304.643 147.876C306.989 148.059 309.042 154.139 298.118 156.191C287.195 158.278 286.755 159.231 286.755 159.231C286.755 159.231 300.208 157.326 302.994 157.583C305.779 157.839 305.853 165.092 292.473 165.055L292.4 165.238L302.7 164.579C308.712 164.213 313.33 158.974 312.927 152.931Z" fill="#225696"/>
</svg>
