<svg width="1226" height="710" viewBox="0 0 1226 710" fill="none" xmlns="http://www.w3.org/2000/svg">
<path fill-rule="evenodd" clip-rule="evenodd" d="M459.1 468.486C449.5 463.386 441.3 465.786 432.3 475.386C436.4 452.186 436.3 424.086 417.9 419.386C399 414.486 388.3 426.286 377.2 454.786C377.6 430.386 372.8 398.886 352.6 397.586C329.9 396.186 322.3 414.886 316.7 456.386C309.6 433.186 290.1 392.486 267.1 400.586C244.6 408.486 246.1 430.186 258.6 474.386C246.3 455.286 221.6 426.886 205.1 437.686C189.4 447.886 193.7 464.586 211.1 495.586C199.6 490.586 187.7 490.086 178.1 499.486C156.6 520.686 167 540.786 196.7 578.086C226.5 615.386 440.4 549.386 450.5 532.586C460.7 515.686 476.6 477.886 459.1 468.486Z" fill="white"/>
<path fill-rule="evenodd" clip-rule="evenodd" d="M325.429 409.776C321.299 417.285 318.29 427.685 315.704 442.88L315.524 443.947L315.501 443.89C311.378 433.411 306.072 423.061 300.302 415.002C289.798 400.334 278.175 393.506 266.103 397.757C253.998 402.007 247.856 410.189 246.771 423.172L246.706 424.04C246.14 432.649 247.599 443.375 251.292 458.547L251.494 459.373L251.236 459.052C246.145 452.725 240.686 446.965 235.344 442.518C223.432 432.601 212.417 429.311 203.457 435.176C194.702 440.864 191.258 448.692 192.716 459.247L192.773 459.645C193.917 467.357 197.583 476.675 204.302 489.393L204.737 490.213L204.485 490.15C193.688 487.472 183.93 489.58 176.001 497.343C164.639 508.546 161.318 519.968 165.322 533.595L165.541 534.323C169.126 545.887 177.604 558.921 194.353 579.955C208.779 598.012 260.784 595.445 331.683 578.542C389.835 564.679 447.239 543.832 453.071 534.132C459.312 523.792 465.299 510.092 468.104 498.425C471.892 482.67 470.041 470.958 460.52 465.844L460.152 465.651C451.975 461.44 444.456 462.015 436.926 467.295L436.506 467.594L436.568 467.097C437.777 457.019 437.834 447.715 436.494 439.939C434.326 427.366 428.538 419.008 418.642 416.48L418.046 416.329C401.583 412.299 390.494 419.558 380.219 440.337L379.859 441.07L379.847 440.896C379.215 431.881 377.78 423.541 375.473 416.58C371.067 403.288 363.596 395.288 352.793 394.593C340.394 393.828 331.677 398.642 325.621 409.431L325.429 409.776ZM352.415 400.581C367.34 401.541 374.708 423.77 374.2 454.737C374.145 458.083 378.781 458.993 379.995 455.875C391.211 427.079 400.988 418.101 417.147 422.29C430.847 425.79 434.388 446.331 429.346 474.864C428.826 477.802 432.448 479.615 434.489 477.438L435.148 476.747C443.131 468.515 449.76 466.922 457.692 471.136C464.058 474.555 465.492 483.625 462.271 497.023C459.621 508.041 453.876 521.186 447.931 531.036C446.001 534.247 431.356 541.362 409.749 549.209C386.816 557.537 358.189 566.055 330.292 572.706C262.221 588.934 211.218 591.452 199.044 576.214L197.03 573.673C181.754 554.294 174.109 542.218 171.078 531.903C167.718 520.466 170.38 511.312 180.206 501.623C188.047 493.945 198.057 493.187 209.904 498.338C212.54 499.484 215.123 496.625 213.716 494.118C195.703 462.026 193.846 448.576 206.734 440.202C218.421 432.553 239.267 449.906 256.078 476.011C257.944 478.909 262.425 476.887 261.487 473.57C248.166 426.47 249.374 409.99 268.094 403.417C276.994 400.283 286.293 405.745 295.423 418.496C302.919 428.963 309.695 443.748 313.831 457.264C314.773 460.342 319.242 459.978 319.673 456.788C325.539 413.314 333.346 399.405 352.415 400.581Z" fill="#439BD7"/>
<path fill-rule="evenodd" clip-rule="evenodd" d="M460.8 531.787L461 531.187L173.3 532.087L173.5 532.687C158.2 535.687 147.3 550.287 149.8 566.387L171.3 705.187L462.9 704.287L484.4 565.487C487 549.487 476.1 534.787 460.8 531.787Z" fill="#DDDDDD"/>
<path fill-rule="evenodd" clip-rule="evenodd" d="M932 481.786C927.5 481.786 923 482.086 918.6 482.586C894.7 449.586 867.3 421.586 838.5 403.786C763.5 357.586 660.5 370.786 564.4 406.386C498.3 430.786 414.6 509.586 360.9 565.386C290.9 570.686 237.1 618.286 240.3 672.786C241 684.686 244.4 695.886 249.9 706.186L484.8 707.786C485.2 707.186 485.6 706.486 486 705.886L834.4 704.686C834.8 705.186 835.2 705.686 835.6 706.286L1028.5 705.986C1046.4 682.286 1057.1 651.986 1057.1 618.886C1057.1 543.086 1001.1 481.786 932 481.786Z" fill="#6FB1F2"/>
<path fill-rule="evenodd" clip-rule="evenodd" d="M845.4 408.286C756.7 463.286 677.1 464.486 625.5 455.586C577.7 447.386 543.2 428.986 532 421.786C530.1 422.886 528.2 423.986 526.2 425.086C535.4 431.386 571.4 452.186 623.4 461.286C640.4 464.286 657.5 465.786 674.7 465.786C692.2 465.786 709.7 464.286 727.1 461.186C769.2 453.686 810.7 437.186 850.7 412.086C848.9 410.686 847.2 409.486 845.4 408.286Z" fill="white"/>
<path fill-rule="evenodd" clip-rule="evenodd" d="M836.2 502.786C850.3 482.986 867.7 471.886 888 469.686C897.4 468.686 905.3 469.986 910 471.086C908.1 468.686 906.2 466.286 904.3 463.986C899.7 463.386 894 463.086 887.7 463.786C872.4 465.386 850.2 472.786 831.3 499.386C830.3 500.686 830.7 502.586 832 503.586C832.5 503.986 833.1 504.186 833.7 504.186C834.7 504.086 835.6 503.686 836.2 502.786Z" fill="white"/>
<path fill-rule="evenodd" clip-rule="evenodd" d="M837.3 573.086V573.086C839 573.086 840.3 571.786 840.4 570.186C840.6 561.386 844.1 541.386 856.4 522.586C870.6 500.686 891.6 487.286 918.6 482.486C917.3 480.686 916 478.886 914.6 477.086C887.6 482.586 865.8 497.086 851.3 519.286C839.2 537.886 834.6 558.286 834.3 569.986C834.3 571.686 835.6 573.086 837.3 573.086Z" fill="white"/>
<path fill-rule="evenodd" clip-rule="evenodd" d="M413.6 543.586C400.9 543.086 388.7 544.286 379.7 546.186C376.7 549.186 373.7 552.186 370.8 555.186C381.9 549.086 445.1 541.486 471.2 571.186C471.8 571.886 472.6 572.186 473.5 572.186C474.2 572.186 474.9 571.986 475.5 571.486C476.7 570.386 476.9 568.486 475.8 567.286C458.9 547.986 429.6 544.186 413.6 543.586Z" fill="white"/>
<path fill-rule="evenodd" clip-rule="evenodd" d="M358.9 565.586C358.9 565.586 359 565.586 359.1 565.586C359 565.486 358.9 565.586 358.9 565.586C358.8 565.586 358.9 565.586 358.9 565.586Z" fill="white"/>
<path fill-rule="evenodd" clip-rule="evenodd" d="M465 586.486C429.7 559.786 385.7 558.186 367.1 558.986C365 561.186 362.9 563.286 360.9 565.386C371.6 564.486 422.7 562.086 461.4 591.286C461.9 591.686 462.6 591.886 463.2 591.886C464.1 591.886 465 591.486 465.6 590.686C466.6 589.386 466.3 587.486 465 586.486Z" fill="white"/>
<path fill-rule="evenodd" clip-rule="evenodd" d="M312.5 705.286C312.5 705.286 345.3 608.286 437.6 625.886C529.9 643.486 656.2 681.286 656.2 681.286V705.586L312.5 705.286Z" fill="white"/>
<path fill-rule="evenodd" clip-rule="evenodd" d="M373.907 629.879C358.218 637.201 344.77 648.485 333.41 662.641C326.107 671.742 320.101 681.48 315.3 691.22C313.618 694.632 312.205 697.805 311.051 700.658L310.562 701.888C310.411 702.277 310.27 702.646 310.14 702.992L309.752 704.055C309.713 704.166 309.681 704.256 309.658 704.325C309.001 706.269 310.445 708.285 312.497 708.286L656.197 708.586C657.855 708.588 659.2 707.244 659.2 705.586V681.286C659.2 679.961 658.33 678.792 657.06 678.412L653.068 677.229L647.676 675.647C640.153 673.45 631.646 671.002 622.33 668.365C595.711 660.833 567.933 653.3 540.38 646.269C526.531 642.735 513.064 639.413 500.081 636.339L496.438 635.48C475.276 630.511 455.743 626.292 438.162 622.939C414.241 618.378 392.836 621.045 373.907 629.879ZM437.038 628.833C455.53 632.359 476.212 636.854 498.699 642.177C511.647 645.243 525.08 648.557 538.896 652.083C564.948 658.73 591.206 665.829 616.491 672.951L620.696 674.138C629.15 676.531 636.936 678.768 643.922 680.802L653.2 683.523V702.583L316.866 702.29L317.139 701.63C318.136 699.247 319.315 696.645 320.682 693.873C325.3 684.503 331.08 675.131 338.09 666.396C348.909 652.914 361.657 642.217 376.445 635.316C394.231 627.015 414.355 624.508 437.038 628.833Z" fill="#DDDDDD"/>
<path fill-rule="evenodd" clip-rule="evenodd" d="M1041.3 346.987C1041.3 346.987 1033.9 343.287 1033 334.787C1032.1 326.287 1037.8 289.287 1047 284.087C1056.3 278.887 1098.6 255.987 1106.4 256.487C1114.2 256.987 1117.4 324.887 1041.3 346.987Z" fill="white"/>
<path fill-rule="evenodd" clip-rule="evenodd" d="M1045.8 288.187C1061.6 232.887 1074.5 220.487 1082 225.887C1088.8 230.787 1075 265.987 1071 284.287" fill="white"/>
<path fill-rule="evenodd" clip-rule="evenodd" d="M1064.51 232.626L1064.99 231.9C1071.39 222.507 1078.03 219.328 1083.75 223.452C1087.13 225.886 1087.49 230.914 1086.14 238.908L1085.95 240.036C1085.04 244.981 1083.56 250.756 1081.13 259.153L1077.16 272.703C1075.3 279.104 1074.68 281.504 1073.93 284.927C1073.58 286.545 1071.98 287.571 1070.36 287.217C1068.74 286.863 1067.72 285.264 1068.07 283.646L1068.35 282.37C1069 279.527 1069.66 277.034 1071.17 271.801L1075.17 258.149C1077.84 248.945 1079.38 242.943 1080.23 237.909L1080.35 237.149C1081.16 231.93 1080.91 228.797 1080.25 228.321C1077.95 226.664 1074.44 228.433 1069.52 235.921L1069.07 236.61C1062.76 246.533 1055.85 263.923 1048.68 289.01C1048.23 290.603 1046.57 291.526 1044.98 291.071C1043.38 290.616 1042.46 288.955 1042.92 287.362L1043.43 285.567C1050.74 260.322 1057.82 242.794 1064.51 232.626Z" fill="#DDDDDD"/>
<path fill-rule="evenodd" clip-rule="evenodd" d="M1115.5 276.187C1123.4 263.287 1136.5 263.987 1129.7 285.887C1123 307.287 1118.1 335.087 1105.6 347.687C1093.1 360.287 1088.6 365.887 1088.6 365.887C1088.6 365.887 1063.6 459.187 1049.4 536.787C1028.9 648.987 990.1 670.587 953.9 657.687C917.7 644.887 911 594.087 960.4 495.587C1009.8 396.987 1035.9 339.587 1035.9 339.587" fill="white"/>
<path fill-rule="evenodd" clip-rule="evenodd" d="M1112.94 274.62C1117.43 267.297 1123.95 263.19 1129.18 265.183C1134.94 267.378 1136.06 275.203 1132.7 286.336L1131.97 288.695C1131.11 291.547 1130.22 294.673 1129.04 298.941L1126.87 306.834C1120.51 329.764 1115.8 341.511 1107.99 349.539L1106.02 351.529C1101.93 355.68 1098.53 359.266 1095.74 362.308L1094.64 363.523C1093.48 364.804 1092.53 365.883 1091.78 366.764L1091.33 367.292L1089.75 373.289L1088.33 378.733C1086.96 384.042 1085.47 389.856 1083.89 396.105C1078.18 418.719 1072.47 442.379 1067.14 465.925L1065.99 471.037C1063.52 482.072 1061.19 492.82 1059.04 503.213L1058.17 507.412C1056.32 516.459 1054.61 525.169 1053.06 533.505L1052.35 537.326C1042.57 590.853 1028.17 626.635 1009.72 646.207C993.22 663.715 973.743 667.942 952.9 660.515C932.871 653.433 922.076 635.754 922.05 608.777C922.024 580.695 933.54 542.754 957.003 495.672L961.615 486.454C980.298 449.058 996.796 415.271 1011.05 385.438L1016.59 373.795C1020.02 366.579 1023.12 359.983 1025.91 354.023L1030.29 344.602L1033.17 338.345C1033.86 336.836 1035.63 336.17 1037.14 336.856C1038.6 337.517 1039.27 339.194 1038.7 340.666L1038.32 341.503L1035.21 348.269L1030.92 357.463C1027.68 364.402 1024.01 372.182 1019.92 380.776L1015.72 389.572C1000.64 421.124 983.066 457.044 963.082 496.931C917.706 587.407 917.757 641.725 954.907 654.861C973.562 661.508 990.525 657.826 1005.35 642.091C1022.68 623.707 1036.58 589.433 1046.16 537.816L1046.45 536.246C1048.43 525.447 1050.67 514.003 1053.16 501.994C1055.66 489.966 1058.38 477.466 1061.29 464.6C1066.33 442.314 1071.72 419.929 1077.12 398.422L1079.32 389.721C1080.34 385.705 1081.32 381.89 1082.25 378.298L1084.11 371.138L1085.7 365.11C1085.81 364.708 1086 364.332 1086.26 364.007L1086.67 363.508L1087.22 362.865C1088.01 361.942 1088.99 360.822 1090.19 359.5L1091.7 357.838C1094.86 354.405 1098.76 350.326 1103.47 345.574L1103.93 345.105C1110.33 338.373 1114.68 327.871 1120.28 308.086L1123.88 295.094C1124.87 291.523 1125.67 288.765 1126.47 286.161L1126.84 284.997C1129.54 276.295 1128.89 271.494 1127.04 270.79C1125.2 270.087 1121.22 272.594 1118.06 277.753C1117.19 279.166 1115.35 279.61 1113.93 278.745C1112.52 277.88 1112.08 276.033 1112.94 274.62Z" fill="#DDDDDD"/>
<path fill-rule="evenodd" clip-rule="evenodd" d="M1036.8 341.286C1029.6 336.386 1030.5 308.186 1022.4 295.886C1012.4 280.586 1002.6 264.686 1021.1 267.086C1037 269.086 1042 283.086 1045.7 288.086" fill="white"/>
<path fill-rule="evenodd" clip-rule="evenodd" d="M1008.15 275.572C1006.07 267.198 1010.95 262.745 1021.47 264.11C1030.31 265.221 1036.7 269.59 1041.88 276.563L1042.12 276.895C1044.01 279.542 1047.61 285.573 1048.08 286.264L1048.11 286.302C1049.1 287.634 1048.82 289.513 1047.48 290.498C1046.15 291.484 1044.27 291.203 1043.29 289.871L1043.19 289.726C1042.33 288.462 1038.59 282.2 1037.06 280.14C1032.79 274.382 1027.76 270.948 1020.71 270.062C1017.04 269.585 1014.9 269.923 1014.11 270.639C1013.65 271.062 1013.49 272.045 1013.91 273.872L1013.97 274.126C1015.01 278.316 1018.02 283.677 1024.57 293.722L1024.91 294.237C1027.97 298.888 1029.85 305.043 1031.78 314.885L1032.17 316.916L1033.34 323.263C1035.17 332.943 1036.6 337.403 1038.4 338.741L1038.49 338.806C1039.86 339.739 1040.21 341.605 1039.28 342.974C1038.35 344.344 1036.48 344.699 1035.11 343.767C1031.36 341.213 1029.75 336.493 1027.56 324.966L1026.2 317.673L1026.01 316.653C1024.23 307.396 1022.52 301.665 1020.05 297.779L1018.19 294.916C1012.15 285.548 1009.34 280.34 1008.15 275.572Z" fill="#DDDDDD"/>
<path fill-rule="evenodd" clip-rule="evenodd" d="M1106.3 299.586C1106.3 299.586 1120.4 265.386 1125.1 249.486C1130.3 232.186 1112.1 229.686 1103.3 254.586" fill="white"/>
<path fill-rule="evenodd" clip-rule="evenodd" d="M1119.26 233.218C1127.06 232.711 1130.86 240.306 1128.07 250.009L1127.98 250.337C1126.54 255.197 1124.18 261.95 1121.11 270.155L1120.56 271.618C1120.14 272.746 1119.7 273.894 1119.25 275.061C1117.31 280.162 1115.24 285.439 1113.15 290.657L1111.44 294.91L1109.67 299.272L1109.07 300.73C1108.44 302.262 1106.69 302.992 1105.16 302.36C1103.68 301.751 1102.95 300.099 1103.46 298.608L1105.88 292.664C1106.14 292.012 1106.41 291.341 1106.69 290.652C1108.77 285.482 1110.84 280.219 1112.81 275.103L1114.09 271.767L1114.95 269.502C1118.15 261.004 1120.61 254.007 1122.1 249.043L1122.23 248.623C1124.14 242.25 1122.56 239.016 1119.64 239.205C1115.32 239.486 1109.76 245.312 1106.13 255.586C1105.58 257.148 1103.86 257.967 1102.3 257.415C1100.74 256.863 1099.92 255.149 1100.47 253.587C1104.82 241.29 1112.08 233.684 1119.26 233.218Z" fill="#DDDDDD"/>
<path fill-rule="evenodd" clip-rule="evenodd" d="M1089.7 290.586C1089.7 290.586 1117.4 227.886 1105 222.286C1093.7 217.186 1085.1 240.086 1070.9 284.286" fill="white"/>
<path fill-rule="evenodd" clip-rule="evenodd" d="M1086.78 232.618C1092.8 220.986 1098.91 216.247 1106.23 219.552C1113.77 222.954 1112.34 235.939 1105.6 257.145C1104.46 260.747 1103.17 264.507 1101.77 268.381C1099.96 273.383 1098.03 278.356 1096.09 283.123L1095.36 284.9C1094.68 286.55 1094.05 288.067 1093.47 289.429L1092.44 291.799C1091.77 293.314 1090 294 1088.49 293.331C1086.97 292.661 1086.29 290.89 1086.96 289.374L1087.74 287.57L1088.39 286.042C1088.84 284.981 1089.31 283.836 1089.82 282.616C1091.97 277.389 1094.12 271.877 1096.13 266.337C1097.5 262.535 1098.77 258.85 1099.88 255.329L1100.37 253.765C1105.42 237.418 1106.56 226.281 1103.77 225.021C1100.29 223.454 1096.59 226.451 1091.72 236.147L1091.16 237.278C1086.67 246.501 1081.87 259.964 1073.76 285.204C1073.25 286.781 1071.56 287.649 1069.98 287.143C1068.41 286.636 1067.54 284.946 1068.04 283.369L1069.79 277.968C1077.2 255.115 1081.75 242.681 1086.21 233.741L1086.78 232.618Z" fill="#DDDDDD"/>
<path fill-rule="evenodd" clip-rule="evenodd" d="M716.528 332.107L700.5 346.5L679 354.719L658 356.5L636.134 352.207C634.808 352.539 633.928 353.576 634.005 354.719L637.893 412.941L637.851 413.206C637.83 413.351 637.809 413.515 637.787 413.696C637.294 417.898 637.866 422.688 640.363 427.301C646.462 438.565 661.654 444.135 687.761 441.245C709.07 438.911 722.931 433.204 730.533 425.027C736.057 419.085 737.558 412.837 736.828 407.539L736.777 407.203C736.744 406.997 736.71 406.826 736.68 406.694L720.351 334.029C720.024 332.576 718.241 331.679 716.528 332.107ZM640 357.281H680.5L715.041 339L730.801 407.339C730.821 407.437 730.844 407.568 730.868 407.743C731.437 411.765 730.239 416.628 725.77 421.311C719.218 428.178 706.784 433.167 686.908 435.288C663.21 437.843 650.641 433.354 645.724 424.503C643.713 420.884 643.238 417.008 643.64 413.671L643.685 413.33C643.708 413.169 643.729 413.056 643.741 412.997L643.772 412.816C643.786 412.694 643.789 412.573 643.781 412.451L640 357.281Z" fill="#DDDDDD"/>
<path fill-rule="evenodd" clip-rule="evenodd" d="M741.57 218.415C747.494 217.015 753.605 216.513 759.406 217.458C773.538 219.761 782.457 230.1 783.198 249.874C783.964 270.321 774.86 281.514 759.563 284.862C753.335 286.224 746.777 286.145 740.578 285.202L739.609 285.047C738.389 284.841 737.457 284.644 736.869 284.496C735.262 284.093 734.287 282.463 734.69 280.856C735.079 279.306 736.609 278.344 738.158 278.639L738.809 278.786L739.12 278.852C739.807 278.993 740.599 279.136 741.479 279.27C747.013 280.112 752.875 280.183 758.28 279C770.798 276.261 777.857 267.582 777.202 250.099L777.156 249.083C776.289 232.833 769.497 225.182 758.441 223.38C753.531 222.58 748.169 223.021 742.95 224.254C741.94 224.493 741.008 224.746 740.168 225L739.756 225.126C739.45 225.223 739.198 225.305 739.005 225.371L738.655 225.495C737.104 226.078 735.374 225.293 734.792 223.742C734.209 222.191 734.994 220.461 736.545 219.878L736.932 219.738C737.973 219.37 739.56 218.89 741.57 218.415Z" fill="#DDDDDD"/>
<path fill-rule="evenodd" clip-rule="evenodd" d="M702.2 152.586H631.8C601.743 152.586 577.3 177.03 577.3 207.086V277.286C577.3 323.343 614.643 360.686 660.7 360.686L662.057 360.676C707.62 359.936 744.2 322.763 744.2 277.186V194.586C744.2 171.43 725.357 152.586 702.2 152.586ZM631.8 158.586H702.2C722.043 158.586 738.2 174.743 738.2 194.586V277.186C738.2 319.487 704.248 353.99 661.984 354.676L660.675 354.687C617.957 354.686 583.3 320.03 583.3 277.286V207.086C583.3 180.343 605.057 158.586 631.8 158.586Z" fill="#DDDDDD"/>
<path fill-rule="evenodd" clip-rule="evenodd" d="M759.9 315.287C759.8 287.987 756 268.087 755 263.087C755 262.787 755.1 262.387 755.1 262.087C755.1 255.787 750 250.687 743.7 250.687V262.087L744 273.487C746.4 273.387 748.6 272.587 750.4 271.287C754.1 294.287 761.4 362.887 730.6 421.187C725 431.887 719.7 441.787 714.5 451.287C685.5 505.387 666.3 541.187 666.8 573.087C666.8 574.687 668.2 576.087 669.8 576.087V576.087C671.5 576.087 672.8 574.687 672.8 573.087C672.4 542.687 691.3 507.487 719.8 454.187C724.9 444.587 730.2 434.787 735.9 423.987C756 385.887 760.1 343.887 759.9 315.287Z" fill="#439BD7"/>
<path fill-rule="evenodd" clip-rule="evenodd" d="M572.5 274.786C573.9 275.586 575.4 276.086 577.1 276.186V253.486C571.8 253.986 567.6 257.986 566.9 263.186C566.6 263.686 566.4 264.286 566.4 264.886C566.4 269.486 566.4 377.186 598.4 425.786C631.1 475.586 641.2 503.986 643.5 552.186C643.6 553.786 644.9 555.086 646.5 555.086H646.6C648.3 554.986 649.5 553.586 649.5 551.986C647.2 502.386 636.9 473.386 603.4 422.486C577.8 383.686 573.3 302.886 572.5 274.786Z" fill="#439BD7"/>
<path fill-rule="evenodd" clip-rule="evenodd" d="M636.049 225.987C637.646 225.96 638.973 227.186 639.091 228.759L639.099 228.935L640.177 292.419L640.224 292.437C640.442 292.508 640.682 292.493 641.013 292.371L641.16 292.312C642.702 291.652 644.734 289.42 647.067 285.148C647.861 283.694 649.684 283.159 651.138 283.953C652.592 284.747 653.127 286.57 652.333 288.024C646.852 298.061 640.954 300.584 636.243 297.024C635.543 296.495 635.051 295.951 634.737 295.5C634.44 295.072 634.26 294.576 634.212 294.059L634.2 293.837L633.1 229.037C633.072 227.381 634.392 226.015 636.049 225.987Z" fill="#DDDDDD"/>
<path fill-rule="evenodd" clip-rule="evenodd" d="M667.657 301.876C669.331 300.781 671.587 301.599 672.17 303.512L672.24 303.76C672.313 304.037 672.395 304.401 672.472 304.844C673.089 308.36 672.755 312.249 670.744 315.973C667.394 322.178 660.155 326.224 648.494 327.372C646.845 327.534 645.377 326.329 645.214 324.68C645.052 323.032 646.257 321.563 647.906 321.401C657.725 320.434 663.156 317.399 665.465 313.123C666.034 312.069 666.394 310.975 666.582 309.884L666.647 309.46L666.556 309.511C653.515 316.533 640.489 317.002 634.033 309.78L633.817 309.533C632.742 308.273 632.892 306.379 634.153 305.304C635.414 304.229 637.307 304.379 638.382 305.64C643.024 311.081 655.308 309.957 667.657 301.876Z" fill="#DDDDDD"/>
<path fill-rule="evenodd" clip-rule="evenodd" d="M663.368 202.582C669.914 197.603 677.685 197.071 686.067 203.739C687.364 204.77 687.579 206.657 686.548 207.954C685.516 209.251 683.629 209.466 682.332 208.434C676.267 203.609 671.498 203.936 667 207.357C666.392 207.82 665.849 208.293 665.263 208.856L664.161 209.945C664.007 210.094 663.875 210.213 663.735 210.327C663.347 210.64 663.01 210.851 662.428 210.997C660.82 211.399 659.191 210.421 658.79 208.814C658.488 207.608 658.962 206.391 659.897 205.688L660.027 205.594L660.684 204.942C661.582 204.052 662.399 203.318 663.368 202.582Z" fill="#DDDDDD"/>
<path fill-rule="evenodd" clip-rule="evenodd" d="M684.2 255.787C686.961 255.787 689.2 252.339 689.2 248.087C689.2 243.834 686.961 240.387 684.2 240.387C681.439 240.387 679.2 243.834 679.2 248.087C679.2 252.339 681.439 255.787 684.2 255.787Z" fill="#DDDDDD"/>
<path fill-rule="evenodd" clip-rule="evenodd" d="M611.5 257.687C614.261 257.687 616.5 254.239 616.5 249.987C616.5 245.734 614.261 242.287 611.5 242.287C608.739 242.287 606.5 245.734 606.5 249.987C606.5 254.239 608.739 257.687 611.5 257.687Z" fill="#DDDDDD"/>
<path fill-rule="evenodd" clip-rule="evenodd" d="M597.555 201.635C605.043 195.661 613.255 195.38 620.467 204.644C621.485 205.951 621.25 207.836 619.943 208.854C618.635 209.872 616.751 209.637 615.733 208.33C610.864 202.076 606.433 202.228 601.296 206.325C600.601 206.88 599.973 207.446 599.28 208.125L598.101 209.301C597.942 209.456 597.809 209.579 597.672 209.693C597.262 210.034 596.942 210.243 596.327 210.397C594.72 210.799 593.091 209.822 592.689 208.214C592.388 207.009 592.862 205.791 593.797 205.088L593.912 205.006L594.684 204.232C595.669 203.247 596.54 202.444 597.555 201.635Z" fill="#DDDDDD"/>
<path fill-rule="evenodd" clip-rule="evenodd" d="M680.8 138.086C661.3 138.386 646.5 139.286 637.7 140.986V140.986C566.1 157.286 577.7 210.286 577.7 210.286C577.7 210.286 612.7 216.986 641.2 174.786C641.2 174.786 680.3 206.686 738.2 219.586C739.1 219.386 740.2 219.086 741.2 218.786V221.686C744.6 220.786 750.1 219.786 755.8 220.186C755.2 199.286 751.4 172.886 734.2 155.886C722 143.786 704 137.786 680.8 138.086Z" fill="#DDDDDD"/>
<path fill-rule="evenodd" clip-rule="evenodd" d="M639.287 134.515C650.696 132.931 668.656 131.889 684.132 131.987C715.039 132.314 735.695 143.702 747.937 163.788C752.756 171.695 756.116 180.695 758.38 190.791C760.051 198.245 760.948 205.074 761.789 214.726C761.932 216.377 760.711 217.831 759.06 217.975C757.41 218.119 755.955 216.898 755.811 215.247L755.65 213.452C753.785 193.305 750.586 179.664 742.813 166.91C731.665 148.619 712.935 138.292 684.081 137.987L682.318 137.98C667.543 137.971 650.79 138.975 640.113 140.458C638.471 140.686 636.956 139.54 636.728 137.899C636.5 136.258 637.646 134.743 639.287 134.515Z" fill="white"/>
<path fill-rule="evenodd" clip-rule="evenodd" d="M868.7 94.5865C844 23.9865 774 -15.7135 712.3 5.88653C661.6 23.5865 632.3 77.2865 637.1 134.987C646.4 133.387 661 132.387 680.8 132.087C705.7 131.787 725.1 138.287 738.5 151.587C757.5 170.387 761.4 198.887 761.9 221.087C771.1 223.587 779.6 231.087 780.3 249.987C780.4 251.887 778.7 266.587 779.1 266.487C779.1 271.187 780.1 277.087 783.6 282.887C790.5 293.987 804.5 300.887 825.3 303.287C825.4 303.287 825.5 303.287 825.7 303.287C827.2 303.287 828.5 302.187 828.7 300.687C828.9 299.087 827.7 297.587 826.1 297.387C807.3 295.187 794.7 289.287 788.8 279.787C786.4 275.987 785.5 272.087 785.2 268.687C790.3 274.687 799.2 281.187 813.3 281.187C816.7 281.187 820.4 280.787 824.4 279.987C826 279.687 827.1 278.087 826.7 276.487C826.4 274.887 824.8 273.787 823.2 274.187C805 277.987 794.9 271.087 789.6 264.887C793.7 263.987 797.7 262.887 801.7 261.487C863.3 239.787 893.3 165.087 868.7 94.5865Z" fill="#DDDDDD"/>
<path fill-rule="evenodd" clip-rule="evenodd" d="M688.5 210.387C666.629 210.387 648.9 228.116 648.9 249.987C648.9 271.857 666.629 289.587 688.5 289.587C710.37 289.587 728.1 271.857 728.1 249.987C728.1 228.116 710.37 210.387 688.5 210.387ZM688.5 216.387C707.057 216.387 722.1 231.43 722.1 249.987C722.1 268.543 707.057 283.587 688.5 283.587C669.943 283.587 654.9 268.543 654.9 249.987C654.9 231.43 669.943 216.387 688.5 216.387Z" fill="#DDDDDD"/>
<path fill-rule="evenodd" clip-rule="evenodd" d="M651.1 246.087C652.757 246.087 654.1 247.43 654.1 249.087C654.1 250.685 652.851 251.991 651.276 252.082L651.1 252.087H627.3C625.643 252.087 624.3 250.744 624.3 249.087C624.3 247.489 625.549 246.183 627.124 246.092L627.3 246.087H651.1Z" fill="#DDDDDD"/>
<path fill-rule="evenodd" clip-rule="evenodd" d="M739.724 217.975C741.166 217.16 742.996 217.668 743.812 219.111C744.597 220.5 744.154 222.248 742.833 223.104L742.676 223.199L721.976 234.899C720.534 235.714 718.704 235.206 717.888 233.763C717.103 232.374 717.546 230.626 718.867 229.77L719.024 229.675L739.724 217.975Z" fill="#DDDDDD"/>
<path fill-rule="evenodd" clip-rule="evenodd" d="M589.5 210.387C567.629 210.387 549.9 228.116 549.9 249.987C549.9 271.857 567.629 289.587 589.5 289.587C611.37 289.587 629.1 271.857 629.1 249.987C629.1 228.116 611.37 210.387 589.5 210.387ZM589.5 216.387C608.057 216.387 623.1 231.43 623.1 249.987C623.1 268.543 608.057 283.587 589.5 283.587C570.943 283.587 555.9 268.543 555.9 249.987C555.9 231.43 570.943 216.387 589.5 216.387Z" fill="#DDDDDD"/>
<path fill-rule="evenodd" clip-rule="evenodd" d="M841.2 667.787H820.4L810.2 516.487C809.5 505.887 800.3 497.287 789.7 497.287H499.8C489.2 497.287 481.1 505.887 481.9 516.487L493.2 683.987C493.9 694.587 503.1 703.187 513.7 703.187L841.1 702.787C847.1 702.787 851.9 697.887 851.9 691.987V678.687C852 672.687 847.2 667.787 841.2 667.787Z" fill="#439BD7"/>
<path fill-rule="evenodd" clip-rule="evenodd" d="M665.2 597.387C661.1 592.987 655.6 590.187 649.8 589.087C650.7 587.787 651.3 586.187 651.5 584.487C652 579.087 648.1 574.087 642.9 573.287C642.8 573.287 642.7 573.287 642.6 573.287C641.5 569.187 639.4 562.387 637 559.487C636.1 558.387 634.4 557.987 633.2 558.687C632.1 559.387 631.9 560.787 632.8 561.887C634.4 563.787 636.3 569.687 637.5 574.187C634.8 575.587 632.9 578.287 632.6 581.687C632.3 584.787 633.5 587.687 635.4 589.787C633.6 590.387 631.9 591.087 630.3 592.087C619.9 598.587 618.6 611.387 627.4 620.887C636.2 630.287 651.9 632.687 662.3 626.187C672.8 619.687 674.1 606.787 665.2 597.387Z" fill="white"/>
<path fill-rule="evenodd" clip-rule="evenodd" d="M660.8 558.987C660.8 558.987 645.8 555.987 643.8 568.487C643.9 568.487 655.7 572.687 660.8 558.987Z" fill="white"/>
<path fill-rule="evenodd" clip-rule="evenodd" d="M1222.1 703.187C1223.76 703.187 1225.1 704.53 1225.1 706.187C1225.1 707.784 1223.85 709.09 1222.28 709.181L1222.1 709.187H3C1.34315 709.187 0 707.843 0 706.187C0 704.589 1.24892 703.283 2.82373 703.192L3 703.187H1222.1Z" fill="#DDDDDD"/>
</svg>
