<svg width="1664" height="505" viewBox="0 0 1664 505" fill="none" xmlns="http://www.w3.org/2000/svg">
<path fill-rule="evenodd" clip-rule="evenodd" d="M530.9 498.8C527.8 462.3 502.3 409.7 496.6 359.4C535 323.5 493.5 218.8 470.6 217.7C447.5 213.5 427.5 209.2 390.6 207.9C345 206.3 303.8 211.8 288.5 214C231.4 242.2 200.4 408 238 440.7C245.1 446.9 256.6 453.1 270.6 458.9C269.4 472.9 268.6 486.9 268.6 499.9L530.9 498.8Z" fill="#225696"/>
<path fill-rule="evenodd" clip-rule="evenodd" d="M348.1 213.7L356.4 164.1L418.4 187.4L420.7 222.7C412.3 284.2 346.3 224.6 348.1 213.7Z" fill="white"/>
<path fill-rule="evenodd" clip-rule="evenodd" d="M353.441 163.605L345.141 213.205C343.85 221.02 362.103 239.555 379.244 248.039C389.466 253.098 398.913 254.613 406.658 251.564C415.744 247.986 421.567 238.52 423.672 223.106C423.699 222.907 423.707 222.706 423.693 222.505L421.393 187.205C421.317 186.029 420.559 185.007 419.455 184.592L357.455 161.292C355.687 160.628 353.753 161.742 353.441 163.605ZM358.756 168.19L415.532 189.527L417.686 222.585L417.727 222.294C414.325 247.207 401.384 252.302 381.906 242.662C374.141 238.818 366.039 232.746 359.64 226.248L359.054 225.646C353.948 220.338 350.847 215.479 351.06 214.189L358.756 168.19Z" fill="#225696"/>
<path fill-rule="evenodd" clip-rule="evenodd" d="M434.3 70.7001C434.3 70.7001 386.8 100.5 409.7 128.6C409.7 128.6 420 140.4 428.4 138.1C428.4 138.1 422.2 128.1 429.4 123C429.4 123 431.5 152.9 456 146.9C456 146.9 447 133.6 449.5 117.8C454.6 84.6001 447 64.7001 434.3 70.7001Z" fill="#225696"/>
<path fill-rule="evenodd" clip-rule="evenodd" d="M335.8 117.8C335.8 117.8 326.7 59.5003 385.7 49.4003C391.2 48.5003 428.9 42.8003 435.8 74.1003C440.4 95.0003 441.3 117.7 440.7 135.3C440.7 135.4 440.1 168.6 427 187C413.9 205.4 384.8 203.7 369.5 194.6C354.1 185.5 351.3 180.8 347 170C342.7 159.2 335.8 117.9 335.8 117.9V117.8Z" fill="white"/>
<path fill-rule="evenodd" clip-rule="evenodd" d="M394.761 45.4807C391.091 45.6235 388.094 45.9687 385.215 46.4397C360.479 50.6741 345.091 63.3463 337.51 81.7147C332.85 93.0071 331.687 104.799 332.504 115.147L332.584 116.088L332.668 116.938C332.687 117.109 332.705 117.269 332.722 117.417L332.804 118.051L332.818 118.231L332.881 118.632L333.58 122.701C333.813 124.042 334.065 125.469 334.333 126.968L335.028 130.82C335.847 135.307 336.69 139.752 337.537 144.01L337.9 145.823C338.612 149.35 339.305 152.627 339.973 155.608L340.431 157.625C341.806 163.582 343.031 168.05 344.106 170.837L344.213 171.11C349.298 183.883 353.29 188.507 367.974 197.183C376.403 202.197 388.173 204.862 399.279 204.106C411.97 203.241 422.777 198.105 429.444 188.74C435.492 180.245 439.419 168.451 441.721 154.786C442.453 150.441 442.968 146.182 443.305 142.154L443.416 140.746C443.579 138.547 443.674 136.563 443.695 135.632L443.698 135.402C444.401 114.786 442.966 93.3618 438.998 74.6948L438.73 73.4544C435.403 58.365 425.273 49.8622 410.859 46.7432C405.7 45.6266 400.266 45.2664 394.761 45.4807ZM409.59 52.6074C421.723 55.2329 429.891 61.9942 432.764 74.277L432.87 74.7451C436.923 93.1582 438.404 114.59 437.702 135.198L437.693 135.674C437.667 136.56 437.572 138.491 437.41 140.604C437.091 144.78 436.57 149.239 435.804 153.789C433.64 166.639 429.973 177.652 424.556 185.26C419.027 193.027 409.891 197.369 398.871 198.12C388.958 198.795 378.402 196.404 371.033 192.022L370.072 191.45C357.328 183.835 354.267 180.144 349.787 168.891C348.766 166.326 347.473 161.565 346.006 155.088L345.466 152.664C344.92 150.174 344.357 147.489 343.781 144.636C342.689 139.224 341.598 133.455 340.552 127.654L339.729 123.032L338.794 117.616L338.784 117.491L338.698 116.846L338.632 116.276C338.599 115.972 338.567 115.641 338.536 115.283C337.693 105.653 338.72 94.5099 343.056 84.0037C349.862 67.5135 363.559 56.2342 386.206 52.3573L387.267 52.1911C389.587 51.8449 392.056 51.5905 394.995 51.4761C400.029 51.2802 404.971 51.6078 409.59 52.6074Z" fill="#225696"/>
<path fill-rule="evenodd" clip-rule="evenodd" d="M415.799 119.361C417.364 119.041 418.894 120.003 419.299 121.528L419.339 121.699L424.839 148.599C425.207 150.401 423.885 152.091 422.076 152.195L421.9 152.2H411.8C410.143 152.2 408.8 150.857 408.8 149.2C408.8 147.603 410.049 146.297 411.624 146.205L411.8 146.2H418.224L413.461 122.901C413.141 121.336 414.103 119.806 415.627 119.402L415.799 119.361Z" fill="#225696"/>
<path fill-rule="evenodd" clip-rule="evenodd" d="M431.73 120.054C431.755 117.514 430.432 115.441 428.775 115.425C427.118 115.409 425.755 117.455 425.73 119.996C425.705 122.536 427.028 124.609 428.685 124.625C430.342 124.641 431.705 122.595 431.73 120.054Z" fill="#225696"/>
<path fill-rule="evenodd" clip-rule="evenodd" d="M403.303 120.796C403.802 118.305 402.89 116.022 401.265 115.696C399.641 115.37 397.919 117.126 397.42 119.617C396.92 122.108 397.832 124.391 399.457 124.717C401.081 125.042 402.803 123.287 403.303 120.796Z" fill="#225696"/>
<path fill-rule="evenodd" clip-rule="evenodd" d="M385.696 97.3203C388.99 94.7855 393.077 93.4591 397.85 94.0207C399.496 94.2143 400.673 95.7051 400.479 97.3507C400.286 98.9962 398.795 100.173 397.149 99.9796C394.035 99.6132 391.475 100.444 389.356 102.075C388.728 102.558 388.191 103.076 387.75 103.586L387.547 103.829C387.517 103.867 387.487 103.904 387.46 103.94L387.32 104.128C386.42 105.52 384.563 105.919 383.172 105.02C381.78 104.121 381.381 102.264 382.28 100.872L382.442 100.633C382.628 100.371 382.883 100.041 383.21 99.6632C383.904 98.8597 384.731 98.0633 385.696 97.3203Z" fill="#225696"/>
<path fill-rule="evenodd" clip-rule="evenodd" d="M424.96 91.1012C427.334 90.4036 429.749 90.0372 432.095 90.1934C435.596 90.4265 438.587 91.8265 440.628 94.6381C441.601 95.979 441.303 97.855 439.962 98.8282C438.673 99.764 436.889 99.5244 435.888 98.3125L435.772 98.1625C434.875 96.9272 433.542 96.303 431.696 96.1801C430.154 96.0774 428.404 96.3429 426.652 96.8577C426.254 96.9747 425.88 97.0978 425.536 97.2216L425.086 97.3902L424.733 97.535C423.223 98.2162 421.446 97.544 420.765 96.0336C420.084 94.5232 420.756 92.7467 422.267 92.0655L422.582 91.9287C423.156 91.6888 423.968 91.393 424.96 91.1012Z" fill="#225696"/>
<path fill-rule="evenodd" clip-rule="evenodd" d="M382.1 74.3002C382.1 74.3002 404.4 152.5 352.4 160.5C352.4 160.5 322.1 165.9 315.2 155.2C315.2 155.2 337.1 143.5 334.4 131C334.4 131 309.7 158.1 288.2 138.6C288.2 138.6 324 132.6 320.9 100.4C318.6 77.2002 374.1 55.5002 382.1 74.3002Z" fill="#225696"/>
<path fill-rule="evenodd" clip-rule="evenodd" d="M287 85.3002L318.7 80.5002C322 59.2002 334.4 28.6002 378.1 23.6002C446.4 15.7002 448.5 82.1002 448.5 82.1002L290.2 105.7C284.6 106.6 279.3 102.7 278.4 97.0002C277.5 91.4002 281.4 86.2002 287 85.3002Z" fill="#439BD7"/>
<path fill-rule="evenodd" clip-rule="evenodd" d="M393.725 153.34C395.195 152.714 396.886 153.352 397.586 154.765L397.703 155.011L397.73 155.063C397.834 155.261 397.967 155.49 398.133 155.744C398.626 156.5 399.264 157.265 400.057 157.982C403.003 160.645 407.172 161.939 413.044 161.035C414.681 160.783 416.213 161.907 416.465 163.544C416.717 165.182 415.594 166.714 413.956 166.965C406.279 168.147 400.302 166.293 396.033 162.432C394.838 161.352 393.871 160.193 393.108 159.023C392.63 158.291 392.315 157.687 392.14 157.276C391.491 155.751 392.2 153.989 393.725 153.34Z" fill="#225696"/>
<path fill-rule="evenodd" clip-rule="evenodd" d="M549.6 278.7V244.4C549.6 230.4 538.3 219.1 524.3 219.1H514.4C514.4 253.8 486.3 282 451.5 282C416.7 282 388.6 253.9 388.6 219.1H378.7C364.7 219.1 353.4 230.4 353.4 244.4V427.1C353.4 441.1 364.7 452.4 378.7 452.4H524.2C538.2 452.4 549.5 441.1 549.5 427.1V404.4C584.2 404.4 612.4 376.3 612.4 341.5C612.5 306.8 584.3 278.7 549.6 278.7Z" fill="#E0E0E0"/>
<path fill-rule="evenodd" clip-rule="evenodd" d="M532.3 443.8C532.2 443.4 510.2 417.7 509.5 418.3C508.8 418.9 478.7 432.3 478 433.4C477.3 434.4 476.2 440.5 479.2 446.1C482.2 451.7 485.6 464.6 499.2 465.6C512.8 466.7 532.3 443.8 532.3 443.8Z" fill="white"/>
<path fill-rule="evenodd" clip-rule="evenodd" d="M492.2 424.3C492.2 424.3 489.6 406.6 493.7 402.4C497.8 398.2 520.7 437.4 528.6 440.1" fill="white"/>
<path fill-rule="evenodd" clip-rule="evenodd" d="M491.553 400.305C493.461 398.351 495.791 398.826 498.066 400.447C499.33 401.347 500.762 402.733 502.458 404.64L503.173 405.455C505.207 407.799 506.943 410.001 510.862 415.19L515.601 421.485C523.227 431.567 527.47 436.444 529.483 437.23L529.57 437.262C531.138 437.797 531.975 439.503 531.439 441.071C530.903 442.638 529.198 443.475 527.63 442.939L527.356 442.84C523.746 441.454 519.73 436.892 511.12 425.508L504.686 416.974C501.817 413.198 500.317 411.32 498.647 409.394L498.268 408.959C497.169 407.706 496.225 406.728 495.455 406.04L495.184 405.805L495.178 405.824C494.726 407.261 494.427 409.611 494.391 412.535L494.388 412.92C494.377 415.329 494.526 417.936 494.779 420.541C494.831 421.071 494.885 421.577 494.94 422.056L495.093 423.313C495.126 423.569 495.152 423.755 495.168 423.864C495.409 425.504 494.275 427.028 492.636 427.268C490.997 427.509 489.473 426.376 489.232 424.736L489.096 423.722L488.979 422.739C488.92 422.228 488.863 421.687 488.808 421.123C488.536 418.331 488.376 415.531 488.388 412.894C488.413 406.944 489.224 402.69 491.553 400.305Z" fill="#225696"/>
<path fill-rule="evenodd" clip-rule="evenodd" d="M480 427.4C480 427.4 474.5 414.5 481.8 408.3C489 402.1 506.9 437.4 514.7 441.9" fill="white"/>
<path fill-rule="evenodd" clip-rule="evenodd" d="M479.842 406.027C483.134 403.193 487.001 404.512 491.151 408.309C493.75 410.688 496.567 414.071 500.248 419.048L501.525 420.791C501.884 421.284 502.257 421.8 502.657 422.356L506.757 428.055C512.675 436.233 514.403 438.266 516.199 439.302C517.634 440.13 518.126 441.964 517.299 443.399C516.471 444.835 514.636 445.327 513.201 444.499L512.699 444.2C509.952 442.502 508.148 440.278 500.453 429.575L497.215 425.068C496.845 424.556 496.495 424.075 496.153 423.608L495.447 422.647C491.972 417.948 489.347 414.791 487.1 412.736C485.857 411.598 484.824 410.901 484.096 410.653L483.833 410.564C483.801 410.555 483.785 410.556 483.772 410.563L483.742 410.587C482.124 411.961 481.266 413.926 481.06 416.466C480.88 418.691 481.217 421.172 481.898 423.638C482.055 424.205 482.22 424.736 482.387 425.22L482.606 425.831L482.76 426.224C483.409 427.748 482.701 429.51 481.177 430.16C479.652 430.81 477.89 430.101 477.24 428.577C476.943 427.879 476.526 426.724 476.115 425.236C475.262 422.149 474.835 419.005 475.08 415.982C475.405 411.964 476.911 408.516 479.842 406.027Z" fill="#225696"/>
<path fill-rule="evenodd" clip-rule="evenodd" d="M476.8 442.2C476.8 442.2 467.6 419.1 474 414.2C480.4 409.3 490.9 439.3 503.4 446.2" fill="white"/>
<path fill-rule="evenodd" clip-rule="evenodd" d="M472.176 411.818C474.137 410.317 476.469 410.325 478.636 411.549C480.123 412.39 481.567 413.79 483.176 415.802L483.62 416.367C484.666 417.722 485.789 419.334 487.184 421.455L492.057 428.981L492.706 429.962C497.627 437.351 501.292 441.61 504.85 443.574C506.3 444.374 506.827 446.199 506.026 447.65C505.226 449.1 503.401 449.627 501.95 448.827C497.184 446.196 493.003 441.292 487.394 432.809L485.987 430.651C484.714 428.684 482.908 425.876 482.466 425.201L481.933 424.39C480.549 422.298 479.47 420.775 478.49 419.549C477.392 418.176 476.481 417.273 475.814 416.851L475.643 416.75L475.585 416.816C474.586 418.039 474.413 421.66 475.375 426.783L475.449 427.17C475.866 429.296 476.444 431.57 477.143 433.915C477.591 435.418 478.066 436.877 478.545 438.253L478.833 439.068C478.954 439.405 479.069 439.721 479.178 440.015L479.587 441.09C480.2 442.629 479.449 444.374 477.91 444.987C476.371 445.6 474.626 444.849 474.013 443.31L473.778 442.703C473.634 442.324 473.478 441.903 473.311 441.443L473.184 441.091C472.573 439.385 471.963 437.543 471.393 435.628C470.643 433.111 470.018 430.655 469.561 428.324C468.01 420.41 468.39 414.717 472.176 411.818Z" fill="#225696"/>
<path fill-rule="evenodd" clip-rule="evenodd" d="M527 439.2C528 434.2 527.5 429 525.5 424.4C523.2 419 520.5 411.8 520.3 407.1C519.9 399 533.1 402.8 533.7 407.8C534.3 412.8 536.8 412.5 542.6 417.7C548.4 422.9 547.3 443.2 547.3 443.2C547.3 443.2 552.4 453.7 536 466.2C519.6 478.7 502 469 502 469C502 469 470.2 457.3 470.2 434.4C470.2 411.5 478.6 444.9 494.5 454.3" fill="white"/>
<path fill-rule="evenodd" clip-rule="evenodd" d="M517.304 407.248C517.013 401.353 521.591 398.643 527.125 399.58C531.84 400.377 536.202 403.47 536.679 407.443C536.855 408.911 537.123 409.48 537.925 410.201L538.073 410.33C538.035 410.297 542.518 413.598 544.603 415.466C547.533 418.093 549.082 422.919 549.856 429.499C550.324 433.475 550.446 437.62 550.363 441.374L550.334 442.425L550.324 442.697L550.355 442.788C550.405 442.937 550.454 443.097 550.503 443.269L550.576 443.534C551.327 446.385 551.273 449.806 549.932 453.589C548.135 458.658 544.219 463.708 537.819 468.586C536.697 469.441 535.551 470.215 534.383 470.909C524.878 476.561 514.78 476.724 505.416 473.644C503.445 472.995 501.919 472.337 500.922 471.824L500.752 471.735L500.104 471.48L499.473 471.219C498.336 470.742 497.073 470.173 495.716 469.51C491.841 467.62 487.966 465.357 484.334 462.713C473.699 454.971 467.2 445.56 467.2 434.4C467.2 429.94 467.48 427.328 468.306 425.735C469.153 424.1 470.805 423.153 472.694 423.654C473.802 423.947 474.641 424.623 475.531 425.655C476.868 427.208 483.247 437.688 484.753 439.89C488.615 445.536 492.27 449.497 496.027 451.718C497.453 452.561 497.926 454.401 497.082 455.827C496.239 457.253 494.399 457.726 492.973 456.883C488.446 454.206 484.378 449.867 480.205 443.864L479.801 443.278C478.728 441.709 476.028 437.347 473.873 433.942L473.214 432.905L473.212 433.054C473.206 433.37 473.202 433.702 473.201 434.049L473.2 434.4C473.2 443.278 478.626 451.136 487.866 457.862C491.19 460.282 494.768 462.372 498.347 464.118C499.419 464.641 500.425 465.1 501.342 465.495L501.794 465.686C502.063 465.799 502.307 465.899 502.527 465.987L503.036 466.185C503.13 466.22 503.223 466.259 503.314 466.303L503.676 466.491C503.845 466.575 504.082 466.689 504.385 466.825C505.227 467.204 506.201 467.586 507.291 467.944C515.151 470.53 523.508 470.394 531.317 465.752C532.287 465.175 533.243 464.53 534.181 463.814C539.698 459.61 542.892 455.491 544.277 451.584C545.196 448.993 545.23 446.795 544.774 445.062L544.711 444.837C544.653 444.64 544.61 444.529 544.601 444.511C544.379 444.053 544.277 443.546 544.304 443.038L544.332 442.383C544.336 442.281 544.339 442.169 544.343 442.049C544.457 438.344 544.36 434.139 543.897 430.2C543.286 425.001 542.088 421.27 540.597 419.934L540.299 419.672C538.344 417.984 534.365 415.054 534.17 414.887C532.104 413.118 531.086 411.198 530.721 408.158C530.63 407.399 528.516 405.9 526.125 405.496C523.933 405.125 523.227 405.543 523.297 406.973C523.44 410.333 525.134 415.736 527.809 422.154L528.251 423.204C530.485 428.342 531.067 434.162 529.942 439.789C529.617 441.413 528.036 442.467 526.412 442.142C524.787 441.817 523.733 440.237 524.058 438.612C524.914 434.331 524.52 429.925 522.922 426.009L522.228 424.361C519.307 417.344 517.484 411.491 517.304 407.248Z" fill="#225696"/>
<path fill-rule="evenodd" clip-rule="evenodd" d="M355.1 443.8C355.2 443.4 377.2 417.7 377.9 418.3C378.6 418.9 408.7 432.3 409.4 433.4C410.1 434.5 411.2 440.5 408.2 446.1C405.2 451.7 401.8 464.6 388.2 465.6C374.6 466.7 355.1 443.8 355.1 443.8Z" fill="white"/>
<path fill-rule="evenodd" clip-rule="evenodd" d="M395.2 424.3C395.2 424.3 397.8 406.6 393.7 402.4C389.6 398.2 366.7 437.4 358.8 440.1" fill="white"/>
<path fill-rule="evenodd" clip-rule="evenodd" d="M389.334 400.447C391.609 398.826 393.939 398.351 395.847 400.305C398.176 402.69 398.987 406.944 399.012 412.894C399.024 415.531 398.864 418.331 398.592 421.123L398.479 422.218C398.46 422.395 398.441 422.569 398.421 422.739L398.234 424.26C398.207 424.466 398.184 424.626 398.168 424.736C397.927 426.376 396.403 427.509 394.764 427.268C393.125 427.028 391.991 425.504 392.232 423.864L392.307 423.313L392.35 422.974C392.442 422.242 392.534 421.424 392.62 420.541C392.874 417.936 393.023 415.329 393.012 412.92C393 409.965 392.722 407.562 392.288 406.045L392.215 405.805L392.134 405.874C391.393 406.513 390.476 407.445 389.404 408.652L388.503 409.683C386.639 411.85 384.894 414.079 381.073 419.142L376.28 425.508C367.452 437.18 363.453 441.68 359.77 442.939C358.202 443.475 356.497 442.638 355.961 441.071C355.444 439.559 356.204 437.919 357.665 437.323L357.83 437.262C359.806 436.586 364.061 431.715 371.799 421.485L376.026 415.869C380.309 410.188 382.106 407.899 384.227 405.455L384.621 405.004C386.458 402.908 387.991 401.403 389.334 400.447Z" fill="#225696"/>
<path fill-rule="evenodd" clip-rule="evenodd" d="M407.4 427.4C407.4 427.4 412.9 414.5 405.6 408.3C398.4 402.1 380.5 437.4 372.7 441.9" fill="white"/>
<path fill-rule="evenodd" clip-rule="evenodd" d="M396.249 408.309C400.399 404.512 404.266 403.193 407.542 406.014C410.489 408.516 411.995 411.964 412.32 415.982C412.565 419.005 412.138 422.148 411.285 425.235C410.874 426.724 410.457 427.879 410.16 428.577C409.51 430.101 407.747 430.81 406.223 430.16C404.754 429.533 404.042 427.872 404.576 426.388L404.794 425.831C404.823 425.755 404.854 425.669 404.889 425.574C405.096 424.999 405.306 424.347 405.502 423.638C406.183 421.172 406.52 418.691 406.34 416.466C406.144 414.041 405.352 412.141 403.86 410.766L403.621 410.557C403.596 410.546 403.556 410.567 403.304 410.653C402.576 410.901 401.543 411.598 400.3 412.736C397.978 414.86 395.252 418.159 391.603 423.122L390.185 425.068L385.142 432.078C378.542 441.201 377.013 442.875 374.199 444.499C372.764 445.327 370.929 444.835 370.101 443.399C369.273 441.964 369.766 440.13 371.201 439.302L371.344 439.217C373.212 438.08 375.128 435.717 381.884 426.336L384.743 422.356C385.143 421.8 385.516 421.284 385.875 420.791L386.404 420.065C390.457 414.526 393.476 410.846 396.249 408.309Z" fill="#225696"/>
<path fill-rule="evenodd" clip-rule="evenodd" d="M410.6 442.2C410.6 442.2 419.8 419.1 413.4 414.2C407 409.3 396.5 439.3 384 446.2" fill="white"/>
<path fill-rule="evenodd" clip-rule="evenodd" d="M408.764 411.549C410.931 410.325 413.263 410.317 415.224 411.818C419.01 414.717 419.39 420.41 417.839 428.324C417.382 430.655 416.757 433.111 416.007 435.628C415.518 437.269 415 438.857 414.477 440.352L414.216 441.091C414.044 441.57 413.882 442.011 413.732 442.411L413.387 443.31C412.774 444.849 411.029 445.6 409.49 444.987C407.951 444.374 407.2 442.629 407.813 441.09L408.013 440.571L408.333 439.714C408.408 439.508 408.486 439.293 408.567 439.068C409.143 437.459 409.72 435.719 410.257 433.915C410.956 431.57 411.534 429.296 411.951 427.17L412.102 426.363C412.977 421.463 412.786 418.006 411.815 416.816L411.756 416.75L411.717 416.772C411.082 417.131 410.2 417.97 409.127 419.28L408.91 419.549L408.538 420.023C407.656 421.164 406.678 422.56 405.467 424.39L404.472 425.913C403.403 427.566 401.118 431.117 400.358 432.274L399.657 433.335C394.222 441.496 390.117 446.25 385.45 448.827C383.999 449.627 382.174 449.1 381.374 447.65C380.573 446.199 381.1 444.374 382.55 443.574C386.108 441.61 389.773 437.351 394.694 429.962L395.785 428.303C396.98 426.464 399.377 422.735 399.912 421.917L400.511 421.008C401.965 418.813 403.122 417.179 404.224 415.802C405.833 413.79 407.277 412.39 408.764 411.549Z" fill="#225696"/>
<path fill-rule="evenodd" clip-rule="evenodd" d="M360.5 439.2C359.5 434.2 360 429 362 424.4C364.3 419 367 411.8 367.2 407.1C367.6 399 354.4 402.8 353.8 407.8C353.2 412.8 350.7 412.5 344.9 417.7C339.1 422.9 340.2 443.2 340.2 443.2C340.2 443.2 335.1 453.7 351.5 466.2C367.9 478.7 385.5 469 385.5 469C385.5 469 417.3 457.3 417.3 434.4C417.3 411.5 408.9 444.9 393 454.3" fill="white"/>
<path fill-rule="evenodd" clip-rule="evenodd" d="M360.375 399.58C365.909 398.644 370.487 401.354 370.197 407.228C370.016 411.49 368.193 417.344 365.264 424.379L364.751 425.596C363.011 429.599 362.554 434.172 363.442 438.612C363.767 440.237 362.713 441.817 361.088 442.142C359.464 442.467 357.883 441.413 357.558 439.789C356.469 434.343 356.979 428.717 359.03 423.722L359.683 422.172C362.366 415.736 364.06 410.332 364.204 406.952C364.273 405.543 363.567 405.125 361.375 405.496C358.984 405.9 356.87 407.399 356.779 408.158C356.428 411.081 355.473 412.969 353.563 414.683L353.33 414.887C353.124 415.063 348.715 418.309 346.903 419.934C345.412 421.27 344.214 425.001 343.603 430.2C343.175 433.836 343.06 437.699 343.134 441.185L343.168 442.383C343.179 442.689 343.189 442.911 343.196 443.038C343.219 443.474 343.147 443.908 342.986 444.312L342.898 444.511C342.887 444.535 342.815 444.724 342.726 445.062C342.27 446.795 342.304 448.993 343.223 451.584C344.608 455.491 347.802 459.61 353.319 463.814C354.257 464.53 355.213 465.175 356.183 465.752C363.992 470.394 372.349 470.53 380.209 467.944C381.143 467.637 381.992 467.312 382.746 466.987L383.115 466.825C383.539 466.634 383.835 466.488 383.993 466.405L384.052 466.373C384.14 466.324 384.231 466.28 384.324 466.241L384.762 466.07C384.965 465.991 385.193 465.899 385.445 465.795L385.706 465.686C386.742 465.252 387.902 464.729 389.153 464.118C392.732 462.372 396.31 460.282 399.634 457.862C408.874 451.136 414.3 443.278 414.3 434.4L414.299 433.934L414.285 432.905L412.508 435.717C410.757 438.502 408.898 441.481 407.921 442.948L407.699 443.278C403.384 449.585 399.2 454.12 394.527 456.883C393.1 457.726 391.261 457.253 390.417 455.827C389.574 454.401 390.047 452.561 391.473 451.718C395.23 449.497 398.884 445.536 402.746 439.89L402.941 439.6C404.736 436.895 410.683 427.148 411.969 425.655C412.859 424.623 413.698 423.947 414.806 423.654C416.695 423.153 418.347 424.1 419.194 425.735C420.019 427.328 420.3 429.94 420.3 434.4C420.3 445.56 413.801 454.971 403.166 462.713C399.534 465.357 395.659 467.62 391.784 469.51C390.427 470.173 389.164 470.742 388.027 471.219L387.214 471.553L386.747 471.735L386.578 471.824L386.151 472.037C385.242 472.476 384.002 472.995 382.472 473.514L382.084 473.644C372.72 476.724 362.622 476.561 353.117 470.909C351.948 470.215 350.803 469.441 349.681 468.586C343.281 463.708 339.365 458.658 337.568 453.589C336.227 449.806 336.173 446.385 336.924 443.534C336.972 443.352 337.021 443.18 337.07 443.02L337.176 442.697L337.16 442.233C337.037 438.258 337.14 433.781 337.644 429.499C338.418 422.919 339.967 418.093 342.897 415.467L343.355 415.066C345.572 413.163 349.463 410.299 349.427 410.33C350.345 409.544 350.635 408.998 350.821 407.443C351.298 403.47 355.66 400.377 360.375 399.58Z" fill="#225696"/>
<path fill-rule="evenodd" clip-rule="evenodd" d="M885.6 213.9L818.8 203.3L811.6 180.6C824.1 172.7 866.1 176.4 898.9 188.5L885.6 213.9Z" fill="#225696"/>
<path fill-rule="evenodd" clip-rule="evenodd" d="M995.2 340.2L945.5 224C942.3 216.8 935.6 211.5 927.5 209.3C923.4 207.4 918.9 206.2 914.2 205.8L897.3 204.4L898.8 188.5C898.8 188.5 896.5 194.2 877.9 197.7C852.8 202.4 811.5 180.6 811.5 180.6C811.5 180.6 811.5 202.2 811.5 205.2L785.9 204.5C774.9 204.2 753.6 203.3 741.2 227.8L681.1 378.7C670.4 398.2 676 427 693.7 441.9L728.8 461.3L725.5 500.3L991.1 499.4L989.6 464.8C1070.4 414.7 995.2 340.2 995.2 340.2Z" fill="#6FB1F2"/>
<path fill-rule="evenodd" clip-rule="evenodd" d="M709.453 377.561C722.04 368.544 734.242 364.66 745.861 365.158C755.023 365.551 763.267 368.618 770.475 373.469C773.177 375.288 775.545 377.237 777.569 379.192L778.042 379.655C779.024 380.63 779.723 381.408 780.131 381.912C781.174 383.2 780.976 385.089 779.688 386.132C778.45 387.134 776.656 386.989 775.593 385.832L775.184 385.358C775.127 385.293 775.062 385.221 774.99 385.141C774.548 384.653 774.017 384.103 773.4 383.507C771.618 381.786 769.52 380.059 767.124 378.447C760.778 374.175 753.571 371.494 745.604 371.153C735.367 370.714 724.474 374.181 712.947 382.439C711.6 383.404 709.726 383.094 708.761 381.747C707.796 380.4 708.106 378.526 709.453 377.561Z" fill="white"/>
<path fill-rule="evenodd" clip-rule="evenodd" d="M716.615 362.039C729.853 355.148 741.577 352.876 751.819 354.586C760.115 355.971 766.988 359.871 772.514 365.475C774.888 367.882 776.862 370.455 778.467 373.045C779.044 373.976 779.537 374.853 779.952 375.661L780.16 376.072C780.317 376.388 780.435 376.642 780.541 376.882C781.214 378.396 780.532 380.169 779.018 380.842C777.504 381.515 775.731 380.833 775.058 379.319C774.724 378.567 774.211 377.568 773.366 376.205C771.986 373.977 770.283 371.757 768.242 369.688C763.556 364.935 757.795 361.667 750.831 360.504C741.951 359.022 731.525 361.042 719.385 367.362C717.915 368.127 716.104 367.555 715.339 366.086C714.574 364.616 715.145 362.804 716.615 362.039Z" fill="white"/>
<path fill-rule="evenodd" clip-rule="evenodd" d="M965.761 357.599C977.69 355.908 990.652 359.132 1004.53 368.079C1005.92 368.977 1006.32 370.834 1005.42 372.226C1004.52 373.619 1002.67 374.02 1001.27 373.122C988.567 364.927 977.041 362.06 966.603 363.539C958.368 364.707 951.109 368.53 944.845 374.208C942.149 376.652 939.823 379.276 937.881 381.895C937.302 382.676 936.794 383.407 936.36 384.072L935.959 384.699C935.788 384.973 935.674 385.166 935.617 385.268C934.806 386.713 932.978 387.228 931.533 386.417C930.088 385.607 929.573 383.778 930.383 382.333L930.568 382.012C931.073 381.155 931.904 379.882 933.061 378.321C935.226 375.402 937.81 372.487 940.816 369.762C947.91 363.332 956.229 358.95 965.761 357.599Z" fill="white"/>
<path fill-rule="evenodd" clip-rule="evenodd" d="M937.103 360.296C948.512 348.91 964.618 343.504 985.835 347.348C987.465 347.644 988.547 349.205 988.252 350.835C987.956 352.465 986.395 353.548 984.765 353.252C965.531 349.767 951.392 354.513 941.341 364.543C938.619 367.26 936.417 370.172 934.697 373.078C934.186 373.943 933.751 374.75 933.39 375.484L933.215 375.845C933.074 376.143 932.967 376.38 932.894 376.55L932.798 376.782C932.2 378.328 930.463 379.096 928.918 378.498C927.372 377.901 926.604 376.164 927.202 374.618L927.351 374.248C927.764 373.258 928.48 371.803 929.534 370.022C931.499 366.702 934.003 363.39 937.103 360.296Z" fill="white"/>
<path fill-rule="evenodd" clip-rule="evenodd" d="M820.6 202.4V135.3L879.6 170.8L878.2 206.9L820.6 202.4Z" fill="white"/>
<path fill-rule="evenodd" clip-rule="evenodd" d="M817.6 135.3V202.4C817.6 203.966 818.805 205.269 820.366 205.391L877.966 209.891C879.664 210.024 881.132 208.718 881.198 207.016L882.598 170.916C882.64 169.823 882.084 168.794 881.147 168.229L822.147 132.73C820.147 131.526 817.6 132.967 817.6 135.3ZM823.6 140.606L876.533 172.456L875.323 203.666L823.6 199.625V140.606Z" fill="#225696"/>
<path fill-rule="evenodd" clip-rule="evenodd" d="M898.7 63.3C874.7 46.7 853.1 40.6 819.2 84L814.6 112.6C800.4 108.3 792.9 115.3 796 127.7C799.3 141.1 807.1 147.1 820 143.6C820 143.6 819.3 141.9 820 143.6C826.2 157.6 837.9 173.7 859.6 178.4C893.6 185.8 901.4 164.7 905.2 156.5C908.9 148.1 922.7 79.9 898.7 63.3Z" fill="white"/>
<path fill-rule="evenodd" clip-rule="evenodd" d="M862.234 48.1808C847.945 50.2443 833.408 60.9368 816.836 82.1533L816.709 82.3286C816.468 82.6876 816.307 83.0952 816.238 83.5236L812.157 108.896L811.734 108.815C797.887 106.273 789.633 114.602 793.09 128.428L793.203 128.88C796.82 142.969 805.494 149.534 818.294 147.074L818.559 147.622C826.967 164.952 840.103 177.247 858.965 181.332C880.209 185.956 893.83 180.597 902.279 168.376C903.555 166.531 904.664 164.602 905.734 162.453L906.132 161.641C906.33 161.23 906.529 160.806 906.741 160.349L907.922 157.761C910.704 151.446 914.547 130.528 915.334 113.111C916.48 87.7813 912.186 68.9801 900.407 60.8327C885.64 50.619 874.454 46.416 862.234 48.1808ZM896.993 65.7673C906.492 72.3372 910.399 89.4424 909.341 112.839L909.287 113.936C908.422 130.453 904.814 149.934 902.455 155.291L901.501 157.383C901.085 158.292 900.733 159.037 900.363 159.778C899.412 161.688 898.442 163.376 897.343 164.964C890.278 175.183 879.111 179.576 860.238 175.469C842.491 171.625 830.363 159.591 822.743 142.385C822.146 141.037 820.657 140.322 819.232 140.7L818.846 140.802C808.234 143.547 801.894 139.086 798.913 126.983C796.333 116.664 801.954 111.905 813.731 115.471L813.905 115.518C815.588 115.922 817.283 114.81 817.562 113.076L822.038 85.242L823 84.0285C838.091 65.1404 850.997 55.8658 863.091 54.1192C873.471 52.6203 883.356 56.3348 896.993 65.7673Z" fill="#225696"/>
<path fill-rule="evenodd" clip-rule="evenodd" d="M887.062 112.619C888.65 112.439 890.088 113.533 890.356 115.088L890.381 115.262L893.281 140.862C893.479 142.608 892.143 144.136 890.411 144.198L890.237 144.199L880.737 143.999C879.08 143.964 877.766 142.593 877.801 140.937C877.834 139.339 879.11 138.06 880.687 138.002L880.863 138.001L886.933 138.128L884.419 115.938C884.239 114.35 885.333 112.912 886.888 112.644L887.062 112.619Z" fill="#225696"/>
<path fill-rule="evenodd" clip-rule="evenodd" d="M898.5 120C900.102 120 901.4 118.03 901.4 115.6C901.4 113.17 900.102 111.2 898.5 111.2C896.898 111.2 895.6 113.17 895.6 115.6C895.6 118.03 896.898 120 898.5 120Z" fill="#225696"/>
<path fill-rule="evenodd" clip-rule="evenodd" d="M871 119.5C872.602 119.5 873.9 117.53 873.9 115.1C873.9 112.67 872.602 110.7 871 110.7C869.398 110.7 868.1 112.67 868.1 115.1C868.1 117.53 869.398 119.5 871 119.5Z" fill="#225696"/>
<path fill-rule="evenodd" clip-rule="evenodd" d="M896.733 86.776C898.524 86.4888 900.421 86.473 902.288 86.928C905.559 87.7252 908.075 89.8659 909.167 93.4177C909.655 95.0013 908.766 96.68 907.182 97.1673C905.655 97.6371 904.04 96.8275 903.489 95.3492L903.433 95.1822C902.998 93.7701 902.186 93.0787 900.868 92.7574C899.891 92.5194 898.753 92.5288 897.684 92.7003L897.443 92.7419C897.338 92.7613 897.26 92.7779 897.21 92.7895L897.171 92.7992C895.569 93.2249 893.926 92.2719 893.501 90.6706C893.075 89.0694 894.028 87.4263 895.629 87.0006L895.871 86.9412C896.098 86.889 896.388 86.8314 896.733 86.776Z" fill="#225696"/>
<path fill-rule="evenodd" clip-rule="evenodd" d="M868.6 146.5C868.6 146.5 877.8 149.8 885.5 148.5C885.5 148.5 882.6 161.8 875.1 160.2C867.7 158.5 868.6 146.5 868.6 146.5Z" fill="#225696"/>
<path fill-rule="evenodd" clip-rule="evenodd" d="M773.5 32.6C758.2 2.69998 733.7 0.0999825 705.4 5.79998C677.1 11.4 661.3 49.5 660.3 53C648.8 94.2 664 138.2 698 164.2C701.8 167.1 705.5 170 709.1 172.8C729.1 188.4 684.8 201.8 684.8 201.8C769.5 208.6 751 123.8 749.2 116.3C776.4 106 787.7 60.4 773.5 32.6Z" fill="#225696"/>
<path fill-rule="evenodd" clip-rule="evenodd" d="M819.1 91.7997C816.4 98.6997 808.6 102.1 801.7 99.3997L752.6 80.2997C745.7 77.5997 742.3 69.7997 745 62.8997C747.7 55.9997 755.5 52.5997 762.4 55.2997L811.5 74.3997C818.4 77.0997 821.8 84.8997 819.1 91.7997Z" fill="#439BD7"/>
<path fill-rule="evenodd" clip-rule="evenodd" d="M922.5 92.5001C922.2 71.7001 917.2 53.5001 904.7 41.5001C903 39.4001 900.7 37.6001 897.6 35.9001C887.4 29.3001 873.5 25.7001 855 26.4001C854.7 26.4001 854.3 26.5001 853.9 26.7001C851 27.0001 848.1 27.4001 845.3 28.0001C843.8 28.2001 842.3 28.6001 840.7 29.1001C835.4 30.5001 830.5 32.4001 825.9 34.5001C784.5 52.3001 768.3 84.4001 786.8 128.7C796.3 151.5 808.7 158.9 820.7 158.9V145.1C819.7 142.9 818 143.8 818 143.8C805.1 147.3 799.4 141.1 796 127.7C794.4 121.2 795.7 116.3 799.2 113.6C799.3 113.5 799.4 113.5 799.5 113.4C799.6 113.3 799.8 113.2 799.9 113.1C800 113 800.1 113 800.2 112.9C800.4 112.8 800.5 112.7 800.7 112.6C800.8 112.6 800.9 112.5 801 112.5C801.2 112.4 801.4 112.3 801.5 112.3C801.6 112.3 801.7 112.2 801.8 112.2C802 112.1 802.2 112.1 802.4 112C802.5 112 802.5 112 802.6 111.9C803.7 111.6 804.9 111.4 806.2 111.4H806.3C806.6 111.4 806.9 111.4 807.2 111.4C807.3 111.4 807.3 111.4 807.4 111.4C807.7 111.4 808 111.4 808.3 111.4C808.4 111.4 808.4 111.4 808.5 111.4C808.8 111.4 809.2 111.5 809.5 111.5H809.6C811.1 111.7 812.8 112.1 814.5 112.6C815.6 112.9 814.8 113.4 816 113.9L819 113.7C820 113.7 821.1 113.6 822.2 113.5C848.3 110.4 888.9 91.7001 903.3 67.7001C913.5 80.1001 914.6 104.4 912.7 125C918.9 115.3 922.7 104.4 922.5 92.5001Z" fill="#225696"/>
<path fill-rule="evenodd" clip-rule="evenodd" d="M860.717 84.8537C863.996 82.4466 868.043 81.2453 872.734 81.9318C874.374 82.1717 875.508 83.6952 875.268 85.3346C875.029 86.974 873.505 88.1085 871.866 87.8686C868.839 87.4257 866.343 88.1666 864.268 89.6903C863.682 90.1204 863.179 90.5803 862.766 91.0329L862.594 91.2262C862.495 91.3408 862.427 91.4255 862.392 91.473L862.371 91.5015C861.431 92.8661 859.563 93.2107 858.199 92.2711C856.834 91.3315 856.49 89.4635 857.429 88.0989L857.589 87.8777C857.771 87.6358 858.019 87.3335 858.335 86.9873C859.004 86.2548 859.796 85.5296 860.717 84.8537Z" fill="white"/>
<path fill-rule="evenodd" clip-rule="evenodd" d="M940.2 274.3L933.9 240.9C931.3 227.3 918.2 218.4 904.7 220.9L895.1 222.7C888.7 188.9 856.2 166.7 822.4 173C788.6 179.4 766.4 211.9 772.7 245.7L763.1 247.5C749.5 250.1 740.6 263.2 743.1 276.7L749.4 310.1C783.2 303.7 815.8 326 822.1 359.8C828.5 393.6 806.2 426.2 772.4 432.6L776.6 454.7C779.2 468.3 792.3 477.2 805.8 474.7L947.4 448C961 445.4 969.9 432.3 967.4 418.8L963.2 396.7C929.4 403.1 896.8 380.8 890.5 347C884.1 313.3 906.3 280.7 940.2 274.3Z" fill="#E0E0E0"/>
<path fill-rule="evenodd" clip-rule="evenodd" d="M806 451.4C819.5 461 821.3 453.7 817.3 449.1C812.4 443.3 788.8 424.8 788.8 424.8C788.8 424.8 807.7 430.4 812.3 419.8C816.9 409.2 811.9 407.1 804.8 410.7C797.7 414.3 775.6 401.3 775.6 401.3L768.4 394.6C768.4 394.6 744.1 386.8 737.9 413.7C733.1 429.1 743.2 439.7 743.2 439.7C746.1 443 756.1 456 787.8 471.8C787.8 471.8 802.7 477.3 791.5 466.6C788.6 463.8 785.6 461.3 782.7 459.2" fill="white"/>
<path fill-rule="evenodd" clip-rule="evenodd" d="M751.42 392.092C756.504 390.26 761.819 390.182 766.77 391.128L767.324 391.239C768.207 391.423 768.884 391.604 769.317 391.743C769.667 391.856 769.992 392.031 770.277 392.26L770.444 392.404L777.397 398.874L777.83 399.121L778.575 399.539C778.966 399.757 779.386 399.987 779.832 400.228C781.955 401.377 784.216 402.526 786.512 403.596C788.538 404.539 790.496 405.376 792.346 406.076L793.133 406.368C798.185 408.2 801.973 408.77 803.443 408.024C808.058 405.684 812.222 405.255 814.94 407.691C817.875 410.321 817.685 414.926 815.052 420.994C812.754 426.289 807.76 428.799 801.242 429.216C800.787 429.245 800.328 429.264 799.867 429.273L799.218 429.279L800.422 430.254C801.697 431.291 802.956 432.322 804.187 433.338L806.11 434.932L808.081 436.584C813.656 441.282 817.58 444.836 819.429 446.974L819.564 447.131C822.613 450.638 823.368 455.516 819.986 457.995C816.651 460.439 811.31 458.857 804.261 453.845C802.911 452.885 802.595 451.012 803.555 449.661C804.515 448.311 806.388 447.995 807.739 448.955C810.686 451.051 813.094 452.333 814.875 452.861C815.316 452.991 815.69 453.067 815.992 453.097L816.136 453.108L816.122 453.036C816 452.506 815.678 451.864 815.181 451.242L815.008 451.036C813.373 449.1 809.056 445.217 802.949 440.11L801.576 438.965C798.378 436.31 794.948 433.527 791.518 430.785L789.549 429.216L786.949 427.161C784.39 425.155 786.406 421.128 789.486 421.879L790.105 422.047C790.191 422.069 790.288 422.094 790.394 422.121C791.033 422.281 791.755 422.442 792.543 422.592C795.377 423.135 798.245 423.396 800.858 423.229C805.362 422.94 808.31 421.458 809.548 418.606C810.528 416.348 811.017 414.547 811.07 413.276C811.089 412.818 811.048 412.482 810.976 412.265L810.936 412.159L810.894 412.143C810.875 412.137 810.847 412.129 810.809 412.12C810.604 412.071 810.305 412.057 809.922 412.097C809.009 412.191 807.829 412.564 806.494 413.209L806.157 413.376C802.542 415.208 797.229 414.341 790.222 411.688C788.223 410.931 786.131 410.037 783.979 409.034C781.565 407.91 779.2 406.708 776.977 405.506L776.078 405.015C775.791 404.857 775.516 404.704 775.254 404.557L774.447 404.099C774.286 404.007 774.163 403.935 774.079 403.886C773.954 403.812 773.834 403.729 773.721 403.638L773.556 403.496L766.892 397.295L766.807 397.274C766.547 397.21 766.263 397.145 765.957 397.083L765.644 397.021C761.659 396.26 757.377 396.323 753.454 397.737C747.381 399.925 742.963 405.09 740.823 414.374C740.806 414.447 740.787 414.52 740.764 414.593C738.59 421.567 739.574 427.923 742.548 433.476C743.192 434.679 743.88 435.739 744.562 436.64L744.808 436.959C745.036 437.249 745.213 437.457 745.323 437.577L745.454 437.719L746.909 439.406C747.623 440.223 748.322 440.994 749.105 441.815C751.217 444.03 753.661 446.313 756.611 448.749C764.461 455.234 774.799 461.901 788.238 468.664L788.981 469.036L789.388 469.176L789.85 469.327L790.071 469.396L789.687 469.019L789.416 468.758C786.684 466.12 783.799 463.7 780.941 461.63C779.599 460.658 779.298 458.782 780.27 457.44C781.242 456.098 783.118 455.798 784.46 456.77C787.548 459.007 790.65 461.609 793.572 464.431L794.122 464.962C798.043 468.795 799.544 471.319 798.281 473.908C797.484 475.542 796.014 476.136 794.277 476.207C793.343 476.244 792.299 476.12 791.122 475.874C790.498 475.744 789.849 475.581 789.186 475.393L788.595 475.22C787.835 474.992 787.198 474.775 786.761 474.614C786.659 474.577 786.559 474.533 786.462 474.485C772.185 467.369 761.176 460.303 752.79 453.375C749.654 450.785 747.037 448.34 744.764 445.956C744.085 445.245 743.464 444.568 742.85 443.875L740.968 441.706L740.929 441.663C740.684 441.397 740.35 441.004 739.952 440.488L739.777 440.26C738.914 439.119 738.057 437.798 737.259 436.308C733.647 429.566 732.39 421.767 734.882 413.315L735.005 412.909L735.104 412.486C737.711 401.754 743.33 395.158 751.033 392.235L751.42 392.092Z" fill="#225696"/>
<path fill-rule="evenodd" clip-rule="evenodd" d="M784.9 437C789.6 440.5 809.4 451.6 814.1 458.7C818.8 465.8 812.9 468.1 796 455.9" fill="white"/>
<path fill-rule="evenodd" clip-rule="evenodd" d="M782.494 435.208C783.445 433.93 785.22 433.627 786.536 434.485L786.952 434.778C788.945 436.153 798.496 442.218 801.169 444.007L802.536 444.93C804.096 445.992 805.535 447.006 806.868 447.987C811.59 451.462 814.863 454.418 816.602 457.044C818.136 459.362 818.893 461.489 818.597 463.426C818.182 466.141 815.931 467.596 813.088 467.537C808.983 467.451 802.526 464.311 794.244 458.332C792.901 457.362 792.598 455.487 793.568 454.144C794.537 452.8 796.413 452.497 797.756 453.467L798.638 454.098C804.605 458.319 809.311 460.755 812.053 461.378L812.23 461.416L812.146 461.26C812.029 461.045 811.889 460.807 811.726 460.551L811.599 460.356C810.36 458.484 807.498 455.9 803.312 452.82C801.858 451.75 800.26 450.63 798.499 449.442L797.338 448.666C794.058 446.505 784.418 440.381 783.108 439.406C781.779 438.416 781.504 436.537 782.494 435.208Z" fill="#225696"/>
<path fill-rule="evenodd" clip-rule="evenodd" d="M777.6 444.6C778.1 445.5 810.5 463 808.4 467.6C806.7 471.4 802.1 471.6 784.1 460.2L769.7 450.2" fill="white"/>
<path fill-rule="evenodd" clip-rule="evenodd" d="M776.143 441.977C777.27 441.351 778.625 441.528 779.55 442.319L779.67 442.428L780.021 442.66L781.028 443.289C781.557 443.612 782.211 444.006 783.354 444.691L787.267 447.036C790.106 448.745 792.089 449.963 794.331 451.382L794.653 451.587C795.763 452.291 796.822 452.975 797.831 453.639L798.579 454.135C802.23 456.566 805.138 458.702 807.236 460.549L807.531 460.811C810.848 463.797 812.375 466.117 811.139 468.825C809.548 472.38 806.281 473.667 801.637 472.511C797.636 471.514 791.896 468.627 783.552 463.4L782.495 462.734L782.389 462.664L767.989 452.664C766.628 451.719 766.291 449.849 767.236 448.488C768.146 447.178 769.913 446.817 771.258 447.636L771.411 447.736L785.764 457.702L786.206 457.982C794.172 463 799.559 465.751 802.883 466.636L803.088 466.689C804.195 466.964 804.769 467.055 805.116 466.956L805.155 466.942L805.127 466.905C804.802 466.507 804.338 466.025 803.745 465.478L803.517 465.271C801.741 463.672 799.098 461.708 795.718 459.44L795.253 459.128C794.3 458.493 793.296 457.839 792.24 457.163L791.439 456.653C789.106 455.172 787.1 453.939 784.157 452.167L777.779 448.335L777.079 447.9C776.778 447.711 776.532 447.551 776.332 447.414C776.152 447.292 776.001 447.183 775.864 447.074C775.483 446.772 775.25 446.547 774.978 446.057C774.173 444.608 774.695 442.782 776.143 441.977Z" fill="#225696"/>
<path fill-rule="evenodd" clip-rule="evenodd" d="M924.3 421.4C908.5 426.5 909 419.1 914.2 415.8C920.7 411.7 948.7 401.1 948.7 401.1C948.7 401.1 929 400.8 927.8 389.3C926.6 377.8 932 377.3 937.7 382.9C943.4 388.5 968.4 382.6 968.4 382.6L977.3 378.4C977.3 378.4 1002.8 378.2 1000.8 405.7C1000.8 421.9 988 428.9 988 428.9C984.3 431.2 970.8 440.6 935.8 446.3C935.8 446.3 919.9 447.1 933.8 440.2C937.4 438.4 941 437 944.4 435.8" fill="white"/>
<path fill-rule="evenodd" clip-rule="evenodd" d="M977.06 375.409L977.277 375.4L977.58 375.403C977.851 375.409 978.198 375.424 978.612 375.453C979.522 375.517 980.52 375.632 981.587 375.812C984.607 376.32 987.625 377.244 990.47 378.697C999.498 383.307 1004.65 392.057 1003.83 405.402L1003.8 405.825L1003.8 406.245C1003.68 413.663 1001.15 419.899 996.995 424.947L996.688 425.315C995.139 427.143 993.479 428.681 991.812 429.944C991.044 430.526 990.388 430.967 989.887 431.272L989.529 431.481L988.481 432.143C987.919 432.497 987.417 432.808 986.873 433.134C985.404 434.015 983.859 434.875 982.119 435.76C977.51 438.104 972.086 440.338 965.592 442.429C957.221 445.124 947.506 447.433 936.282 449.261L936.117 449.283L935.951 449.296C935.86 449.301 935.708 449.307 935.503 449.313C934.299 449.348 932.976 449.331 931.695 449.222C930.48 449.118 929.421 448.939 928.517 448.646C926.863 448.109 925.623 447.207 925.208 445.494C924.452 442.373 926.911 440.27 932.458 437.517C935.8 435.846 939.259 434.433 943.402 432.971C944.964 432.419 946.678 433.239 947.229 434.801C947.78 436.364 946.961 438.077 945.398 438.629C941.472 440.015 938.231 441.338 935.134 442.887L934.465 443.225L934.268 443.327L934.719 443.327L935.492 443.31L936.443 443.153C946.526 441.466 955.304 439.383 962.912 436.985L963.753 436.717C969.945 434.724 975.075 432.611 979.399 430.412C981.01 429.593 982.433 428.8 983.786 427.989C984.163 427.762 984.52 427.544 984.898 427.308L986.416 426.352L986.758 426.15L986.938 426.037C987.308 425.801 987.729 425.51 988.188 425.162C989.521 424.152 990.861 422.91 992.112 421.435C995.576 417.349 997.681 412.322 997.795 406.225L997.8 405.7L997.808 405.482C998.622 394.282 994.763 387.626 987.741 384.04C985.488 382.889 983.044 382.142 980.59 381.728C979.867 381.607 979.186 381.521 978.561 381.467L978.018 381.427L977.927 381.421L969.68 385.313C969.554 385.372 969.424 385.423 969.291 385.465L969.089 385.52L968.542 385.644C968.199 385.721 967.815 385.804 967.394 385.893L967.072 385.961C965.509 386.286 963.802 386.611 962.003 386.915C958.807 387.454 955.671 387.866 952.713 388.1C944.502 388.751 938.676 388.064 935.598 385.04C934.413 383.876 933.298 383.069 932.383 382.671C932.028 382.517 931.738 382.439 931.527 382.424L931.396 382.422C931.399 382.421 931.383 382.434 931.329 382.509C931.194 382.694 931.055 383.002 930.935 383.444C930.603 384.673 930.528 386.539 930.784 388.988C931.143 392.43 934.064 394.906 939.125 396.505C941.216 397.165 943.49 397.61 945.769 397.873C946.41 397.947 947.013 398.002 947.567 398.041L947.974 398.067C948.304 398.086 948.546 398.095 948.685 398.099L948.746 398.1C951.993 398.15 952.826 402.566 949.93 403.837L945.419 405.574L944.19 406.052C940.529 407.478 936.87 408.932 933.399 410.349L931.058 411.312L928.426 412.411C922.206 415.034 917.745 417.111 915.808 418.333C915.048 418.815 914.454 419.414 914.14 419.951L914.108 420.009C914.376 420.073 914.709 420.117 915.114 420.134L915.365 420.141C917.23 420.166 919.923 419.66 923.378 418.545C924.955 418.036 926.646 418.902 927.155 420.478C927.664 422.055 926.798 423.746 925.222 424.255C916.965 426.92 911.408 426.845 908.962 423.532C906.479 420.17 908.646 415.771 912.6 413.262L912.983 413.027C915.533 411.498 920.361 409.281 927.055 406.479L929.64 405.406C931.609 404.595 933.648 403.769 935.722 402.941L937.432 402.261L937.318 402.226C930.358 400.028 925.652 396.106 924.856 389.955L924.816 389.611C924.129 383.026 925.334 378.574 928.929 376.953C932.258 375.451 936.102 377.124 939.802 380.76C941.15 382.084 945.786 382.63 952.239 382.119C955.004 381.9 957.971 381.51 961.005 380.998C962.725 380.708 964.358 380.397 965.848 380.087L966.723 379.901L967.412 379.748L976.02 375.687C976.347 375.532 976.7 375.438 977.06 375.409Z" fill="#225696"/>
<path fill-rule="evenodd" clip-rule="evenodd" d="M948.8 413.9C943.2 415.8 921.1 420.5 914.4 425.9C907.8 431.2 912.7 435.3 932.5 428.7" fill="white"/>
<path fill-rule="evenodd" clip-rule="evenodd" d="M947.836 411.059C949.405 410.526 951.109 411.367 951.641 412.936C952.154 414.449 951.391 416.087 949.929 416.679L949.764 416.741C948.299 417.238 935.927 420.545 932.143 421.679L930.558 422.161C923.495 424.349 918.564 426.397 916.278 428.239C915.954 428.499 915.679 428.744 915.452 428.963L915.344 429.069L915.377 429.073C918.194 429.382 923.686 428.437 931.067 426.014L931.551 425.854C933.123 425.33 934.822 426.179 935.346 427.751C935.87 429.323 935.021 431.022 933.449 431.546L932.362 431.902C923.222 434.853 916.491 435.777 912.688 434.636C909.969 433.82 908.275 431.746 908.695 429.041C908.996 427.099 910.362 425.295 912.517 423.564C915.713 420.988 921.471 418.641 929.82 416.112L931.085 415.735C935.268 414.515 945.111 411.873 947.439 411.182L947.836 411.059Z" fill="#225696"/>
<path fill-rule="evenodd" clip-rule="evenodd" d="M953.5 423.4C952.7 424.1 916.6 431.1 917.2 436.1C917.7 440.2 922.1 441.8 942.6 436.3L959.3 431" fill="white"/>
<path fill-rule="evenodd" clip-rule="evenodd" d="M952.305 420.647C953.471 420.141 954.877 420.417 955.758 421.424C956.849 422.671 956.722 424.567 955.476 425.658L955.264 425.84C954.893 426.147 954.642 426.267 953.73 426.513L951.983 426.96L944.638 428.728C942.099 429.344 940.067 429.852 938.044 430.383L936.134 430.891C930.65 432.37 926.308 433.747 923.325 435.014C922.235 435.477 921.363 435.912 920.74 436.296L920.519 436.437L920.537 436.449C920.826 436.632 921.356 436.723 922.359 436.791L922.581 436.805C925.999 437.012 932.018 436.008 941.253 433.554L941.757 433.419L958.393 428.14C959.915 427.657 961.538 428.453 962.101 429.926L962.159 430.092C962.643 431.615 961.847 433.238 960.374 433.801L960.208 433.859L943.508 439.159L943.377 439.197L941.589 439.67C932.439 442.05 926.268 443.039 922.219 442.794C917.444 442.506 914.691 440.31 914.221 436.457C913.851 433.368 916.148 431.58 920.66 429.628L920.979 429.492C924.149 428.145 928.492 426.754 933.916 425.276L936.132 424.682C938.837 423.968 941.489 423.311 945.236 422.411L950.915 421.042L951.739 420.828L952.197 420.698L952.305 420.647Z" fill="#225696"/>
<path fill-rule="evenodd" clip-rule="evenodd" d="M1477.5 289.4C1477.8 234.8 1398.1 216 1398.1 216C1404.1 188.9 1401.4 121.8 1287.8 142.3C1229.6 152.4 1213.2 182.9 1225.6 207.6C1203 218.8 1146.5 299.8 1146.5 299.8L1147.6 369.4C1143.4 368.5 1139 368 1134.5 368C1098.8 367.8 1069.6 396.7 1069.5 432.5C1069.3 468.2 1101.2 500.2 1137 500.4C1141.3 500.4 1145.5 500 1149.6 499.1V500.4L1458.3 499.6C1458.3 499.6 1459.8 437.7 1452.4 372.1C1465.3 342.4 1477.5 309.2 1477.5 289.4Z" fill="#439BD7"/>
<path fill-rule="evenodd" clip-rule="evenodd" d="M1348.1 182.7L1368.7 194.1C1368.7 194.1 1315.1 217.2 1305.4 324.1C1299.1 393.5 1304.1 501.8 1304.1 501.8L1268.7 501.3C1268.7 501.3 1278.2 286.6 1262.8 251.6C1247.4 216.7 1264.4 214.5 1272.2 207.2C1280.1 200 1348.1 182.7 1348.1 182.7Z" fill="white"/>
<path fill-rule="evenodd" clip-rule="evenodd" d="M1123 478C1151.39 478 1174.4 454.988 1174.4 426.6C1174.4 398.213 1151.39 375.2 1123 375.2C1094.61 375.2 1071.6 398.213 1071.6 426.6C1071.6 454.988 1094.61 478 1123 478Z" fill="#225696"/>
<path fill-rule="evenodd" clip-rule="evenodd" d="M1310.4 475.6C1335.09 475.6 1355.1 455.587 1355.1 430.9C1355.1 406.213 1335.09 386.2 1310.4 386.2C1285.71 386.2 1265.7 406.213 1265.7 430.9C1265.7 455.587 1285.71 475.6 1310.4 475.6Z" fill="#225696"/>
<path fill-rule="evenodd" clip-rule="evenodd" d="M1347.1 279.2C1356 275.2 1384.3 242.8 1398.1 215.8C1409.6 215.6 1426.2 223.5 1433.4 229.1C1400.7 280.7 1347 279.2 1347.1 279.2Z" fill="#225696"/>
<path fill-rule="evenodd" clip-rule="evenodd" d="M1344.9 367.648C1350.93 366.2 1357.7 365.662 1364.9 366.561C1374.56 367.767 1383.99 371.469 1392.82 378.168C1399.92 383.563 1406.46 390.786 1412.33 399.987C1413.22 401.384 1412.81 403.239 1411.41 404.13C1410.02 405.021 1408.16 404.61 1407.27 403.214C1401.77 394.596 1395.71 387.902 1389.19 382.947C1381.23 376.903 1372.8 373.593 1364.16 372.515C1357.72 371.712 1351.67 372.193 1346.31 373.481C1345.24 373.738 1344.28 374.009 1343.44 374.28L1343.09 374.396C1342.55 374.575 1342.21 374.706 1342.06 374.769C1340.53 375.407 1338.77 374.686 1338.13 373.157C1337.49 371.628 1338.21 369.871 1339.74 369.232L1340.1 369.087C1341.14 368.684 1342.77 368.161 1344.9 367.648Z" fill="#225696"/>
<path fill-rule="evenodd" clip-rule="evenodd" d="M1344.76 363.926C1352.91 359.339 1362.27 356.895 1372.6 357.743C1385.95 358.84 1399.72 365.402 1413.65 378.408C1414.86 379.539 1414.92 381.437 1413.79 382.648C1412.66 383.859 1410.76 383.924 1409.55 382.793C1396.58 370.673 1384.05 364.704 1372.11 363.723C1363.06 362.98 1354.87 365.121 1347.7 369.155C1345.53 370.375 1343.63 371.68 1342 372.979L1341.47 373.415C1341.22 373.627 1340.98 373.829 1340.77 374.019L1340.32 374.432L1340.14 374.605C1338.98 375.786 1337.08 375.801 1335.9 374.638C1334.71 373.476 1334.7 371.577 1335.86 370.396L1336.07 370.185C1336.54 369.73 1337.27 369.081 1338.25 368.296C1340.12 366.801 1342.29 365.313 1344.76 363.926Z" fill="#225696"/>
<path fill-rule="evenodd" clip-rule="evenodd" d="M1451.81 372.312C1453.35 372.743 1454.27 374.298 1453.93 375.839L1453.88 376.055L1453.58 377.057L1453.25 378.136C1453.03 378.839 1452.79 379.604 1452.52 380.428L1452.35 380.929C1451.07 384.791 1449.51 389.088 1447.66 393.713C1442.38 406.926 1435.83 420.141 1427.93 432.493C1415.28 452.262 1400.4 467.907 1383.1 477.847C1362.27 489.81 1338.84 492.942 1312.86 485.707L1312.08 485.487L1311.68 485.382C1311.48 485.326 1311.23 485.257 1310.95 485.175L1310.74 485.111C1309.64 484.784 1308.42 484.385 1307.11 483.908C1303.37 482.547 1299.63 480.836 1296.12 478.738C1291.23 475.823 1287.19 472.388 1284.27 468.36C1283.3 467.018 1283.6 465.142 1284.94 464.171C1286.28 463.199 1288.16 463.499 1289.13 464.841C1291.52 468.138 1294.96 471.059 1299.19 473.587C1302.35 475.473 1305.75 477.03 1309.16 478.27C1310.18 478.642 1311.14 478.961 1312.01 479.229L1312.8 479.465C1313.14 479.561 1313.39 479.629 1313.55 479.67L1313.72 479.716C1338.44 486.785 1360.47 483.928 1380.11 472.644C1396.48 463.243 1410.71 448.28 1422.87 429.26C1430.55 417.254 1436.94 404.37 1442.09 391.485C1443.77 387.277 1445.21 383.351 1446.4 379.797L1446.66 379.041C1446.98 378.06 1447.27 377.163 1447.52 376.356L1447.91 375.094L1448.11 374.391C1448.56 372.796 1450.21 371.865 1451.81 372.312Z" fill="#225696"/>
<path fill-rule="evenodd" clip-rule="evenodd" d="M1370.32 303.217C1371.86 303.835 1372.6 305.582 1371.98 307.119L1370.82 309.987C1369.89 312.263 1368.85 314.798 1367.71 317.529L1366.08 321.427C1363.35 327.917 1360.57 334.348 1357.87 340.421L1356.74 342.928C1356.37 343.752 1356 344.565 1355.64 345.365L1355.09 346.556C1353.05 351.017 1351.14 355.035 1349.39 358.536C1349.1 359.109 1348.81 359.679 1348.53 360.247C1344.3 368.555 1339.77 376.119 1335.24 382.798C1333.65 385.141 1332.17 387.208 1330.84 388.981L1330.17 389.857L1329.39 390.864C1329.27 391.014 1329.18 391.124 1329.13 391.195C1328.08 392.48 1326.19 392.673 1324.91 391.626C1323.67 390.62 1323.44 388.834 1324.36 387.557L1324.47 387.406C1324.54 387.329 1324.67 387.164 1324.87 386.911L1325.41 386.206C1325.61 385.951 1325.82 385.676 1326.04 385.38L1326.75 384.425C1327.83 382.949 1329.01 381.28 1330.27 379.428C1334.67 372.948 1339.07 365.598 1343.18 357.526L1343.6 356.696L1344.02 355.859C1345.74 352.417 1347.62 348.459 1349.64 344.055L1350.72 341.678C1351.27 340.471 1351.82 339.237 1352.39 337.977C1355.34 331.343 1358.38 324.27 1361.36 317.161L1363.16 312.831C1363.7 311.534 1364.21 310.29 1364.7 309.108L1366.42 304.882C1367.03 303.344 1368.78 302.599 1370.32 303.217Z" fill="#225696"/>
<path fill-rule="evenodd" clip-rule="evenodd" d="M1349.7 139.4L1348.2 186.8C1348.4 193.1 1345.6 199.1 1340.8 203.2C1331.6 210.8 1314.8 225.9 1293.7 249.8C1293.7 249.8 1267.3 221.7 1262.9 177.9L1349.7 139.4Z" fill="white"/>
<path fill-rule="evenodd" clip-rule="evenodd" d="M1348.48 136.658L1261.68 175.158C1260.5 175.683 1259.79 176.91 1259.92 178.2C1261.73 196.263 1267.26 213.007 1275.34 228.145C1278.86 234.72 1282.62 240.553 1286.39 245.581C1287.58 247.172 1288.7 248.581 1289.72 249.803L1290.38 250.583C1290.9 251.181 1291.28 251.606 1291.51 251.854C1292.72 253.142 1294.78 253.111 1295.95 251.786C1313.59 231.805 1329.61 216.335 1342.71 205.513L1343.05 205.219C1348.3 200.568 1351.29 193.993 1351.21 187.143L1351.2 186.814L1352.7 139.495C1352.77 137.285 1350.5 135.761 1348.48 136.658ZM1346.55 144.079L1345.2 186.705L1345.2 186.895C1345.37 192.203 1343.02 197.355 1338.85 200.919L1338.22 201.446C1326.1 211.523 1311.58 225.446 1295.67 243.087L1293.74 245.24L1293.67 245.163C1292.9 244.212 1292.07 243.151 1291.19 241.982C1287.6 237.189 1284 231.612 1280.64 225.318L1280.18 224.448C1273.15 211.067 1268.22 196.404 1266.23 180.688L1266.12 179.753L1346.55 144.079Z" fill="#225696"/>
<path fill-rule="evenodd" clip-rule="evenodd" d="M1356.1 115C1356.1 115 1377 115.5 1373.2 134.2C1369.4 152.9 1346.3 142 1346.3 142L1349.5 115.4L1356.1 115Z" fill="white"/>
<path fill-rule="evenodd" clip-rule="evenodd" d="M1356.19 112.001C1356.1 111.999 1356.01 112 1355.92 112.005L1349.32 112.405C1347.87 112.493 1346.69 113.603 1346.52 115.042L1343.32 141.642C1343.17 142.924 1343.85 144.162 1345.02 144.713L1345.41 144.89C1346.38 145.323 1347.82 145.884 1349.6 146.442C1353.12 147.544 1356.66 148.195 1360.05 148.157C1368.3 148.062 1374.3 143.829 1376.14 134.797C1378.05 125.416 1374.66 118.815 1367.79 115.099C1365.45 113.835 1362.87 112.997 1360.22 112.488C1359.27 112.307 1358.37 112.18 1357.54 112.096L1357.09 112.056C1356.95 112.044 1356.82 112.034 1356.7 112.026L1356.19 112.001ZM1352.18 118.243L1356.14 118.003L1356.37 118.016C1357.03 118.058 1357.98 118.168 1359.09 118.381C1361.19 118.782 1363.19 119.436 1364.93 120.377C1369.56 122.877 1371.62 126.902 1370.26 133.603C1369.03 139.658 1365.58 142.093 1359.98 142.157C1357.31 142.188 1354.36 141.645 1351.39 140.716L1350.89 140.554C1350.55 140.445 1350.23 140.334 1349.92 140.222L1349.55 140.088L1352.18 118.243Z" fill="#225696"/>
<path fill-rule="evenodd" clip-rule="evenodd" d="M1296.7 55.6001C1291.2 55.1001 1253.4 52.6001 1249.1 84.1001C1244.8 115.6 1249.1 150.5 1252.6 166.4C1256 182.3 1328.5 175.3 1332.6 173.9C1336.7 172.5 1341.6 167.7 1341.6 167.7L1351.7 119.3C1351.7 119.3 1356 60.8001 1296.7 55.6001Z" fill="white"/>
<path fill-rule="evenodd" clip-rule="evenodd" d="M1287.42 52.4154C1281.96 52.6488 1276.6 53.4506 1271.58 54.9802C1257.55 59.2492 1248.2 68.4979 1246.13 83.6944C1242.44 110.705 1244.68 144.384 1249.67 167.045C1251.62 176.173 1266.83 179.489 1291.58 179.634L1293.31 179.639C1309.38 179.621 1330.13 177.913 1333.57 176.739C1334.28 176.497 1335 176.18 1335.74 175.793C1336.96 175.159 1338.22 174.347 1339.49 173.398C1340.54 172.623 1341.54 171.799 1342.47 170.974L1343.14 170.376C1343.37 170.157 1343.56 169.976 1343.7 169.843C1344.12 169.427 1344.42 168.895 1344.54 168.313L1354.64 119.913C1354.66 119.783 1354.68 119.652 1354.69 119.52L1354.72 118.958L1354.73 118.761C1354.75 118.186 1354.77 117.523 1354.77 116.78C1354.77 114.676 1354.67 112.33 1354.43 109.797C1353.75 102.56 1352.11 95.2343 1349.21 88.2505C1340.95 68.3573 1324.39 55.2517 1297.77 52.6861L1296.96 52.6116C1294.3 52.3694 1291.1 52.2579 1287.42 52.4154ZM1296.43 58.5878C1321.23 60.7626 1336.16 72.4564 1343.67 90.5498C1346.31 96.9316 1347.83 103.682 1348.46 110.359C1348.65 112.436 1348.75 114.371 1348.77 116.124L1348.77 116.773C1348.77 117.438 1348.76 118.024 1348.74 118.523L1348.72 118.902L1338.86 166.156L1338.49 166.482C1337.68 167.199 1336.81 167.917 1335.92 168.581C1334.88 169.354 1333.88 169.999 1332.97 170.471C1332.48 170.726 1332.03 170.924 1331.63 171.061C1328.99 171.964 1308.31 173.654 1292.82 173.639L1292.35 173.638C1270.78 173.567 1256.55 170.547 1255.53 165.773C1250.68 143.741 1248.49 110.758 1252.07 84.5059C1253.8 71.8538 1261.38 64.3559 1273.32 60.7201C1277.82 59.3517 1282.69 58.6231 1287.68 58.4099C1291.07 58.2649 1294 58.3673 1296.43 58.5878Z" fill="#225696"/>
<path fill-rule="evenodd" clip-rule="evenodd" d="M1344.7 118.9C1341.1 122.4 1331.6 142.4 1329.2 151.7C1329.2 151.7 1305.7 143.7 1272 143.1C1272 143.1 1253.6 143.4 1246.3 145.5C1246.3 145.5 1247.7 178.6 1262.6 195.8C1277.4 213 1308.9 208.3 1323.7 198.1C1338.5 187.9 1341 183 1344.4 171.9C1347.9 160.9 1357.1 119.8 1357.1 119.8L1344.7 118.9Z" fill="#439BD7"/>
<path fill-rule="evenodd" clip-rule="evenodd" d="M1354.3 126C1354.3 126 1364.2 110.8 1368.1 95.0002C1371.7 80.1002 1364.9 64.5002 1351.1 57.8002C1339.6 52.2002 1331 56.5002 1331 56.5002C1331 56.5002 1343.3 35.7002 1325 17.2002C1318.6 10.7002 1309.6 7.10017 1300.5 7.30017C1278.1 7.90017 1271.1 26.8002 1271.1 26.8002C1271.1 26.8002 1247.3 -17.3998 1198 8.50017C1193 11.1002 1187.4 18.4002 1184.7 23.4002C1168.3 53.3002 1221.7 89.0002 1249.6 91.9002C1280.2 95.1002 1298.2 90.1002 1308 82.7002C1300.6 87.0002 1308.7 132.9 1354.3 126Z" fill="#225696"/>
<path fill-rule="evenodd" clip-rule="evenodd" d="M1291.05 164.265C1292.02 162.384 1294.3 161.573 1296.25 162.456C1298.26 163.368 1299.16 165.738 1298.24 167.75L1298.09 168.063C1297.92 168.407 1297.68 168.839 1297.37 169.336C1296.71 170.405 1295.91 171.468 1294.95 172.471C1290.55 177.072 1284.48 178.832 1277.37 175.897C1275.33 175.054 1274.36 172.716 1275.2 170.674C1276.05 168.632 1278.38 167.66 1280.43 168.503C1284.25 170.08 1286.91 169.309 1289.17 166.942C1289.72 166.367 1290.19 165.74 1290.58 165.118L1290.76 164.817L1290.96 164.45L1291.05 164.265Z" fill="#225696"/>
<path fill-rule="evenodd" clip-rule="evenodd" d="M1268.31 129.449C1268.84 127.303 1271.01 125.99 1273.15 126.515C1275.23 127.024 1276.53 129.073 1276.13 131.151L1276.09 131.352L1271.08 151.785L1279.3 152.621C1281.44 152.837 1283.01 154.689 1282.89 156.805L1282.88 157.005C1282.66 159.136 1280.81 160.706 1278.7 160.595L1278.5 160.58L1265.7 159.28C1263.35 159.041 1261.73 156.836 1262.17 154.545L1262.21 154.349L1268.31 129.449Z" fill="#225696"/>
<path fill-rule="evenodd" clip-rule="evenodd" d="M1262.76 126.554C1262.77 124.014 1261.44 121.948 1259.78 121.941C1258.12 121.934 1256.77 123.988 1256.76 126.528C1256.75 129.069 1258.09 131.134 1259.74 131.141C1261.4 131.148 1262.75 129.095 1262.76 126.554Z" fill="#225696"/>
<path fill-rule="evenodd" clip-rule="evenodd" d="M1291.19 126.222C1291.2 123.682 1289.87 121.616 1288.21 121.609C1286.55 121.602 1285.2 123.656 1285.19 126.196C1285.18 128.737 1286.51 130.802 1288.17 130.809C1289.83 130.816 1291.18 128.763 1291.19 126.222Z" fill="#225696"/>
<path fill-rule="evenodd" clip-rule="evenodd" d="M1289.53 100.341C1294.59 99.6189 1298.98 100.935 1302.55 103.545C1303.55 104.281 1304.42 105.07 1305.16 105.869L1305.49 106.234C1305.79 106.583 1306.02 106.881 1306.18 107.11C1307.44 108.921 1307 111.415 1305.19 112.68C1303.44 113.904 1301.05 113.529 1299.75 111.862L1299.58 111.642C1299.53 111.577 1299.43 111.455 1299.28 111.29C1298.88 110.858 1298.39 110.417 1297.83 110.003C1295.93 108.617 1293.7 107.914 1291.02 108.215L1290.67 108.26C1288.48 108.573 1286.45 107.053 1286.14 104.866C1285.83 102.679 1287.35 100.653 1289.53 100.341Z" fill="#225696"/>
<path fill-rule="evenodd" clip-rule="evenodd" d="M1256.68 99.7329C1258.74 99.2377 1260.82 99.2601 1262.79 99.5788L1263.22 99.6549C1263.56 99.7186 1263.83 99.782 1264.04 99.8367C1266.17 100.409 1267.44 102.603 1266.86 104.737C1266.31 106.804 1264.23 108.056 1262.16 107.612L1261.85 107.538C1261.77 107.522 1261.65 107.5 1261.5 107.476C1260.5 107.312 1259.42 107.301 1258.54 107.513C1257.52 107.756 1256.94 108.21 1256.58 109.204L1256.52 109.396C1255.86 111.504 1253.61 112.678 1251.5 112.017C1249.4 111.356 1248.22 109.112 1248.88 107.004C1250.13 103.026 1253 100.614 1256.68 99.7329Z" fill="#225696"/>
<path fill-rule="evenodd" clip-rule="evenodd" d="M1286 204.7L1139.9 204.1C1125.9 204 1114.5 215.4 1114.4 229.4L1114.3 263.8C1079.4 263.6 1051 291.8 1050.9 326.7C1050.7 361.6 1078.9 390 1113.8 390.1L1113.7 412.9C1113.6 426.9 1125 438.3 1139 438.4L1285.1 439C1299.1 439.1 1310.5 427.7 1310.6 413.7L1311.4 230.2C1311.3 216.2 1300 204.8 1286 204.7Z" fill="#E0E0E0"/>
<path fill-rule="evenodd" clip-rule="evenodd" d="M1103.3 425.7C1103.4 425.3 1125.4 399.6 1126.1 400.2C1126.8 400.8 1156.9 414.2 1157.6 415.3C1158.3 416.3 1159.4 422.4 1156.4 428C1153.4 433.6 1150 446.5 1136.4 447.5C1122.8 448.5 1103.3 425.7 1103.3 425.7Z" fill="white"/>
<path fill-rule="evenodd" clip-rule="evenodd" d="M1143.4 406.1C1143.4 406.1 1146 388.4 1141.9 384.2C1137.8 380 1114.9 419.2 1107 421.9" fill="white"/>
<path fill-rule="evenodd" clip-rule="evenodd" d="M1137.53 382.246C1139.81 380.626 1142.14 380.151 1144.05 382.105C1146.38 384.49 1147.19 388.744 1147.21 394.694C1147.22 397.331 1147.06 400.131 1146.79 402.923L1146.68 404.018C1146.66 404.195 1146.64 404.368 1146.62 404.539L1146.43 406.06C1146.41 406.266 1146.38 406.426 1146.37 406.536C1146.13 408.175 1144.6 409.309 1142.96 409.068C1141.32 408.827 1140.19 407.303 1140.43 405.664L1140.51 405.113L1140.55 404.774C1140.64 404.042 1140.73 403.224 1140.82 402.341C1141.07 399.736 1141.22 397.129 1141.21 394.72C1141.2 391.765 1140.92 389.362 1140.49 387.845L1140.42 387.605L1140.33 387.674C1139.59 388.313 1138.68 389.244 1137.6 390.451L1136.7 391.483C1134.84 393.65 1133.09 395.878 1129.27 400.942L1124.48 407.308C1115.65 418.98 1111.65 423.48 1107.97 424.739C1106.4 425.275 1104.7 424.438 1104.16 422.87C1103.64 421.359 1104.4 419.719 1105.86 419.123L1106.03 419.061C1108.01 418.386 1112.26 413.515 1120 403.285L1124.23 397.669C1128.51 391.988 1130.31 389.699 1132.43 387.255L1132.82 386.803C1134.66 384.707 1136.19 383.203 1137.53 382.246Z" fill="#225696"/>
<path fill-rule="evenodd" clip-rule="evenodd" d="M1155.6 409.2C1155.6 409.2 1161.1 396.3 1153.8 390.1C1146.6 383.9 1128.7 419.2 1120.9 423.7" fill="white"/>
<path fill-rule="evenodd" clip-rule="evenodd" d="M1144.45 390.109C1148.6 386.312 1152.47 384.992 1155.74 387.813C1158.69 390.316 1160.19 393.764 1160.52 397.782C1160.76 400.805 1160.34 403.948 1159.49 407.035C1159.07 408.524 1158.66 409.679 1158.36 410.377C1157.71 411.901 1155.95 412.61 1154.42 411.96C1152.95 411.333 1152.24 409.672 1152.78 408.188L1152.99 407.631C1153.02 407.555 1153.05 407.469 1153.09 407.374C1153.3 406.799 1153.51 406.147 1153.7 405.438C1154.38 402.972 1154.72 400.491 1154.54 398.266C1154.34 395.841 1153.55 393.94 1152.06 392.566L1151.82 392.357C1151.8 392.345 1151.76 392.367 1151.5 392.453C1150.78 392.701 1149.74 393.398 1148.5 394.536C1146.18 396.66 1143.45 399.959 1139.8 404.922L1138.38 406.868L1133.34 413.878C1126.74 423.001 1125.21 424.675 1122.4 426.299C1120.96 427.127 1119.13 426.634 1118.3 425.199C1117.47 423.764 1117.97 421.929 1119.4 421.101L1119.54 421.016C1121.41 419.88 1123.33 417.517 1130.08 408.136L1132.94 404.156C1133.34 403.6 1133.72 403.084 1134.07 402.591L1134.6 401.865C1138.66 396.326 1141.68 392.646 1144.45 390.109Z" fill="#225696"/>
<path fill-rule="evenodd" clip-rule="evenodd" d="M1158.9 424C1158.9 424 1168.1 400.9 1161.7 396C1155.3 391.1 1144.8 421.1 1132.3 428" fill="white"/>
<path fill-rule="evenodd" clip-rule="evenodd" d="M1157.06 393.349C1159.23 392.124 1161.56 392.117 1163.52 393.618C1167.31 396.517 1167.69 402.21 1166.14 410.124C1165.68 412.455 1165.06 414.91 1164.31 417.428C1163.82 419.069 1163.3 420.657 1162.78 422.151L1162.52 422.891C1162.34 423.37 1162.18 423.811 1162.03 424.211L1161.69 425.11C1161.07 426.649 1159.33 427.4 1157.79 426.787C1156.25 426.174 1155.5 424.429 1156.11 422.89L1156.31 422.371L1156.63 421.514C1156.71 421.308 1156.79 421.093 1156.87 420.868C1157.44 419.259 1158.02 417.519 1158.56 415.715C1159.26 413.37 1159.83 411.096 1160.25 408.97L1160.4 408.162C1161.28 403.262 1161.09 399.806 1160.11 398.616L1160.06 398.55L1160.02 398.572C1159.38 398.931 1158.5 399.77 1157.43 401.08L1157.21 401.349L1156.84 401.823C1155.96 402.964 1154.98 404.36 1153.77 406.19L1152.77 407.713C1151.7 409.366 1149.42 412.917 1148.66 414.074L1147.96 415.134C1142.52 423.295 1138.42 428.05 1133.75 430.626C1132.3 431.427 1130.47 430.9 1129.67 429.45C1128.87 427.999 1129.4 426.174 1130.85 425.374C1134.41 423.41 1138.07 419.151 1142.99 411.762L1144.09 410.103C1145.28 408.264 1147.68 404.534 1148.21 403.717L1148.81 402.808C1150.26 400.612 1151.42 398.979 1152.52 397.601C1154.13 395.59 1155.58 394.19 1157.06 393.349Z" fill="#225696"/>
<path fill-rule="evenodd" clip-rule="evenodd" d="M1108.7 421.1C1107.7 416.1 1108.2 410.9 1110.2 406.3C1112.5 400.9 1115.2 393.7 1115.4 389C1115.8 380.9 1102.6 384.7 1102 389.7C1101.4 394.7 1098.9 394.4 1093.1 399.6C1087.3 404.7 1088.4 425.1 1088.4 425.1C1088.4 425.1 1083.3 435.6 1099.7 448.1C1116.1 460.6 1133.7 450.9 1133.7 450.9C1133.7 450.9 1165.5 439.2 1165.5 416.3C1165.5 393.4 1157.1 426.8 1141.2 436.2" fill="white"/>
<path fill-rule="evenodd" clip-rule="evenodd" d="M1108.57 381.48C1114.11 380.543 1118.69 383.253 1118.4 389.128C1118.22 393.39 1116.39 399.244 1113.46 406.279L1112.95 407.496C1111.21 411.498 1110.75 416.072 1111.64 420.512C1111.97 422.136 1110.91 423.717 1109.29 424.042C1107.66 424.367 1106.08 423.313 1105.76 421.688C1104.67 416.243 1105.18 410.617 1107.23 405.622L1107.88 404.072C1110.57 397.636 1112.26 392.232 1112.4 388.852C1112.47 387.443 1111.77 387.025 1109.58 387.396C1107.18 387.8 1105.07 389.299 1104.98 390.058C1104.63 392.981 1103.67 394.869 1101.76 396.582L1101.53 396.787C1101.32 396.963 1096.91 400.209 1095.08 401.853C1093.6 403.154 1092.4 406.896 1091.8 412.124C1091.37 415.75 1091.26 419.603 1091.33 423.082L1091.36 423.944C1091.37 424.429 1091.39 424.768 1091.4 424.939C1091.42 425.374 1091.35 425.808 1091.19 426.212L1091.1 426.411C1091.09 426.435 1091.02 426.624 1090.93 426.962C1090.47 428.695 1090.5 430.893 1091.42 433.484C1092.81 437.391 1096 441.51 1101.52 445.714C1102.46 446.43 1103.41 447.075 1104.38 447.652C1112.19 452.294 1120.55 452.43 1128.41 449.844C1129.34 449.537 1130.19 449.212 1130.95 448.887L1131.31 448.725C1131.74 448.534 1132.04 448.388 1132.19 448.305L1132.25 448.273C1132.34 448.224 1132.43 448.18 1132.52 448.14L1132.96 447.97C1133.16 447.891 1133.39 447.799 1133.65 447.695L1133.91 447.586C1134.94 447.152 1136.1 446.629 1137.35 446.018C1140.93 444.272 1144.51 442.182 1147.83 439.762C1157.07 433.036 1162.5 425.178 1162.5 416.3L1162.5 415.833L1162.49 414.805L1160.71 417.617C1158.96 420.402 1157.1 423.381 1156.12 424.848L1155.9 425.178C1151.58 431.485 1147.4 436.02 1142.73 438.783C1141.3 439.626 1139.46 439.153 1138.62 437.727C1137.77 436.301 1138.25 434.461 1139.67 433.618C1143.43 431.397 1147.08 427.436 1150.95 421.79L1151.14 421.5C1152.94 418.795 1158.88 409.048 1160.17 407.555C1161.06 406.523 1161.9 405.847 1163.01 405.554C1164.89 405.053 1166.55 406 1167.39 407.635C1168.22 409.228 1168.5 411.84 1168.5 416.3C1168.5 427.459 1162 436.87 1151.37 444.613C1147.73 447.257 1143.86 449.52 1139.98 451.41C1138.63 452.073 1137.36 452.642 1136.23 453.119L1135.41 453.453L1134.95 453.635L1134.78 453.724L1134.35 453.937C1133.44 454.375 1132.2 454.895 1130.67 455.414L1130.28 455.544C1120.92 458.624 1110.82 458.461 1101.32 452.809C1100.15 452.115 1099 451.341 1097.88 450.486C1091.48 445.608 1087.57 440.558 1085.77 435.489C1084.43 431.706 1084.37 428.285 1085.12 425.434C1085.2 425.16 1085.27 424.912 1085.34 424.688L1085.38 424.596L1085.36 424.128C1085.24 420.163 1085.34 415.699 1085.84 411.431C1086.59 404.965 1088.08 400.199 1090.87 397.57L1091.1 397.366C1093.18 395.498 1097.67 392.197 1097.63 392.23C1098.55 391.444 1098.83 390.898 1099.02 389.343C1099.5 385.37 1103.86 382.277 1108.57 381.48Z" fill="#225696"/>
<path fill-rule="evenodd" clip-rule="evenodd" d="M1308.5 428.6C1308.4 428.2 1286.4 402.5 1285.7 403.1C1285 403.7 1254.9 417.1 1254.2 418.2C1253.5 419.2 1252.4 425.3 1255.4 430.9C1258.4 436.5 1261.8 449.4 1275.4 450.4C1289 451.4 1308.5 428.6 1308.5 428.6Z" fill="white"/>
<path fill-rule="evenodd" clip-rule="evenodd" d="M1268.4 409C1268.4 409 1265.8 391.3 1269.9 387.1C1274 382.9 1296.9 422.1 1304.8 424.8" fill="white"/>
<path fill-rule="evenodd" clip-rule="evenodd" d="M1267.75 385.004C1269.66 383.051 1271.99 383.526 1274.27 385.146C1275.53 386.047 1276.96 387.432 1278.66 389.34L1279.37 390.155C1281.41 392.499 1283.14 394.701 1287.06 399.89L1291.8 406.185C1299.43 416.266 1303.67 421.144 1305.68 421.929L1305.77 421.961C1307.34 422.497 1308.17 424.202 1307.64 425.77C1307.1 427.338 1305.4 428.175 1303.83 427.639L1303.56 427.54C1299.95 426.154 1295.93 421.592 1287.32 410.208L1280.89 401.674C1278.02 397.898 1276.52 396.02 1274.85 394.094L1274.47 393.659C1273.37 392.406 1272.42 391.427 1271.65 390.74L1271.38 390.505L1271.38 390.524C1270.93 391.961 1270.63 394.311 1270.59 397.235L1270.59 397.62C1270.58 400.029 1270.73 402.636 1270.98 405.241C1271.03 405.771 1271.08 406.277 1271.14 406.756L1271.29 408.013C1271.33 408.268 1271.35 408.455 1271.37 408.564C1271.61 410.203 1270.48 411.727 1268.84 411.968C1267.2 412.209 1265.67 411.075 1265.43 409.436L1265.3 408.422L1265.18 407.439C1265.12 406.927 1265.06 406.387 1265.01 405.823C1264.74 403.031 1264.58 400.231 1264.59 397.594C1264.61 391.644 1265.42 387.39 1267.75 385.004Z" fill="#225696"/>
<path fill-rule="evenodd" clip-rule="evenodd" d="M1256.2 412.1C1256.2 412.1 1250.7 399.2 1258 393C1265.2 386.8 1283.1 422.1 1290.9 426.6" fill="white"/>
<path fill-rule="evenodd" clip-rule="evenodd" d="M1256.04 390.727C1259.33 387.892 1263.2 389.212 1267.35 393.009C1269.95 395.388 1272.77 398.77 1276.45 403.748L1277.73 405.491C1278.08 405.984 1278.46 406.5 1278.86 407.056L1282.96 412.755C1288.88 420.933 1290.6 422.965 1292.4 424.001C1293.83 424.829 1294.33 426.664 1293.5 428.099C1292.67 429.534 1290.84 430.027 1289.4 429.199L1288.9 428.899C1286.15 427.202 1284.35 424.977 1276.65 414.275L1273.42 409.768C1273.04 409.255 1272.7 408.774 1272.35 408.307L1271.65 407.347C1268.17 402.647 1265.55 399.491 1263.3 397.436C1262.06 396.298 1261.02 395.601 1260.3 395.353L1260.03 395.264C1260 395.255 1259.99 395.255 1259.97 395.263L1259.94 395.287C1258.32 396.661 1257.47 398.626 1257.26 401.166C1257.08 403.391 1257.42 405.872 1258.1 408.338C1258.25 408.905 1258.42 409.436 1258.59 409.92L1258.81 410.531L1258.96 410.923C1259.61 412.448 1258.9 414.21 1257.38 414.86C1255.85 415.509 1254.09 414.801 1253.44 413.277C1253.14 412.579 1252.73 411.424 1252.31 409.935C1251.46 406.848 1251.03 403.705 1251.28 400.682C1251.6 396.664 1253.11 393.216 1256.04 390.727Z" fill="#225696"/>
<path fill-rule="evenodd" clip-rule="evenodd" d="M1253 427C1253 427 1243.8 403.9 1250.2 399C1256.6 394.1 1267.1 424.1 1279.6 431" fill="white"/>
<path fill-rule="evenodd" clip-rule="evenodd" d="M1248.38 396.618C1250.34 395.117 1252.67 395.124 1254.84 396.349C1256.32 397.19 1257.77 398.59 1259.38 400.601L1259.82 401.167C1260.87 402.521 1261.99 404.134 1263.38 406.254L1268.26 413.78L1268.91 414.762C1273.83 422.151 1277.49 426.41 1281.05 428.374C1282.5 429.174 1283.03 430.999 1282.23 432.45C1281.43 433.9 1279.6 434.427 1278.15 433.626C1273.38 430.995 1269.2 426.092 1263.59 417.609L1262.19 415.451C1260.91 413.484 1259.11 410.676 1258.67 410.001L1258.13 409.19C1256.75 407.098 1255.67 405.574 1254.69 404.349C1253.59 402.975 1252.68 402.073 1252.01 401.65L1251.84 401.55L1251.79 401.616C1250.79 402.839 1250.61 406.46 1251.57 411.583L1251.65 411.97C1252.07 414.096 1252.64 416.37 1253.34 418.715C1253.79 420.218 1254.27 421.677 1254.75 423.053L1255.03 423.868C1255.15 424.205 1255.27 424.521 1255.38 424.815L1255.79 425.89C1256.4 427.429 1255.65 429.174 1254.11 429.787C1252.57 430.4 1250.83 429.649 1250.21 428.11L1249.98 427.502C1249.83 427.124 1249.68 426.703 1249.51 426.243L1249.38 425.891C1248.77 424.185 1248.16 422.343 1247.59 420.428C1246.84 417.91 1246.22 415.455 1245.76 413.124C1244.21 405.21 1244.59 399.517 1248.38 396.618Z" fill="#225696"/>
<path fill-rule="evenodd" clip-rule="evenodd" d="M1303.2 424C1304.2 419 1303.7 413.8 1301.7 409.2C1299.4 403.8 1296.7 396.6 1296.5 391.9C1296.1 383.8 1309.3 387.6 1309.9 392.6C1310.5 397.6 1313 397.3 1318.8 402.5C1324.6 407.7 1323.5 428 1323.5 428C1323.5 428 1328.6 438.5 1312.2 451C1295.8 463.5 1278.2 453.8 1278.2 453.8C1278.2 453.8 1246.4 442.1 1246.4 419.2C1246.4 396.3 1254.8 429.7 1270.7 439.1" fill="white"/>
<path fill-rule="evenodd" clip-rule="evenodd" d="M1293.5 392.048C1293.21 386.153 1297.79 383.443 1303.33 384.38C1308.04 385.177 1312.4 388.27 1312.88 392.243C1313.05 393.711 1313.32 394.28 1314.13 395.001L1314.27 395.13C1314.23 395.097 1318.72 398.398 1320.8 400.266C1323.73 402.893 1325.28 407.719 1326.06 414.299C1326.52 418.274 1326.65 422.419 1326.56 426.174L1326.53 427.225L1326.52 427.497L1326.56 427.588C1326.6 427.737 1326.65 427.897 1326.7 428.069L1326.78 428.334C1327.53 431.185 1327.47 434.606 1326.13 438.388C1324.33 443.457 1320.42 448.508 1314.02 453.386C1312.9 454.241 1311.75 455.014 1310.58 455.709C1301.08 461.36 1290.98 461.524 1281.62 458.443C1279.64 457.795 1278.12 457.136 1277.12 456.624L1276.95 456.535L1276.3 456.28L1275.67 456.019C1274.54 455.542 1273.27 454.972 1271.92 454.31C1268.04 452.42 1264.17 450.157 1260.53 447.513C1249.9 439.77 1243.4 430.359 1243.4 419.2C1243.4 414.74 1243.68 412.128 1244.51 410.535C1245.35 408.9 1247.01 407.953 1248.89 408.454C1250 408.747 1250.84 409.423 1251.73 410.455C1253.07 412.007 1259.45 422.488 1260.95 424.69C1264.82 430.336 1268.47 434.297 1272.23 436.518C1273.65 437.361 1274.13 439.2 1273.28 440.627C1272.44 442.053 1270.6 442.526 1269.17 441.682C1264.65 439.006 1260.58 434.666 1256.41 428.664L1256 428.078C1254.93 426.509 1252.23 422.147 1250.07 418.742L1249.41 417.705L1249.41 417.854C1249.41 418.17 1249.4 418.502 1249.4 418.848L1249.4 419.2C1249.4 428.078 1254.83 435.936 1264.07 442.662C1267.39 445.082 1270.97 447.172 1274.55 448.918C1275.62 449.441 1276.62 449.9 1277.54 450.294L1277.99 450.486C1278.26 450.599 1278.51 450.699 1278.73 450.786L1279.24 450.985C1279.33 451.019 1279.42 451.059 1279.51 451.103L1279.88 451.291C1280.04 451.375 1280.28 451.488 1280.59 451.625C1281.43 452.003 1282.4 452.386 1283.49 452.744C1291.35 455.33 1299.71 455.194 1307.52 450.552C1308.49 449.975 1309.44 449.33 1310.38 448.614C1315.9 444.41 1319.09 440.29 1320.48 436.383C1321.4 433.792 1321.43 431.595 1320.97 429.862L1320.91 429.637C1320.85 429.44 1320.81 429.329 1320.8 429.311C1320.58 428.853 1320.48 428.346 1320.5 427.838L1320.53 427.183C1320.54 427.081 1320.54 426.969 1320.54 426.848C1320.66 423.144 1320.56 418.939 1320.1 414.999C1319.49 409.801 1318.29 406.07 1316.8 404.734L1316.5 404.472C1314.54 402.784 1310.57 399.854 1310.37 399.687C1308.3 397.918 1307.29 395.998 1306.92 392.957C1306.83 392.199 1304.72 390.7 1302.32 390.295C1300.13 389.925 1299.43 390.342 1299.5 391.772C1299.64 395.133 1301.33 400.535 1304.01 406.954L1304.45 408.004C1306.69 413.142 1307.27 418.961 1306.14 424.588C1305.82 426.213 1304.24 427.267 1302.61 426.942C1300.99 426.617 1299.93 425.036 1300.26 423.412C1301.11 419.131 1300.72 414.725 1299.12 410.809L1298.43 409.161C1295.51 402.144 1293.68 396.291 1293.5 392.048Z" fill="#225696"/>
<path fill-rule="evenodd" clip-rule="evenodd" d="M1660.3 498.8C1661.96 498.8 1663.3 500.143 1663.3 501.8C1663.3 503.398 1662.05 504.704 1660.48 504.795L1660.3 504.8H3.69995C2.0431 504.8 0.699951 503.457 0.699951 501.8C0.699951 500.203 1.94887 498.897 3.52368 498.805L3.69995 498.8H1660.3Z" fill="#225696"/>
</svg>
