<svg width="1663" height="505" viewBox="0 0 1663 505" fill="none" xmlns="http://www.w3.org/2000/svg">
<path fill-rule="evenodd" clip-rule="evenodd" d="M530.2 498.439C527.1 461.939 501.6 409.339 495.9 359.038C534.3 323.138 492.8 218.438 469.9 217.338C446.8 213.138 426.8 208.838 389.9 207.538C344.3 205.938 303.1 211.438 287.8 213.638C230.7 241.838 199.7 407.639 237.3 440.339C244.4 446.538 255.9 452.738 269.9 458.538C268.7 472.539 267.9 486.538 267.9 499.538L530.2 498.439Z" fill="#225696"/>
<path fill-rule="evenodd" clip-rule="evenodd" d="M350.986 182.813L344.441 212.844C343.151 220.659 361.403 239.193 378.544 247.677C388.766 252.737 398.214 254.252 405.959 251.202C415.044 247.624 420.867 238.159 422.972 222.745C423 222.546 423.007 222.344 422.994 222.144L420.438 194.613C420.362 193.437 419.603 192.415 418.5 192L408.5 199.5L389.5 200.5L368.5 194.613L355 180.5C353.232 179.836 351.297 180.95 350.986 182.813ZM356 187.5L385.5 202L415 199L416.986 222.224L417.028 221.933C413.625 246.845 400.684 251.941 381.206 242.3C373.441 238.457 365.339 232.384 358.941 225.887L358.354 225.284C353.248 219.976 350.147 215.117 350.36 213.827L356 187.5Z" fill="#DDDDDD"/>
<path fill-rule="evenodd" clip-rule="evenodd" d="M433.6 70.3383C433.6 70.3383 386.1 100.138 409 128.238C409 128.238 419.3 140.038 427.7 137.738C427.7 137.738 421.5 127.738 428.7 122.638C428.7 122.638 430.8 152.538 455.3 146.538C455.3 146.538 446.3 133.238 448.8 117.438C453.9 84.2383 446.3 64.3383 433.6 70.3383Z" fill="#DDDDDD"/>
<path fill-rule="evenodd" clip-rule="evenodd" d="M394.061 45.1189C390.391 45.2617 387.394 45.6068 384.516 46.0778C359.779 50.3123 344.391 62.9845 336.81 81.3529C332.15 92.6453 330.988 104.437 331.804 114.786L331.884 115.726L331.968 116.576C331.987 116.748 332.005 116.907 332.022 117.055L332.104 117.689L332.118 117.869L332.181 118.27L332.88 122.339C333.113 123.68 333.365 125.108 333.633 126.607L334.329 130.459C335.147 134.945 335.99 139.39 336.837 143.648L337.2 145.461C337.912 148.988 338.605 152.265 339.273 155.247L339.731 157.263C341.106 163.22 342.331 167.688 343.406 170.475L343.513 170.748C348.599 183.522 352.591 188.145 367.274 196.821C375.703 201.835 387.473 204.501 398.579 203.744C411.271 202.879 422.077 197.743 428.744 188.378C434.792 179.883 438.719 168.089 441.021 154.424C441.753 150.079 442.269 145.821 442.605 141.793L442.717 140.384C442.88 138.185 442.974 136.201 442.996 135.27L442.998 135.041C443.701 114.424 442.266 93 438.298 74.333L438.03 73.0926C434.703 58.0032 424.573 49.5004 410.16 46.3813C405 45.2648 399.566 44.9046 394.061 45.1189ZM408.891 52.2456C421.023 54.8711 429.191 61.6324 432.064 73.9152L432.17 74.3833C436.223 92.7964 437.704 114.228 437.002 134.836L436.993 135.313C436.967 136.198 436.872 138.129 436.71 140.243C436.391 144.418 435.871 148.878 435.104 153.428C432.94 166.277 429.273 177.29 423.856 184.899C418.327 192.665 409.191 197.007 398.171 197.758C388.258 198.433 377.702 196.042 370.334 191.66L369.372 191.089C356.629 183.473 353.568 179.782 349.087 168.529C348.066 165.964 346.773 161.203 345.306 154.726L344.766 152.302C344.22 149.812 343.657 147.127 343.082 144.274C341.989 138.862 340.898 133.094 339.852 127.292L339.029 122.67L338.094 117.254L338.084 117.129L337.998 116.484L337.932 115.914C337.9 115.61 337.867 115.279 337.836 114.921C336.994 105.291 338.02 94.148 342.356 83.6419C349.162 67.1516 362.859 55.8724 385.506 51.9955L386.568 51.8293C388.888 51.4831 391.356 51.2287 394.295 51.1143C399.329 50.9184 404.271 51.246 408.891 52.2456Z" fill="#DDDDDD"/>
<path fill-rule="evenodd" clip-rule="evenodd" d="M415.099 118.999C416.664 118.679 418.194 119.641 418.599 121.166L418.639 121.338L424.139 148.238C424.508 150.039 423.186 151.73 421.377 151.834L421.2 151.839H411.1C409.443 151.839 408.1 150.495 408.1 148.839C408.1 147.241 409.349 145.935 410.924 145.844L411.1 145.839H417.524L412.761 122.54C412.441 120.974 413.403 119.445 414.927 119.04L415.099 118.999Z" fill="#DDDDDD"/>
<path fill-rule="evenodd" clip-rule="evenodd" d="M402.603 120.434C403.102 117.943 402.19 115.66 400.566 115.334C398.941 115.009 397.219 116.764 396.72 119.255C396.22 121.746 397.132 124.029 398.757 124.355C400.381 124.681 402.103 122.925 402.603 120.434Z" fill="#DDDDDD"/>
<path fill-rule="evenodd" clip-rule="evenodd" d="M384.996 96.9585C388.29 94.4237 392.377 93.0973 397.15 93.6589C398.796 93.8525 399.973 95.3433 399.779 96.9888C399.586 98.6343 398.095 99.8114 396.449 99.6178C393.335 99.2514 390.775 100.082 388.656 101.714C388.028 102.197 387.491 102.714 387.05 103.224L386.847 103.467C386.817 103.505 386.788 103.542 386.76 103.578L386.62 103.766C385.721 105.158 383.863 105.557 382.472 104.658C381.08 103.759 380.681 101.902 381.58 100.51L381.742 100.271C381.928 100.009 382.183 99.6797 382.51 99.3014C383.204 98.4978 384.031 97.7014 384.996 96.9585Z" fill="#DDDDDD"/>
<path fill-rule="evenodd" clip-rule="evenodd" d="M381.4 73.9384C381.4 73.9384 403.7 152.138 351.7 160.138C351.7 160.138 321.4 165.538 314.5 154.838C314.5 154.838 336.4 143.138 333.7 130.638C333.7 130.638 309 157.738 287.5 138.238C287.5 138.238 323.3 132.238 320.2 100.038C317.9 76.8384 373.4 55.1384 381.4 73.9384Z" fill="#DDDDDD"/>
<path fill-rule="evenodd" clip-rule="evenodd" d="M286.3 84.9383L318 80.1383C321.3 58.8383 333.7 28.2383 377.4 23.2383C445.7 15.3383 447.8 81.7383 447.8 81.7383L289.5 105.338C283.9 106.238 278.6 102.338 277.7 96.6384C276.8 91.0384 280.7 85.8383 286.3 84.9383Z" fill="#439BD7"/>
<path fill-rule="evenodd" clip-rule="evenodd" d="M393.025 152.978C394.495 152.352 396.186 152.99 396.887 154.403L397.004 154.649L397.031 154.701C397.134 154.899 397.268 155.128 397.433 155.383C397.926 156.138 398.565 156.903 399.357 157.62C402.303 160.284 406.472 161.577 412.344 160.673C413.981 160.422 415.513 161.545 415.765 163.182C416.017 164.82 414.894 166.352 413.256 166.604C405.579 167.785 399.603 165.931 395.333 162.071C394.139 160.991 393.172 159.831 392.408 158.661C391.931 157.929 391.615 157.325 391.44 156.914C390.791 155.389 391.5 153.627 393.025 152.978Z" fill="#DDDDDD"/>
<path fill-rule="evenodd" clip-rule="evenodd" d="M548.9 278.338V244.038C548.9 230.038 537.6 218.738 523.6 218.738H513.7C513.7 253.438 485.6 281.638 450.8 281.638C416 281.638 387.9 253.538 387.9 218.738H378C364 218.738 352.7 230.038 352.7 244.038V426.738C352.7 440.738 364 452.038 378 452.038H523.5C537.5 452.038 548.8 440.738 548.8 426.738V404.038C583.5 404.038 611.7 375.938 611.7 341.138C611.8 306.438 583.6 278.338 548.9 278.338Z" fill="#404E6B"/>
<path fill-rule="evenodd" clip-rule="evenodd" d="M490.853 399.943C492.761 397.989 495.091 398.464 497.366 400.085C498.63 400.985 500.062 402.371 501.758 404.278L502.473 405.093C504.507 407.438 506.243 409.639 510.162 414.828L514.901 421.123C522.527 431.205 526.77 436.082 528.783 436.868L528.87 436.9C530.438 437.436 531.275 439.141 530.739 440.709C530.203 442.277 528.497 443.113 526.93 442.577L526.656 442.478C523.046 441.092 519.029 436.53 510.42 425.147L503.986 416.612C501.117 412.836 499.617 410.958 497.947 409.032L497.568 408.597C496.469 407.344 495.525 406.366 494.755 405.678L494.484 405.443L494.478 405.463C494.026 406.899 493.727 409.249 493.691 412.174L493.688 412.558C493.677 414.968 493.437 410.988 493.691 413.593C493.742 414.123 494.185 411.669 494.239 412.148L494.393 413.405C494.426 413.661 494.452 413.847 494.468 413.956C494.709 415.596 493.575 417.12 491.936 417.361C490.297 417.601 490.657 414.827 490.416 413.188L490.281 412.174L488.278 412.831C488.22 412.32 488.163 411.78 488.108 411.215C487.836 408.423 487.676 415.169 487.688 412.533C487.713 406.582 488.524 402.329 490.853 399.943Z" fill="#DDDDDD"/>
<path fill-rule="evenodd" clip-rule="evenodd" d="M479.143 405.665C482.434 402.831 486.301 404.15 490.451 407.947C493.05 410.326 495.867 413.709 499.548 418.686L500.825 420.429C501.184 420.923 501.557 421.438 501.957 421.994L506.057 427.694C511.975 435.871 513.703 437.904 515.499 438.94C516.934 439.768 517.427 441.603 516.599 443.038C515.771 444.473 513.936 444.965 512.501 444.137L511.999 443.838C509.252 442.14 507.448 439.916 499.753 429.213L496.515 424.706C496.145 424.194 495.795 423.713 495.454 423.246L494.747 422.285C491.272 417.586 488.647 414.43 486.4 412.374C485.157 411.237 484.124 410.54 483.396 410.291L483.133 410.202C483.101 410.193 483.086 410.194 483.072 410.201L483.042 410.225C481.424 411.599 480.566 413.564 480.36 416.105C480.18 418.33 479.482 411.557 480.163 414.023C480.32 414.59 480.485 415.121 480.651 415.605L480.871 416.216L481.025 416.609C481.674 418.133 480.966 419.895 479.441 420.545C477.917 421.195 479.15 418.133 478.5 416.609C478.203 415.911 474.791 417.109 474.38 415.62C474.135 418.643 473.527 412.533 474.38 415.62C474.705 411.603 476.211 408.154 479.143 405.665Z" fill="#DDDDDD"/>
<path fill-rule="evenodd" clip-rule="evenodd" d="M471.476 411.456C473.437 409.955 475.769 409.963 477.936 411.187C479.423 412.028 480.867 413.428 482.476 415.44L482.92 416.005C483.966 417.36 485.089 418.973 486.484 421.093L491.357 428.619L492.006 429.6C496.927 436.989 500.592 441.248 504.15 443.212C505.6 444.013 506.127 445.838 505.326 447.288C504.526 448.739 502.701 449.265 501.25 448.465C496.484 445.834 492.303 440.93 486.694 432.447L485.287 430.289C484.014 428.322 482.208 425.515 481.766 424.839L481.233 424.028C479.849 421.937 478.77 420.413 477.79 419.187C476.692 417.814 475.781 416.911 475.114 416.489L474.943 416.388L474.885 416.455C473.886 417.678 473.713 421.299 474.675 426.421L474.749 426.808C475.166 428.934 475.744 431.208 476.443 433.553C476.891 435.056 479.521 434.124 480 435.5L480.799 436.316C480.31 437.235 481.348 436.816 481.457 437.11L482.476 437.603C483.089 439.142 482.338 440.887 480.799 441.5C479.259 442.113 478.171 440.755 477.558 439.215L477 439C476.856 438.621 476.366 438.416 476.2 437.956L476.073 437.604C475.462 435.898 475.456 433.915 474.885 432C474.135 429.482 469.318 430.293 468.861 427.962C467.31 420.048 467.69 414.355 471.476 411.456Z" fill="#DDDDDD"/>
<path fill-rule="evenodd" clip-rule="evenodd" d="M516.604 406.886C516.313 400.992 520.891 398.282 526.425 399.218C531.14 400.015 535.502 403.108 535.979 407.081C536.155 408.55 536.423 409.118 537.225 409.839L537.373 409.968C537.335 409.935 541.818 413.236 543.903 415.105C546.833 417.732 548.382 422.558 549.156 429.137C549.624 433.113 549.746 437.258 549.663 441.012L549.634 442.063L549.624 442.335L549.655 442.427C549.705 442.575 549.754 442.736 549.803 442.907L549.876 443.173C550.627 446.023 550.573 449.444 549.232 453.227C547.435 458.296 543.519 463.346 537.119 468.224C535.997 469.079 534.851 469.853 533.683 470.548C524.178 476.199 514.08 476.363 504.716 473.282C502.745 472.633 501.219 471.975 500.222 471.463L500.052 471.373L499.404 471.118L498.773 470.857C497.636 470.38 496.373 469.811 495.016 469.149C491.141 467.258 487.266 464.995 483.634 462.351C472.999 454.609 466.5 445.198 466.5 434.038C466.5 429.578 466.78 426.966 467.606 425.373C468.453 423.738 470.105 422.791 471.994 423.292C473.102 423.586 473.941 424.261 474.831 425.293C476.169 426.846 482.547 437.327 484.054 439.528C487.916 445.174 491.57 449.135 495.327 451.356C496.753 452.199 497.226 454.039 496.382 455.465C495.539 456.891 493.7 457.364 492.273 456.521C487.746 453.845 483.678 449.505 479.505 443.502L479.101 442.916C478.028 441.347 475.328 436.986 473.173 433.581L472.514 432.543L472.512 432.692C472.506 433.008 472.502 433.34 472.501 433.687L472.5 434.038C472.5 442.917 477.926 450.774 487.166 457.5C490.49 459.921 494.068 462.01 497.647 463.756C498.719 464.28 499.725 464.739 500.642 465.133L501.094 465.324C501.363 465.437 501.607 465.537 501.827 465.625L502.336 465.823C502.431 465.858 502.523 465.897 502.614 465.941L502.976 466.129C503.145 466.213 503.382 466.327 503.685 466.463C504.527 466.842 505.502 467.224 506.591 467.582C514.451 470.168 522.808 470.033 530.617 465.39C531.587 464.813 532.543 464.168 533.481 463.452C538.998 459.248 542.192 455.129 543.577 451.222C544.496 448.631 544.53 446.433 544.074 444.7L544.011 444.475C543.953 444.278 543.91 444.167 543.901 444.149C543.679 443.691 543.577 443.184 543.604 442.676L543.632 442.021C543.636 441.919 543.639 441.807 543.643 441.687C543.757 437.982 543.66 433.777 543.197 429.838C542.586 424.64 541.388 420.908 539.897 419.572L539.599 419.31C537.644 417.623 533.665 414.692 533.47 414.526C531.404 412.756 530.386 410.837 530.021 407.796C529.93 407.037 527.816 405.538 525.425 405.134C523.233 404.763 522.527 405.181 522.597 406.611C522.74 409.972 524.434 415.374 527.109 421.793L527.551 422.842C529.785 427.98 530.367 433.8 529.242 439.427C528.917 441.051 527.336 442.105 525.712 441.78C524.087 441.455 523.033 439.875 523.358 438.25C524.214 433.969 523.82 429.563 522.222 425.647L521.528 424C518.607 416.982 516.784 411.129 516.604 406.886Z" fill="#DDDDDD"/>
<path fill-rule="evenodd" clip-rule="evenodd" d="M388.634 400.085C390.909 398.464 393.239 397.989 395.147 399.943C397.476 402.329 398.287 406.582 398.312 412.533C398.324 415.169 398.164 410.349 397.892 413.14L398.485 411.463C398.466 411.64 398.446 411.814 398.427 411.984L398.239 413.505C398.212 413.711 398.111 413.499 398 413.5C395.827 413.519 396.409 416.754 394.769 416.514C393.13 416.273 391.996 414.749 392.237 413.109L392.312 412.558L392.356 412.219C392.448 411.488 391.834 413.442 391.921 412.558C392.174 409.953 392.323 414.968 392.312 412.558C392.3 409.603 392.022 407.201 391.588 405.683L391.515 405.443L391.434 405.513C390.693 406.152 389.776 407.083 388.704 408.29L387.803 409.321C385.939 411.488 384.194 413.717 380.373 418.78L375.58 425.147C366.752 436.819 362.753 441.319 359.07 442.577C357.502 443.113 355.797 442.277 355.261 440.709C354.744 439.197 355.504 437.557 356.965 436.962L357.13 436.9C359.106 436.224 363.361 431.353 371.099 421.123L375.326 415.507C379.609 409.827 381.406 407.537 383.527 405.093L383.921 404.642C385.758 402.546 387.291 401.041 388.634 400.085Z" fill="#DDDDDD"/>
<path fill-rule="evenodd" clip-rule="evenodd" d="M395.549 407.947C399.699 404.15 403.566 402.831 406.842 405.652C409.788 408.154 411.295 411.602 411.62 415.62C412.473 412.533 411.865 418.643 411.62 415.62C411.349 416.104 409.297 416.802 409 417.5C408.35 419.024 407.164 420.436 405.64 419.787C404.17 419.16 404.377 418.257 404.911 416.773L405.129 416.216C405.158 416.14 405.189 416.054 405.223 415.959C405.431 415.384 405.641 414.732 405.837 414.023C406.518 411.557 405.82 418.329 405.64 416.104C405.443 413.68 404.652 411.779 403.16 410.404L402.921 410.195C402.896 410.184 402.856 410.205 402.604 410.291C401.875 410.54 400.843 411.236 399.599 412.374C397.278 414.498 394.552 417.797 390.902 422.76L389.484 424.706L384.442 431.717C377.842 440.839 376.313 442.513 373.499 444.137C372.064 444.965 370.229 444.473 369.401 443.038C368.573 441.602 369.065 439.768 370.501 438.94L370.644 438.855C372.511 437.718 374.428 435.355 381.184 425.975L384.043 421.994C384.443 421.438 384.816 420.923 385.174 420.429L385.704 419.703C389.756 414.164 392.776 410.485 395.549 407.947Z" fill="#DDDDDD"/>
<path fill-rule="evenodd" clip-rule="evenodd" d="M408.064 411.187C410.231 409.963 412.563 409.955 414.524 411.456C418.31 414.355 418.69 420.048 417.139 427.962C416.682 430.293 413.25 429.982 412.5 432.5C412.011 434.141 409.212 434.766 408.689 436.261L408.427 437C408.256 437.479 408.094 437.92 407.944 438.32L407.599 439.219C406.986 440.759 407.803 442.532 406.264 441.919C404.724 441.306 403.973 439.561 404.586 438.022L404.787 437.503L405.107 436.646C405.182 436.44 405.26 436.225 405.34 436C405.917 434.391 409.02 435.357 409.557 433.553C410.256 431.208 410.834 428.934 411.251 426.808L411.402 426.001C412.277 421.101 412.086 417.644 411.115 416.455L411.056 416.388L411.017 416.411C410.382 416.769 409.5 417.608 408.427 418.919L408.21 419.187L407.837 419.661C406.955 420.803 405.978 422.198 404.767 424.028L403.772 425.552C402.703 427.204 400.418 430.755 399.658 431.912L398.957 432.973C393.522 441.134 389.416 445.889 384.75 448.465C383.299 449.265 381.474 448.739 380.673 447.288C379.873 445.838 380.4 444.013 381.85 443.212C385.408 441.248 389.073 436.989 393.994 429.6L395.085 427.941C396.28 426.102 398.677 422.373 399.212 421.555L399.81 420.646C401.265 418.451 402.422 416.817 403.524 415.44C405.133 413.428 406.577 412.028 408.064 411.187Z" fill="#DDDDDD"/>
<path fill-rule="evenodd" clip-rule="evenodd" d="M359.674 399.218C365.209 398.282 369.787 400.992 369.497 406.866C369.316 411.128 367.493 416.982 364.564 424.017L364.051 425.235C362.311 429.237 361.854 433.81 362.742 438.25C363.067 439.875 362.013 441.455 360.388 441.78C358.764 442.105 357.183 441.051 356.858 439.427C355.769 433.981 356.279 428.356 358.33 423.36L358.983 421.81C361.666 415.374 363.36 409.971 363.504 406.59C363.573 405.181 362.867 404.763 360.675 405.134C358.284 405.538 356.17 407.037 356.078 407.796C355.728 410.72 354.773 412.607 352.863 414.321L352.63 414.526C352.424 414.701 348.015 417.947 346.203 419.572C344.712 420.908 343.514 424.64 342.903 429.838C342.475 433.474 342.36 437.337 342.434 440.823L342.468 442.021C342.479 442.328 342.489 442.549 342.495 442.676C342.519 443.112 342.447 443.546 342.286 443.95L342.198 444.149C342.187 444.173 342.115 444.362 342.026 444.7C341.57 446.433 341.604 448.631 342.523 451.222C343.908 455.129 347.102 459.248 352.618 463.452C353.557 464.168 354.513 464.813 355.483 465.39C363.292 470.033 371.649 470.168 379.509 467.582C380.443 467.275 381.292 466.951 382.046 466.626L382.415 466.463C382.838 466.272 383.135 466.126 383.293 466.043L383.352 466.011C383.44 465.962 383.531 465.918 383.623 465.879L384.062 465.708C384.264 465.629 384.493 465.537 384.745 465.433L385.006 465.324C386.042 464.89 387.202 464.367 388.453 463.756C392.032 462.01 395.61 459.921 398.934 457.501C408.174 450.774 413.6 442.917 413.6 434.038L413.598 433.572L413.585 432.543L411.808 435.355C410.057 438.14 408.198 441.119 407.221 442.586L406.999 442.916C402.684 449.223 398.499 453.758 393.827 456.521C392.4 457.364 390.561 456.891 389.717 455.465C388.874 454.039 389.347 452.199 390.773 451.356C394.53 449.135 398.184 445.174 402.046 439.529L402.241 439.239C404.036 436.534 409.983 426.786 411.269 425.293C412.159 424.261 412.997 423.586 414.106 423.292C415.995 422.792 417.647 423.738 418.494 425.373C419.319 426.966 419.6 429.578 419.6 434.038C419.6 445.198 413.101 454.609 402.466 462.351C398.834 464.995 394.959 467.258 391.084 469.149C389.727 469.811 388.464 470.38 387.326 470.858L386.514 471.191L386.047 471.373L385.878 471.463L385.451 471.675C384.542 472.114 383.301 472.633 381.772 473.152L381.384 473.282C372.02 476.363 361.922 476.199 352.417 470.548C351.248 469.853 350.103 469.079 348.981 468.224C342.581 463.346 338.665 458.296 336.868 453.227C335.527 449.444 335.473 446.023 336.224 443.173C336.272 442.99 336.321 442.819 336.37 442.658L336.476 442.335L336.46 441.871C336.337 437.897 336.44 433.419 336.944 429.137C337.718 422.558 339.267 417.732 342.197 415.105L342.655 414.704C344.872 412.801 348.763 409.938 348.727 409.968C349.645 409.182 349.935 408.636 350.121 407.081C350.598 403.108 354.96 400.015 359.674 399.218Z" fill="#DDDDDD"/>
<path fill-rule="evenodd" clip-rule="evenodd" d="M884.9 213.538L818.1 202.938L810.9 180.238C823.4 172.338 865.4 176.038 898.2 188.138L884.9 213.538Z" fill="#DDDDDD"/>
<path fill-rule="evenodd" clip-rule="evenodd" d="M994.5 339.838L944.8 223.638C941.6 216.438 934.9 211.138 926.8 208.938C922.7 207.038 918.2 205.838 913.5 205.438L896.6 204.038L898.1 188.138C898.1 188.138 895.8 193.838 877.2 197.338C852.1 202.038 810.8 180.238 810.8 180.238C810.8 180.238 810.8 201.838 810.8 204.838L785.2 204.138C774.2 203.838 752.9 202.938 740.5 227.438L680.4 378.338C669.7 397.838 675.3 426.638 693 441.538L728.1 460.938L724.8 499.938L990.4 499.038L988.9 464.438C1069.7 414.338 994.5 339.838 994.5 339.838Z" fill="#6FB1F2"/>
<path fill-rule="evenodd" clip-rule="evenodd" d="M708.753 377.2C721.34 368.182 733.542 364.298 745.161 364.796C754.323 365.189 762.567 368.256 769.775 373.108C772.477 374.926 774.845 376.875 776.869 378.83L777.342 379.293C778.324 380.268 779.024 381.047 779.432 381.55C780.474 382.838 780.276 384.727 778.988 385.77C777.75 386.772 775.956 386.627 774.893 385.47L774.485 384.996C774.427 384.931 774.363 384.859 774.29 384.779C773.848 384.291 773.317 383.741 772.7 383.145C770.919 381.424 768.82 379.697 766.425 378.085C760.079 373.813 752.872 371.132 744.904 370.791C734.667 370.352 723.775 373.819 712.247 382.077C710.901 383.042 709.026 382.732 708.061 381.385C707.097 380.039 707.406 378.165 708.753 377.2Z" fill="white"/>
<path fill-rule="evenodd" clip-rule="evenodd" d="M715.915 361.678C729.153 354.786 740.877 352.514 751.12 354.224C759.415 355.609 766.288 359.509 771.815 365.113C774.189 367.52 776.162 370.093 777.767 372.683C778.344 373.614 778.837 374.491 779.252 375.299L779.46 375.711C779.617 376.027 779.735 376.28 779.842 376.52C780.515 378.034 779.833 379.807 778.319 380.48C776.805 381.153 775.032 380.471 774.359 378.957C774.025 378.205 773.511 377.207 772.667 375.843C771.286 373.615 769.583 371.395 767.543 369.326C762.856 364.573 757.095 361.305 750.131 360.142C741.251 358.66 730.825 360.68 718.685 367C717.216 367.765 715.404 367.194 714.639 365.724C713.874 364.254 714.445 362.443 715.915 361.678Z" fill="white"/>
<path fill-rule="evenodd" clip-rule="evenodd" d="M965.062 357.237C976.99 355.546 989.953 358.771 1003.83 367.717C1005.22 368.615 1005.62 370.472 1004.72 371.865C1003.82 373.257 1001.97 373.658 1000.57 372.76C987.867 364.565 976.341 361.698 965.904 363.178C957.668 364.345 950.409 368.169 944.146 373.846C941.449 376.29 939.124 378.914 937.181 381.533C936.602 382.314 936.095 383.045 935.66 383.71L935.259 384.338C935.088 384.611 934.974 384.804 934.917 384.906C934.107 386.351 932.278 386.866 930.833 386.055C929.388 385.245 928.873 383.416 929.684 381.971L929.868 381.651C930.373 380.793 931.204 379.52 932.362 377.959C934.527 375.04 937.11 372.125 940.116 369.4C947.21 362.971 955.53 358.588 965.062 357.237Z" fill="white"/>
<path fill-rule="evenodd" clip-rule="evenodd" d="M936.403 359.934C947.813 348.549 963.918 343.142 985.135 346.986C986.765 347.282 987.847 348.843 987.552 350.473C987.257 352.104 985.696 353.186 984.065 352.89C964.831 349.406 950.692 354.152 940.641 364.181C937.919 366.898 935.717 369.811 933.998 372.716C933.486 373.581 933.051 374.388 932.69 375.123L932.516 375.483C932.374 375.781 932.268 376.018 932.194 376.188L932.098 376.42C931.501 377.966 929.763 378.734 928.218 378.136C926.673 377.539 925.904 375.802 926.502 374.256L926.651 373.886C927.065 372.897 927.78 371.441 928.834 369.66C930.799 366.34 933.303 363.028 936.403 359.934Z" fill="white"/>
<path fill-rule="evenodd" clip-rule="evenodd" d="M817 150.4V204.008C817 205.259 818.205 206.3 819.767 206.397L877.367 209.992C879.064 210.098 880.532 209.055 880.598 207.696L881.998 178.855C882.04 177.981 881.484 177.159 880.547 176.708L866 178.5L844 173.5L820.547 149.847C818.547 148.886 817 148.536 817 150.4ZM823 155L848 175.5L876 179.243L874.789 203L823 199.924V155Z" fill="#DDDDDD"/>
<path fill-rule="evenodd" clip-rule="evenodd" d="M861.534 47.819C847.245 49.8825 832.708 60.5749 816.136 81.7915L816.009 81.9668C815.768 82.3258 815.607 82.7333 815.538 83.1618L811.457 108.534L811.034 108.454C797.187 105.911 788.933 114.24 792.39 128.066L792.503 128.518C796.12 142.607 804.794 149.172 817.594 146.712L817.859 147.261C826.267 164.59 839.402 176.885 858.265 180.97C879.509 185.594 893.13 180.236 901.579 168.014C902.855 166.169 903.964 164.24 905.034 162.091L905.432 161.279C905.63 160.868 905.829 160.444 906.041 159.987L907.222 157.4C910.004 151.084 913.847 130.166 914.634 112.749C915.78 87.4195 911.486 68.6183 899.707 60.4709C884.94 50.2572 873.754 46.0542 861.534 47.819ZM896.293 65.4055C905.792 71.9754 909.699 89.0806 908.641 112.478L908.587 113.574C907.722 130.091 904.114 149.572 901.755 154.929L900.801 157.021C900.385 157.93 900.032 158.675 899.663 159.416C898.712 161.326 897.742 163.014 896.643 164.602C889.578 174.822 878.411 179.215 859.538 175.107C841.791 171.263 829.663 159.229 822.043 142.023C821.446 140.675 819.957 139.961 818.531 140.338L818.146 140.44C807.534 143.185 801.194 138.724 798.213 126.621C795.633 116.302 801.254 111.543 813.031 115.109L813.205 115.157C814.888 115.56 816.583 114.449 816.862 112.715L821.338 84.8802L822.3 83.6667C837.391 64.7786 850.297 55.5039 862.391 53.7574C872.771 52.2585 882.656 55.9729 896.293 65.4055Z" fill="#DDDDDD"/>
<path fill-rule="evenodd" clip-rule="evenodd" d="M886.362 112.257C887.95 112.077 889.388 113.171 889.656 114.726L889.681 114.9L892.581 140.5C892.779 142.247 891.443 143.774 889.711 143.836L889.537 143.837L880.037 143.637C878.38 143.603 877.066 142.231 877.101 140.575C877.134 138.978 878.411 137.698 879.987 137.64L880.163 137.639L886.233 137.766L883.719 115.576C883.539 113.988 884.633 112.55 886.188 112.282L886.362 112.257Z" fill="#DDDDDD"/>
<path fill-rule="evenodd" clip-rule="evenodd" d="M897.8 119.638C899.402 119.638 900.7 117.668 900.7 115.238C900.7 112.808 899.402 110.838 897.8 110.838C896.199 110.838 894.9 112.808 894.9 115.238C894.9 117.668 896.199 119.638 897.8 119.638Z" fill="#DDDDDD"/>
<path fill-rule="evenodd" clip-rule="evenodd" d="M870.3 119.138C871.902 119.138 873.2 117.168 873.2 114.738C873.2 112.308 871.902 110.338 870.3 110.338C868.699 110.338 867.4 112.308 867.4 114.738C867.4 117.168 868.699 119.138 870.3 119.138Z" fill="#DDDDDD"/>
<path fill-rule="evenodd" clip-rule="evenodd" d="M896.034 86.4142C897.824 86.1269 899.721 86.1112 901.588 86.5662C904.859 87.3634 907.375 89.5041 908.468 93.0559C908.955 94.6394 908.066 96.3182 906.482 96.8055C904.955 97.2753 903.34 96.4657 902.79 94.9874L902.733 94.8204C902.298 93.4083 901.486 92.7168 900.168 92.3956C899.191 92.1576 898.053 92.167 896.984 92.3385L896.743 92.3801C896.639 92.3995 896.56 92.4161 896.511 92.4277L896.471 92.4374C894.87 92.8631 893.227 91.9101 892.801 90.3088C892.375 88.7076 893.328 87.0644 894.93 86.6388L895.171 86.5794C895.398 86.5272 895.688 86.4696 896.034 86.4142Z" fill="#DDDDDD"/>
<path fill-rule="evenodd" clip-rule="evenodd" d="M867.9 146.138C867.9 146.138 877.1 149.438 884.8 148.138C884.8 148.138 881.9 161.438 874.4 159.838C867 158.138 867.9 146.138 867.9 146.138Z" fill="#DDDDDD"/>
<path fill-rule="evenodd" clip-rule="evenodd" d="M772.8 32.2382C757.5 2.33817 733 -0.261834 704.7 5.43817C676.4 11.0382 660.6 49.1382 659.6 52.6382C648.1 93.8382 663.3 137.838 697.3 163.838C701.1 166.738 704.8 169.638 708.4 172.438C728.4 188.038 684.1 201.438 684.1 201.438C768.8 208.238 750.3 123.438 748.5 115.938C775.7 105.638 787 60.0382 772.8 32.2382Z" fill="#DDDDDD"/>
<path fill-rule="evenodd" clip-rule="evenodd" d="M818.4 91.4379C815.7 98.3379 807.9 101.738 801 99.0379L751.9 79.9379C745 77.2379 741.6 69.4379 744.3 62.5379C747 55.6379 754.8 52.2379 761.7 54.9379L810.8 74.0379C817.7 76.7379 821.1 84.5379 818.4 91.4379Z" fill="#439BD7"/>
<path fill-rule="evenodd" clip-rule="evenodd" d="M921.8 92.1383C921.5 71.3383 916.5 53.1383 904 41.1383C902.3 39.0383 900 37.2383 896.9 35.5383C886.7 28.9383 872.8 25.3383 854.3 26.0383C854 26.0383 853.6 26.1383 853.2 26.3383C850.3 26.6383 847.4 27.0383 844.6 27.6383C843.1 27.8383 841.6 28.2383 840 28.7383C834.7 30.1383 829.8 32.0383 825.2 34.1383C783.8 51.9383 767.6 84.0383 786.1 128.338C795.6 151.138 808 158.538 820 158.538V144.738C819 142.538 817.3 143.438 817.3 143.438C804.4 146.938 798.7 140.738 795.3 127.338C793.7 120.838 795 115.938 798.5 113.238C798.6 113.138 798.7 113.138 798.8 113.038C798.9 112.938 799.1 112.838 799.2 112.738C799.3 112.638 799.4 112.638 799.5 112.538C799.7 112.438 799.8 112.338 800 112.238C800.1 112.238 800.2 112.138 800.3 112.138C800.5 112.038 800.7 111.938 800.8 111.938C800.9 111.938 801 111.838 801.1 111.838C801.3 111.738 801.5 111.738 801.7 111.638C801.8 111.638 801.8 111.638 801.9 111.538C803 111.238 804.2 111.038 805.5 111.038H805.6C805.9 111.038 806.2 111.038 806.5 111.038C806.6 111.038 806.6 111.038 806.7 111.038C807 111.038 807.3 111.038 807.6 111.038C807.7 111.038 807.7 111.038 807.8 111.038C808.1 111.038 808.5 111.138 808.8 111.138H808.9C810.4 111.338 812.1 111.738 813.8 112.238C814.9 112.538 814.1 113.038 815.3 113.538L818.3 113.338C819.3 113.338 820.4 113.238 821.5 113.138C847.6 110.038 888.2 91.3383 902.6 67.3383C912.8 79.7383 913.9 104.038 912 124.638C918.2 114.938 922 104.038 921.8 92.1383Z" fill="#DDDDDD"/>
<path fill-rule="evenodd" clip-rule="evenodd" d="M939.5 273.938L933.2 240.538C930.6 226.938 917.5 218.038 904 220.538L894.4 222.338C888 188.538 855.5 166.338 821.7 172.638C787.9 179.038 765.7 211.538 772 245.338L762.4 247.138C748.8 249.738 739.9 262.838 742.4 276.338L748.7 309.738C782.5 303.338 815.1 325.638 821.4 359.438C827.8 393.238 825.8 419.6 792 426L817.5 454.338H775.9C787.5 464 791.6 476.838 805.1 474.338L946.7 447.638C960.3 445.038 911.5 454.276 931 426L911.5 420L933 405C899.2 411.4 896.1 380.438 889.8 346.638C883.4 312.938 905.6 280.338 939.5 273.938Z" fill="#404E6B"/>
<path fill-rule="evenodd" clip-rule="evenodd" d="M750.72 391.73C755.804 389.898 761.119 389.82 766.07 390.766L766.624 390.877C767.507 391.061 768.184 391.242 768.617 391.382C768.966 391.494 769.292 391.669 769.577 391.898L769.744 392.042L776.697 398.512L777.13 398.759L777.874 399.177C778.266 399.395 778.686 399.626 779.131 399.866C781.255 401.015 783.516 402.164 785.812 403.234C787.838 404.177 789.796 405.014 791.646 405.715L792.433 406.006C797.485 407.838 801.272 408.408 802.743 407.662C807.358 405.323 811.522 404.894 814.239 407.329C817.175 409.959 816.985 414.564 814.352 420.632C812.054 425.927 807.06 428.437 800.542 428.855C800.087 428.884 799.628 428.902 799.167 428.911L798.518 428.917L799.722 429.892C800.997 430.929 802.256 431.96 803.487 432.976L805.41 434.57L807.381 436.222C812.956 440.92 816.88 444.474 818.729 446.612L818.864 446.769C821.913 450.276 822.668 455.154 819.286 457.633C815.95 460.077 810.61 458.495 803.561 453.483C802.211 452.523 801.895 450.65 802.855 449.299C803.815 447.949 805.688 447.633 807.039 448.593C809.985 450.689 812.394 451.971 814.175 452.499C814.616 452.63 814.99 452.705 815.292 452.735L815.436 452.746L815.422 452.674C815.299 452.144 814.977 451.503 814.48 450.881L814.308 450.674C812.673 448.738 808.356 444.856 802.249 439.748L800.876 438.604C797.678 435.949 794.248 433.165 790.818 430.423L788.849 428.854L786.249 426.799C783.69 424.793 785.706 420.766 788.786 421.517L789.405 421.685C789.491 421.708 789.588 421.732 789.694 421.759C790.333 421.919 791.055 422.08 791.842 422.231C794.677 422.773 797.545 423.034 800.158 422.867C804.662 422.578 807.61 421.097 808.848 418.244C809.827 415.987 810.317 414.186 810.37 412.915C810.389 412.457 810.348 412.12 810.276 411.903L810.236 411.797L810.194 411.781C810.175 411.775 810.147 411.767 810.108 411.758C809.904 411.709 809.605 411.695 809.222 411.735C808.309 411.829 807.129 412.202 805.794 412.847L805.457 413.014C801.842 414.847 796.529 413.979 789.522 411.326C787.523 410.569 785.431 409.675 783.279 408.672C780.865 407.548 778.5 406.346 776.277 405.144L775.378 404.653C775.091 404.495 774.816 404.342 774.554 404.195L773.747 403.737C773.586 403.645 773.463 403.573 773.379 403.524C773.254 403.45 773.134 403.368 773.021 403.277L772.856 403.134L766.192 396.933L766.107 396.912C765.847 396.848 765.563 396.784 765.257 396.721L764.944 396.659C760.959 395.898 756.677 395.961 752.754 397.375C746.681 399.563 742.263 404.728 740.123 414.012C740.106 414.086 740.087 414.159 740.064 414.231C737.89 421.205 738.873 427.561 741.848 433.114C742.492 434.317 743.18 435.377 743.862 436.278L744.108 436.597C744.336 436.888 744.513 437.095 744.623 437.216L744.753 437.358L746.209 439.044C746.923 439.862 747.622 440.633 748.405 441.453C750.517 443.668 752.961 445.951 755.911 448.388C763.761 454.872 774.099 461.539 787.538 468.302L788.281 468.674L788.688 468.814L789.15 468.966L789.371 469.034L788.987 468.657L788.716 468.396C785.984 465.758 783.099 463.338 780.24 461.268C778.899 460.296 778.598 458.42 779.57 457.078C780.542 455.737 782.418 455.436 783.76 456.408C786.848 458.645 789.95 461.247 792.872 464.069L793.422 464.6C797.343 468.433 798.843 470.957 797.581 473.546C796.784 475.18 795.314 475.774 793.577 475.845C792.643 475.883 791.599 475.758 790.422 475.512C789.798 475.382 789.149 475.219 788.486 475.031L787.895 474.858C787.135 474.63 786.498 474.413 786.061 474.252C785.959 474.215 785.859 474.172 785.762 474.123C771.485 467.007 760.476 459.941 752.089 453.014C748.954 450.424 746.337 447.978 744.064 445.595C743.385 444.883 742.764 444.206 742.149 443.513L740.268 441.344L740.229 441.301C739.984 441.035 739.65 440.642 739.252 440.126L739.077 439.898C738.214 438.757 737.357 437.437 736.558 435.947C732.947 429.204 731.69 421.405 734.182 412.953L734.305 412.547L734.404 412.124C737.01 401.392 742.63 394.797 750.333 391.873L750.72 391.73Z" fill="#DDDDDD"/>
<path fill-rule="evenodd" clip-rule="evenodd" d="M784.2 436.638C788.9 440.138 808.7 451.238 813.4 458.338C818.1 465.438 812.2 467.738 795.3 455.538" fill="#6FB1F2"/>
<path fill-rule="evenodd" clip-rule="evenodd" d="M781.794 434.846C782.745 433.568 784.52 433.265 785.836 434.123L786.252 434.416C788.245 435.791 797.796 441.856 800.469 443.645L801.836 444.568C803.396 445.63 804.834 446.644 806.168 447.626C810.89 451.1 814.163 454.056 815.901 456.682C817.436 459 818.192 461.127 817.897 463.064C817.482 465.779 815.231 467.234 812.387 467.175C808.283 467.089 801.826 463.949 793.544 457.97C792.201 457.001 791.898 455.125 792.867 453.782C793.837 452.439 795.712 452.136 797.056 453.105L797.938 453.736C803.905 457.957 808.611 460.393 811.353 461.016L811.53 461.054L811.446 460.898C811.328 460.683 811.189 460.445 811.025 460.189L810.898 459.994C809.66 458.123 806.798 455.538 802.612 452.458C801.157 451.388 799.56 450.268 797.799 449.08L796.638 448.304C793.358 446.144 783.718 440.02 782.408 439.044C781.079 438.054 780.804 436.175 781.794 434.846Z" fill="#DDDDDD"/>
<path fill-rule="evenodd" clip-rule="evenodd" d="M776.9 444.238C777.4 445.138 809.8 462.638 807.7 467.238C806 471.038 801.4 471.238 783.4 459.838L769 449.838" fill="#6FB1F2"/>
<path fill-rule="evenodd" clip-rule="evenodd" d="M775.443 441.615C776.57 440.99 777.925 441.166 778.85 441.957L778.97 442.066L779.32 442.298L780.328 442.927C780.856 443.251 781.51 443.644 782.654 444.329L786.567 446.674C789.406 448.383 791.389 449.601 793.631 451.021L793.953 451.225C795.063 451.929 796.122 452.613 797.131 453.278L797.879 453.773C801.529 456.204 804.438 458.341 806.536 460.187L806.831 460.449C810.148 463.435 811.675 465.755 810.438 468.463C808.848 472.018 805.58 473.306 800.937 472.149C796.936 471.152 791.196 468.265 782.852 463.038L781.795 462.372L781.689 462.302L767.289 452.302C765.928 451.357 765.591 449.488 766.536 448.127C767.446 446.816 769.213 446.455 770.558 447.274L770.711 447.374L785.064 457.34L785.506 457.62C793.472 462.639 798.859 465.39 802.183 466.274L802.388 466.327C803.494 466.603 804.068 466.693 804.416 466.594L804.455 466.58L804.427 466.543C804.102 466.145 803.638 465.663 803.045 465.117L802.817 464.909C801.041 463.31 798.398 461.346 795.018 459.078L794.553 458.767C793.599 458.132 792.595 457.477 791.54 456.802L790.739 456.291C788.405 454.811 786.4 453.577 783.457 451.806L777.079 447.973L776.379 447.538C776.078 447.349 775.832 447.189 775.632 447.053C775.452 446.93 775.301 446.821 775.164 446.713C774.783 446.41 774.55 446.185 774.278 445.695C773.473 444.246 773.995 442.42 775.443 441.615Z" fill="#DDDDDD"/>
<path fill-rule="evenodd" clip-rule="evenodd" d="M976.36 375.048L976.576 375.038L976.88 375.041C977.151 375.047 977.497 375.062 977.912 375.091C978.822 375.155 979.82 375.27 980.887 375.45C983.906 375.959 986.925 376.882 989.77 378.335C998.798 382.945 1003.95 391.695 1003.13 405.04L1003.1 405.463L1003.1 405.883C1002.98 413.301 1000.45 419.537 996.295 424.586L995.988 424.953C994.439 426.781 992.779 428.319 991.112 429.582C990.344 430.164 989.688 430.605 989.187 430.91L988.829 431.119L987.781 431.781C987.219 432.135 986.717 432.446 986.173 432.772C984.704 433.653 983.159 434.513 981.419 435.398C976.81 437.742 971.386 439.976 964.892 442.067C956.521 444.762 946.806 447.071 935.582 448.899L935.417 448.921L935.251 448.934C935.16 448.939 935.007 448.945 934.803 448.951C933.599 448.986 932.276 448.969 930.995 448.86C929.78 448.756 928.721 448.578 927.817 448.284C926.163 447.747 924.923 446.846 924.508 445.132C923.752 442.011 926.211 439.909 931.758 437.155C935.099 435.484 938.559 434.071 942.701 432.609C944.264 432.058 945.977 432.877 946.529 434.44C947.08 436.002 946.261 437.716 944.698 438.267C940.772 439.653 937.531 440.977 934.434 442.525L933.765 442.864L933.568 442.965L934.019 442.965L934.792 442.948L935.743 442.791C945.826 441.104 954.604 439.022 962.212 436.623L963.053 436.356C969.244 434.362 974.375 432.249 978.699 430.05C980.309 429.231 981.733 428.439 983.086 427.627C983.463 427.401 983.82 427.182 984.198 426.946L985.716 425.99L986.058 425.788L986.238 425.676C986.608 425.439 987.029 425.148 987.488 424.8C988.821 423.79 990.161 422.548 991.412 421.073C994.876 416.987 996.981 411.961 997.095 405.863L997.1 405.338L997.108 405.12C997.922 393.92 994.063 387.264 987.041 383.678C984.787 382.527 982.344 381.78 979.89 381.367C979.167 381.245 978.486 381.16 977.861 381.105L977.317 381.065L977.227 381.059L968.98 384.951C968.854 385.011 968.724 385.061 968.591 385.103L968.389 385.158L967.842 385.283C967.498 385.359 967.115 385.443 966.694 385.531L966.372 385.599C964.809 385.924 963.102 386.249 961.303 386.553C958.107 387.092 954.971 387.504 952.013 387.738C943.802 388.389 937.976 387.702 934.897 384.678C933.713 383.514 932.597 382.707 931.683 382.309C931.328 382.155 931.038 382.077 930.827 382.062L930.696 382.06C930.699 382.059 930.683 382.072 930.629 382.147C930.494 382.332 930.355 382.64 930.235 383.082C929.903 384.311 929.828 386.177 930.084 388.627C930.443 392.068 933.364 394.545 938.425 396.143C940.516 396.803 942.79 397.248 945.069 397.511C945.71 397.585 946.313 397.64 946.867 397.679L947.274 397.705C947.604 397.724 947.845 397.734 947.985 397.737L948.046 397.738C951.293 397.788 952.126 402.204 949.23 403.475L944.718 405.213L943.49 405.69C939.829 407.116 936.17 408.571 932.699 409.987L930.357 410.95L927.726 412.049C921.506 414.672 917.045 416.749 915.107 417.971C914.348 418.453 913.754 419.052 913.439 419.589L913.408 419.647C913.676 419.711 914.009 419.755 914.414 419.772L914.665 419.779C916.53 419.804 919.222 419.299 922.678 418.183C924.255 417.674 925.946 418.54 926.455 420.116C926.964 421.693 926.098 423.384 924.521 423.893C916.265 426.558 910.708 426.483 908.262 423.17C905.779 419.808 907.946 415.409 911.899 412.901L912.283 412.665C914.833 411.136 919.661 408.919 926.354 406.117L928.94 405.044C930.909 404.233 932.948 403.408 935.022 402.58L936.732 401.899L936.618 401.864C929.658 399.666 924.952 395.744 924.156 389.593L924.116 389.249C923.429 382.665 924.634 378.212 928.229 376.591C931.558 375.09 935.402 376.762 939.102 380.398C940.45 381.722 945.085 382.268 951.539 381.757C954.304 381.538 957.27 381.148 960.305 380.637C962.025 380.346 963.657 380.036 965.148 379.725L966.023 379.539L966.712 379.386L975.32 375.325C975.647 375.17 976 375.077 976.36 375.048Z" fill="#DDDDDD"/>
<path fill-rule="evenodd" clip-rule="evenodd" d="M948.1 413.538C942.5 415.438 920.4 420.138 913.7 425.538C907.1 430.838 912 434.938 931.8 428.338" fill="#6FB1F2"/>
<path fill-rule="evenodd" clip-rule="evenodd" d="M947.136 410.697C948.705 410.165 950.409 411.005 950.941 412.574C951.454 414.087 950.691 415.725 949.229 416.317L949.064 416.379C947.599 416.876 935.227 420.183 931.443 421.317L929.858 421.799C922.795 423.988 917.864 426.035 915.578 427.877C915.254 428.137 914.979 428.382 914.752 428.601L914.644 428.707L914.676 428.711C917.494 429.02 922.986 428.075 930.367 425.652L930.851 425.492C932.423 424.968 934.122 425.817 934.646 427.389C935.17 428.961 934.32 430.66 932.749 431.184L931.662 431.54C922.522 434.491 915.791 435.415 911.988 434.274C909.269 433.458 907.575 431.385 907.995 428.679C908.296 426.737 909.662 424.933 911.817 423.202C915.013 420.626 920.771 418.279 929.12 415.75L930.385 415.373C934.568 414.153 944.411 411.511 946.738 410.82L947.136 410.697Z" fill="#DDDDDD"/>
<path fill-rule="evenodd" clip-rule="evenodd" d="M952.8 423.038C952 423.738 915.9 430.738 916.5 435.738C917 439.838 921.4 441.438 941.9 435.938L958.6 430.638" fill="#6FB1F2"/>
<path fill-rule="evenodd" clip-rule="evenodd" d="M951.605 420.285C952.77 419.779 954.176 420.055 955.058 421.063C956.149 422.31 956.022 424.205 954.775 425.296L954.563 425.478C954.193 425.785 953.942 425.905 953.03 426.151L951.282 426.598L943.938 428.366C941.398 428.982 939.367 429.49 937.344 430.021L935.434 430.529C929.95 432.008 925.608 433.385 922.624 434.653C921.534 435.116 920.662 435.55 920.04 435.934L919.819 436.075L919.837 436.088C920.126 436.27 920.655 436.362 921.658 436.429L921.881 436.444C925.298 436.65 931.318 435.646 940.553 433.193L941.057 433.057L957.692 427.779C959.215 427.295 960.838 428.091 961.401 429.564L961.459 429.731C961.943 431.253 961.147 432.876 959.674 433.439L959.507 433.498L942.807 438.798L942.677 438.836L940.888 439.308C931.739 441.688 925.568 442.677 921.519 442.433C916.744 442.144 913.991 439.949 913.521 436.096C913.15 433.006 915.448 431.218 919.96 429.267L920.279 429.13C923.449 427.784 927.792 426.393 933.216 424.914L935.432 424.32C938.137 423.606 940.789 422.949 944.535 422.05L950.215 420.68L951.039 420.466L951.497 420.336L951.605 420.285Z" fill="#DDDDDD"/>
<path fill-rule="evenodd" clip-rule="evenodd" d="M1476.8 289.038C1477.1 234.438 1397.4 215.639 1397.4 215.639C1403.4 188.539 1401.1 141.5 1287.5 162C1229.3 172.1 1212.5 182.538 1224.9 207.238C1202.3 218.438 1145.8 299.438 1145.8 299.438L1146.9 369.038C1142.7 368.139 1138.3 367.638 1133.8 367.638C1098.1 367.438 1068.9 396.338 1068.8 432.138C1068.6 467.838 1100.5 499.838 1136.3 500.038C1140.6 500.038 1144.8 499.638 1148.9 498.738V500.038L1457.6 499.238C1457.6 499.238 1459.1 437.339 1451.7 371.738C1464.6 342.038 1476.8 308.839 1476.8 289.038Z" fill="#439BD7"/>
<path fill-rule="evenodd" clip-rule="evenodd" d="M1347.4 182.338L1368 193.738C1368 193.738 1314.4 216.838 1304.7 323.738C1298.4 393.138 1303.4 501.438 1303.4 501.438L1268 500.938C1268 500.938 1277.5 286.238 1262.1 251.238C1246.7 216.338 1263.7 214.138 1271.5 206.838C1292.17 251.735 1328.95 219.633 1344.5 197.5C1351.52 187.51 1347.4 182.338 1347.4 182.338Z" fill="white"/>
<path fill-rule="evenodd" clip-rule="evenodd" d="M1122.3 477.638C1150.69 477.638 1173.7 454.626 1173.7 426.238C1173.7 397.851 1150.69 374.838 1122.3 374.838C1093.91 374.838 1070.9 397.851 1070.9 426.238C1070.9 454.626 1093.91 477.638 1122.3 477.638Z" fill="#225696"/>
<path fill-rule="evenodd" clip-rule="evenodd" d="M1309.7 475.238C1334.39 475.238 1354.4 455.226 1354.4 430.538C1354.4 405.851 1334.39 385.838 1309.7 385.838C1285.01 385.838 1265 405.851 1265 430.538C1265 455.226 1285.01 475.238 1309.7 475.238Z" fill="#225696"/>
<path fill-rule="evenodd" clip-rule="evenodd" d="M1346.4 278.838C1355.3 274.838 1383.6 242.438 1397.4 215.438C1408.9 215.238 1425.5 223.138 1432.7 228.738C1400 280.338 1346.3 278.838 1346.4 278.838Z" fill="#225696"/>
<path fill-rule="evenodd" clip-rule="evenodd" d="M1344.2 367.286C1350.23 365.838 1357 365.3 1364.2 366.199C1373.86 367.405 1383.29 371.107 1392.12 377.807C1399.22 383.201 1405.76 390.424 1411.63 399.626C1412.52 401.022 1412.11 402.877 1410.71 403.768C1409.32 404.659 1407.46 404.249 1406.57 402.852C1401.07 394.234 1395.01 387.54 1388.49 382.585C1380.53 376.541 1372.1 373.231 1363.46 372.153C1357.02 371.35 1350.97 371.831 1345.61 373.12C1344.54 373.376 1343.58 373.647 1342.74 373.918L1342.39 374.034C1341.85 374.213 1341.51 374.344 1341.36 374.407C1339.83 375.045 1338.07 374.324 1337.43 372.795C1336.79 371.266 1337.51 369.509 1339.04 368.87L1339.41 368.725C1340.44 368.322 1342.07 367.799 1344.2 367.286Z" fill="#225696"/>
<path fill-rule="evenodd" clip-rule="evenodd" d="M1344.06 363.564C1352.21 358.977 1361.57 356.533 1371.9 357.381C1385.25 358.478 1399.03 365.04 1412.95 378.046C1414.16 379.177 1414.22 381.076 1413.09 382.286C1411.96 383.497 1410.06 383.562 1408.85 382.431C1395.88 370.311 1383.35 364.342 1371.41 363.361C1362.36 362.619 1354.17 364.759 1347 368.793C1344.83 370.013 1342.93 371.319 1341.3 372.617L1340.77 373.053C1340.52 373.265 1340.28 373.467 1340.07 373.657L1339.62 374.07L1339.44 374.243C1338.28 375.424 1336.38 375.439 1335.2 374.277C1334.02 373.114 1334 371.215 1335.16 370.034L1335.38 369.823C1335.84 369.368 1336.57 368.719 1337.55 367.935C1339.42 366.44 1341.59 364.951 1344.06 363.564Z" fill="#225696"/>
<path fill-rule="evenodd" clip-rule="evenodd" d="M1451.11 371.95C1452.65 372.381 1453.57 373.936 1453.23 375.477L1453.18 375.693L1452.88 376.695L1452.55 377.775C1452.33 378.477 1452.09 379.242 1451.82 380.066L1451.65 380.567C1450.37 384.429 1448.81 388.726 1446.96 393.351C1441.68 406.565 1435.13 419.779 1427.23 432.131C1414.59 451.901 1399.7 467.545 1382.4 477.485C1361.57 489.448 1338.14 492.58 1312.16 485.345L1311.38 485.125L1310.98 485.02C1310.78 484.964 1310.53 484.895 1310.25 484.813L1310.04 484.749C1308.94 484.422 1307.72 484.023 1306.41 483.546C1302.67 482.185 1298.93 480.474 1295.42 478.376C1290.54 475.461 1286.49 472.026 1283.57 467.998C1282.6 466.656 1282.9 464.781 1284.24 463.809C1285.58 462.837 1287.46 463.137 1288.43 464.479C1290.82 467.776 1294.26 470.697 1298.49 473.225C1301.65 475.112 1305.06 476.669 1308.46 477.908C1309.48 478.28 1310.44 478.599 1311.31 478.868L1312.1 479.103C1312.44 479.199 1312.69 479.267 1312.85 479.308L1313.03 479.354C1337.74 486.423 1359.77 483.566 1379.41 472.283C1395.78 462.882 1410.01 447.918 1422.17 428.899C1429.85 416.892 1436.24 404.008 1441.39 391.123C1443.07 386.915 1444.51 382.989 1445.7 379.435L1445.96 378.679C1446.28 377.698 1446.57 376.801 1446.82 375.994L1447.21 374.732L1447.41 374.029C1447.86 372.434 1449.51 371.503 1451.11 371.95Z" fill="#225696"/>
<path fill-rule="evenodd" clip-rule="evenodd" d="M1369.62 302.855C1371.16 303.473 1371.9 305.22 1371.28 306.757L1370.12 309.625C1369.19 311.901 1368.15 314.436 1367.01 317.167L1365.38 321.065C1362.65 327.555 1359.87 333.986 1357.17 340.059L1356.04 342.566C1355.67 343.39 1355.3 344.203 1354.94 345.003L1354.39 346.194C1352.35 350.655 1350.44 354.673 1348.69 358.175C1348.4 358.747 1348.11 359.317 1347.83 359.886C1343.6 368.193 1339.07 375.757 1334.54 382.436C1332.95 384.779 1331.47 386.846 1330.14 388.619L1329.47 389.495L1328.69 390.503C1328.57 390.652 1328.48 390.762 1328.43 390.833C1327.38 392.118 1325.49 392.311 1324.21 391.265C1322.97 390.258 1322.74 388.473 1323.66 387.195L1323.77 387.044C1323.84 386.967 1323.97 386.802 1324.17 386.55L1324.71 385.845C1324.91 385.589 1325.12 385.314 1325.34 385.018L1326.05 384.063C1327.13 382.587 1328.32 380.918 1329.57 379.067C1333.97 372.587 1338.37 365.236 1342.48 357.164L1342.9 356.334L1343.32 355.497C1345.04 352.056 1346.92 348.097 1348.94 343.694L1350.02 341.316C1350.57 340.109 1351.12 338.875 1351.69 337.615C1354.64 330.981 1357.68 323.909 1360.66 316.799L1362.46 312.469C1363 311.172 1363.51 309.928 1364 308.746L1365.72 304.52C1366.33 302.982 1368.08 302.237 1369.62 302.855Z" fill="#225696"/>
<path fill-rule="evenodd" clip-rule="evenodd" d="M1347.78 136.296L1318.5 163.5L1260.98 174.796C1259.8 175.322 1259.09 176.549 1259.21 177.838C1261.03 195.901 1266.56 212.645 1274.64 227.783C1278.16 234.359 1281.92 240.191 1285.69 245.219C1286.88 246.81 1288 248.219 1289.02 249.441L1289.68 250.221C1290.2 250.819 1290.58 251.244 1290.81 251.493C1292.02 252.781 1294.08 252.749 1295.25 251.424C1312.89 231.443 1328.91 215.973 1342.01 205.151L1342.35 204.857C1347.6 200.206 1350.59 193.631 1350.51 186.781L1350.5 186.452L1352 139.133C1352.07 136.923 1349.8 135.4 1347.78 136.296Z" fill="#DDDDDD"/>
<path fill-rule="evenodd" clip-rule="evenodd" d="M1355.49 111.64C1355.4 111.637 1355.31 111.638 1355.22 111.644L1348.62 112.044C1347.17 112.131 1345.99 113.241 1345.82 114.68L1342.62 141.28C1342.47 142.563 1343.15 143.8 1344.32 144.351L1344.71 144.528C1345.68 144.961 1347.12 145.523 1348.9 146.08C1352.41 147.183 1355.96 147.834 1359.35 147.795C1367.6 147.7 1373.6 143.467 1375.44 134.436C1377.35 125.055 1373.96 118.453 1367.09 114.737C1364.75 113.474 1362.17 112.635 1359.52 112.126C1358.57 111.945 1357.67 111.818 1356.84 111.735L1356.39 111.694C1356.25 111.682 1356.12 111.673 1356 111.665L1355.49 111.64ZM1351.48 117.881L1355.44 117.641L1355.67 117.654C1356.33 117.696 1357.28 117.806 1358.39 118.019C1360.49 118.421 1362.49 119.074 1364.23 120.015C1368.86 122.515 1370.92 126.541 1369.56 133.241C1368.33 139.296 1364.88 141.731 1359.28 141.795C1356.61 141.826 1353.66 141.284 1350.69 140.354L1350.19 140.193C1349.85 140.083 1349.53 139.972 1349.22 139.86L1348.85 139.726L1351.48 117.881Z" fill="#DDDDDD"/>
<path fill-rule="evenodd" clip-rule="evenodd" d="M1286.72 52.0536C1281.26 52.287 1275.9 53.0888 1270.88 54.6184C1256.85 58.8874 1247.5 68.1361 1245.43 83.3326C1241.74 110.343 1243.98 144.022 1248.97 166.683C1250.92 175.811 1266.13 179.127 1290.87 179.272L1292.61 179.277C1308.68 179.259 1329.43 177.552 1332.87 176.377C1333.58 176.136 1334.3 175.818 1335.04 175.432C1336.26 174.797 1337.52 173.985 1338.79 173.036C1339.84 172.261 1340.84 171.437 1341.77 170.612L1342.43 170.014C1342.67 169.795 1342.86 169.614 1343 169.481C1343.42 169.066 1343.71 168.533 1343.84 167.951L1353.94 119.551C1353.96 119.422 1353.98 119.29 1353.99 119.158L1354.02 118.596L1354.03 118.399C1354.05 117.824 1354.07 117.161 1354.07 116.418C1354.07 114.314 1353.97 111.969 1353.73 109.436C1353.05 102.198 1351.41 94.8725 1348.51 87.8887C1340.25 67.9955 1323.69 54.8899 1297.07 52.3243L1296.26 52.2498C1293.6 52.0076 1290.4 51.8961 1286.72 52.0536ZM1295.73 58.226C1320.53 60.4008 1335.46 72.0946 1342.97 90.188C1345.61 96.5698 1347.13 103.32 1347.76 109.997C1347.95 112.075 1348.05 114.009 1348.07 115.762L1348.07 116.411C1348.07 117.076 1348.06 117.662 1348.04 118.161L1348.02 118.54L1338.16 165.794L1337.79 166.12C1336.98 166.838 1336.11 167.555 1335.22 168.219C1334.18 168.992 1333.18 169.637 1332.27 170.11C1331.78 170.364 1331.33 170.562 1330.93 170.699C1328.29 171.602 1307.61 173.293 1292.11 173.277L1291.65 173.276C1270.08 173.205 1255.85 170.185 1254.83 165.411C1249.98 143.379 1247.79 110.396 1251.37 84.1441C1253.1 71.492 1260.68 63.9941 1272.62 60.3583C1277.12 58.9899 1281.99 58.2613 1286.97 58.0481C1290.37 57.9031 1293.3 58.0055 1295.73 58.226Z" fill="#DDDDDD"/>
<path fill-rule="evenodd" clip-rule="evenodd" d="M1344 118.539C1340.4 122.039 1330.9 142.039 1328.5 151.339C1328.5 151.339 1305 143.339 1271.3 142.739C1271.3 142.739 1252.9 143.039 1245.6 145.139C1245.6 145.139 1247 178.239 1261.9 195.439C1276.7 212.639 1308.2 207.939 1323 197.739C1337.8 187.539 1340.3 182.639 1343.7 171.539C1347.2 160.539 1356.4 119.439 1356.4 119.439L1344 118.539Z" fill="#BBBBBB"/>
<path fill-rule="evenodd" clip-rule="evenodd" d="M1353.6 125.638C1353.6 125.638 1363.5 110.438 1367.4 94.6384C1371 79.7383 1364.2 64.1384 1350.4 57.4384C1338.9 51.8384 1330.3 56.1383 1330.3 56.1383C1330.3 56.1383 1342.6 35.3383 1324.3 16.8384C1317.9 10.3384 1308.9 6.73835 1299.8 6.93835C1277.4 7.53835 1270.4 26.4383 1270.4 26.4383C1270.4 26.4383 1246.6 -17.7617 1197.3 8.13835C1192.3 10.7383 1186.7 18.0383 1184 23.0383C1167.6 52.9383 1221 88.6384 1248.9 91.5384C1279.5 94.7383 1297.5 89.7383 1307.3 82.3383C1299.9 86.6384 1308 132.538 1353.6 125.638Z" fill="#DDDDDD"/>
<path fill-rule="evenodd" clip-rule="evenodd" d="M1290.35 163.903C1291.32 162.022 1293.6 161.212 1295.55 162.094C1297.56 163.006 1298.45 165.376 1297.54 167.388L1297.39 167.702C1297.22 168.045 1296.98 168.477 1296.67 168.975C1296.01 170.043 1295.21 171.107 1294.25 172.109C1289.85 176.71 1283.78 178.47 1276.67 175.536C1274.63 174.693 1273.66 172.354 1274.5 170.312C1275.35 168.27 1277.68 167.298 1279.73 168.141C1283.55 169.718 1286.21 168.947 1288.47 166.58C1289.02 166.005 1289.49 165.378 1289.88 164.756L1290.06 164.455L1290.26 164.088L1290.35 163.903Z" fill="#DDDDDD"/>
<path fill-rule="evenodd" clip-rule="evenodd" d="M1267.61 129.087C1268.14 126.941 1270.31 125.628 1272.45 126.153C1274.53 126.663 1275.83 128.711 1275.43 130.789L1275.38 130.99L1270.38 151.424L1278.6 152.259C1280.74 152.475 1282.31 154.328 1282.19 156.444L1282.18 156.643C1281.96 158.774 1280.11 160.344 1277.99 160.233L1277.8 160.218L1265 158.918C1262.65 158.679 1261.03 156.474 1261.47 154.183L1261.51 153.987L1267.61 129.087Z" fill="#DDDDDD"/>
<path fill-rule="evenodd" clip-rule="evenodd" d="M1262.06 126.192C1262.07 123.652 1260.74 121.587 1259.08 121.58C1257.42 121.572 1256.07 123.626 1256.06 126.167C1256.05 128.707 1257.39 130.772 1259.04 130.78C1260.7 130.787 1262.05 128.733 1262.06 126.192Z" fill="#DDDDDD"/>
<path fill-rule="evenodd" clip-rule="evenodd" d="M1290.49 125.86C1290.5 123.32 1289.16 121.255 1287.51 121.247C1285.85 121.24 1284.5 123.294 1284.49 125.835C1284.48 128.375 1285.81 130.44 1287.47 130.447C1289.13 130.455 1290.48 128.401 1290.49 125.86Z" fill="#DDDDDD"/>
<path fill-rule="evenodd" clip-rule="evenodd" d="M1288.83 99.9787C1293.89 99.2571 1298.28 100.573 1301.85 103.183C1302.85 103.919 1303.72 104.708 1304.46 105.507L1304.79 105.872C1305.09 106.221 1305.32 106.519 1305.48 106.748C1306.74 108.559 1306.3 111.053 1304.49 112.318C1302.74 113.542 1300.35 113.167 1299.05 111.5L1298.88 111.28C1298.83 111.215 1298.73 111.093 1298.58 110.929C1298.18 110.496 1297.69 110.055 1297.13 109.642C1295.23 108.255 1293 107.553 1290.32 107.853L1289.97 107.898C1287.78 108.211 1285.75 106.691 1285.44 104.504C1285.13 102.317 1286.65 100.291 1288.83 99.9787Z" fill="#DDDDDD"/>
<path fill-rule="evenodd" clip-rule="evenodd" d="M1255.98 99.3711C1258.04 98.8759 1260.12 98.8983 1262.09 99.217L1262.52 99.2931C1262.86 99.3568 1263.13 99.4202 1263.34 99.4749C1265.47 100.047 1266.74 102.241 1266.16 104.375C1265.61 106.442 1263.53 107.694 1261.46 107.25L1261.15 107.176C1261.07 107.16 1260.95 107.138 1260.8 107.114C1259.8 106.95 1258.72 106.939 1257.84 107.151C1256.82 107.394 1256.24 107.848 1255.88 108.842L1255.82 109.035C1255.16 111.143 1252.91 112.316 1250.8 111.655C1248.7 110.994 1247.52 108.75 1248.18 106.642C1249.43 102.664 1252.3 100.253 1255.98 99.3711Z" fill="#DDDDDD"/>
<path fill-rule="evenodd" clip-rule="evenodd" d="M1285.3 204.338L1139.2 203.738C1125.2 203.638 1113.8 215.038 1113.7 229.038L1113.6 263.438C1078.7 263.238 1050.3 291.438 1050.2 326.338C1050 361.238 1078.1 385.4 1113 385.5L1110.5 415.5C1118.5 410 1163.5 345.5 1162 429L1252 435C1266 435.1 1310.6 404.5 1310.7 390.5V229.838C1310.6 215.838 1299.3 204.438 1285.3 204.338Z" fill="#404E6B"/>
<path fill-rule="evenodd" clip-rule="evenodd" d="M1136.83 381.885C1139.11 380.264 1141.44 379.789 1143.35 381.743C1145.68 384.128 1146.83 384.55 1146.86 390.5C1146.87 393.137 1147.13 388.73 1146.86 391.522L1146.74 392.617C1146.72 392.794 1146.7 392.968 1146.69 393.138L1146.5 394.66C1146.47 394.865 1146.54 395.108 1146.43 395.135C1145 395.5 1144.67 397.908 1143.03 397.668C1141.39 397.427 1140.26 395.903 1140.5 394.263L1140.57 393.712L1140.61 393.373C1140.71 392.642 1140.8 391.823 1140.88 390.94C1141.14 388.321 1141.01 390.909 1141 388.5C1141 388.42 1141.21 387.829 1140 387.312L1139.72 387.243L1139.63 387.312C1138.89 387.951 1137.98 388.883 1136.9 390.09L1136 391.121C1134.14 393.288 1132.39 395.517 1128.57 400.58L1123.78 406.946C1114.95 418.618 1110.95 423.118 1107.27 424.377C1105.7 424.913 1104 424.076 1103.46 422.509C1102.94 420.997 1103.7 419.357 1105.16 418.761L1105.33 418.7C1107.31 418.024 1111.56 413.153 1119.3 402.923L1123.53 397.307C1127.81 391.626 1129.61 389.337 1131.73 386.893L1132.12 386.442C1133.96 384.346 1135.49 382.841 1136.83 381.885Z" fill="#DDDDDD"/>
<path fill-rule="evenodd" clip-rule="evenodd" d="M1143.75 389.747C1147.9 385.95 1151.77 384.631 1155.04 387.452C1157.99 389.954 1159.49 393.402 1159.82 397.42C1160.06 400.443 1161.21 392.261 1160.36 395.348C1159.95 396.836 1159.8 396.302 1159.5 397C1158.85 398.524 1156.82 400.922 1155.29 400.272C1153.83 399.645 1153.11 397.984 1153.65 396.5L1153.87 395.944C1153.89 395.867 1153.93 395.781 1153.96 395.686C1154.17 395.111 1153.56 396.931 1153.76 396.222C1153.38 397.472 1154.02 400.129 1153.84 397.904C1153.64 395.479 1152.85 393.579 1151.36 392.204L1151.12 391.995C1151.1 391.984 1151.06 392.005 1150.8 392.091C1150.08 392.339 1149.04 393.036 1147.8 394.174C1145.48 396.298 1142.75 399.597 1139.1 404.56L1137.68 406.506L1132.64 413.516C1126.04 422.639 1124.51 424.313 1121.7 425.937C1120.26 426.765 1118.43 426.273 1117.6 424.837C1116.77 423.402 1117.27 421.568 1118.7 420.74L1118.84 420.655C1120.71 419.518 1122.63 417.155 1129.38 407.774L1132.24 403.794C1132.64 403.238 1133.02 402.722 1133.37 402.229L1133.9 401.503C1137.96 395.964 1140.98 392.284 1143.75 389.747Z" fill="#DDDDDD"/>
<path fill-rule="evenodd" clip-rule="evenodd" d="M1156.36 392.987C1158.53 391.763 1160.86 391.755 1162.82 393.256C1166.61 396.155 1166.99 401.848 1165.44 409.762C1164.98 412.093 1164.36 414.549 1163.61 417.066C1163.12 418.707 1164.78 414.562 1164.26 416.056L1164 416.795C1163.83 417.274 1163.66 417.716 1163.51 418.115L1163.17 419.015C1162.56 420.554 1164.04 413.113 1162.5 412.5C1160.96 411.887 1156.98 418.334 1157.6 416.795L1157.8 416.276L1158.12 415.418C1158.19 415.213 1158.27 414.997 1158.35 414.773C1158.93 413.164 1157.32 417.157 1157.86 415.353C1158.56 413.008 1159.13 410.734 1159.55 408.608L1159.7 407.801C1160.58 402.901 1160.39 399.444 1159.41 398.254L1159.36 398.188L1159.32 398.21C1158.68 398.569 1157.8 399.408 1156.73 400.718L1156.51 400.987L1156.14 401.461C1155.26 402.602 1154.28 403.998 1153.07 405.828L1152.07 407.351C1151 409.004 1148.72 412.555 1147.96 413.712L1147.26 414.773C1141.82 422.934 1137.72 427.688 1133.05 430.265C1131.6 431.065 1129.77 430.538 1128.97 429.088C1128.17 427.637 1128.7 425.812 1130.15 425.012C1133.71 423.048 1137.37 418.789 1142.29 411.4L1143.39 409.741C1144.58 407.902 1146.98 404.173 1147.51 403.355L1148.11 402.446C1149.57 400.251 1150.72 398.617 1151.82 397.239C1153.43 395.228 1154.88 393.828 1156.36 392.987Z" fill="#DDDDDD"/>
<path fill-rule="evenodd" clip-rule="evenodd" d="M1107.87 381.118C1113.41 380.182 1117.99 382.892 1117.7 388.766C1117.52 393.028 1115.69 398.882 1112.76 405.917L1112.25 407.135C1110.51 411.137 1110.05 415.71 1110.94 420.15C1111.27 421.775 1110.21 423.355 1108.59 423.68C1106.96 424.005 1105.38 422.951 1105.06 421.327C1103.97 415.881 1104.48 410.256 1106.53 405.26L1107.18 403.71C1109.87 397.274 1111.56 391.871 1111.7 388.49C1111.77 387.081 1111.07 386.663 1108.88 387.034C1106.48 387.438 1104.37 388.937 1104.28 389.696C1103.93 392.62 1102.97 394.507 1101.06 396.221L1100.83 396.425C1100.62 396.601 1096.21 399.847 1094.38 401.491C1092.9 402.792 1091.7 406.534 1091.1 411.762C1090.67 415.389 1090.56 419.241 1090.63 422.721L1090.66 423.582C1090.67 424.067 1090.69 424.406 1090.7 424.577C1090.72 425.012 1090.65 425.447 1090.49 425.85L1090.4 426.049C1090.39 426.073 1090.32 426.262 1090.23 426.6C1089.77 428.333 1089.8 430.531 1090.72 433.122C1092.11 437.029 1095.3 441.148 1100.82 445.352C1101.76 446.068 1102.71 446.713 1103.68 447.29C1111.49 451.933 1119.85 452.068 1127.71 449.482C1128.64 449.175 1129.49 448.85 1130.25 448.525L1130.61 448.363C1131.04 448.172 1131.34 448.026 1131.49 447.943L1131.55 447.911C1131.64 447.862 1131.73 447.818 1131.82 447.779L1132.26 447.608C1132.46 447.529 1132.69 447.437 1132.95 447.333L1133.21 447.224C1134.24 446.79 1135.4 446.267 1136.65 445.656C1140.23 443.91 1143.81 441.821 1147.13 439.4C1156.37 432.674 1161.8 424.816 1161.8 415.938L1161.8 415.472L1161.79 414.443L1160.01 417.255C1158.26 420.04 1156.4 423.019 1155.42 424.486L1155.2 424.816C1150.88 431.123 1146.7 435.658 1142.03 438.421C1140.6 439.264 1138.76 438.791 1137.92 437.365C1137.07 435.939 1137.55 434.099 1138.97 433.256C1142.73 431.035 1146.38 427.074 1150.25 421.428L1150.44 421.139C1152.24 418.434 1158.18 408.686 1159.47 407.193C1160.36 406.161 1161.2 405.486 1162.31 405.192C1164.19 404.691 1165.85 405.638 1166.69 407.273C1167.52 408.866 1167.8 411.478 1167.8 415.938C1167.8 427.098 1161.3 436.509 1150.67 444.251C1147.03 446.895 1143.16 449.158 1139.28 451.049C1137.93 451.711 1136.66 452.28 1135.53 452.757L1134.71 453.091L1134.25 453.273L1134.08 453.362L1133.65 453.575C1132.74 454.014 1131.5 454.533 1129.97 455.052L1129.58 455.182C1120.22 458.263 1110.12 458.099 1100.62 452.448C1099.45 451.753 1098.3 450.979 1097.18 450.124C1090.78 445.246 1086.87 440.196 1085.07 435.127C1083.73 431.344 1083.67 427.923 1084.42 425.073C1084.5 424.799 1084.57 424.55 1084.64 424.327L1084.68 424.234L1084.66 423.766C1084.54 419.801 1084.64 415.337 1085.14 411.069C1085.89 404.603 1087.38 399.838 1090.17 397.208L1090.4 397.005C1092.48 395.136 1096.97 391.835 1096.93 391.868C1097.85 391.082 1098.13 390.536 1098.32 388.981C1098.8 385.008 1103.16 381.915 1107.87 381.118Z" fill="#DDDDDD"/>
<path fill-rule="evenodd" clip-rule="evenodd" d="M1267.05 384.643C1268.96 382.689 1271.29 383.164 1273.57 384.785C1274.83 385.685 1276.26 387.07 1277.96 388.978L1278.67 389.793C1280.71 392.137 1282.44 394.339 1286.36 399.528L1291.1 405.823C1298.73 415.904 1302.97 420.782 1304.98 421.567L1305.07 421.599C1306.64 422.135 1307.47 423.841 1306.94 425.408C1306.4 426.976 1304.7 427.813 1303.13 427.277L1302.86 427.178C1299.25 425.792 1295.23 421.23 1286.62 409.846L1280.19 401.312C1277.32 397.536 1275.82 395.658 1274.15 393.732L1273.77 393.297C1272.67 392.044 1271.72 391.066 1270.96 390.378L1270.68 390.143L1270.68 390.162C1270.23 391.599 1269.93 393.949 1269.89 396.873L1269.89 397.258C1269.88 399.667 1270.04 396.491 1270.29 399.096C1270.34 399.626 1270.4 400.132 1270.45 400.611L1270.6 401.868C1270.64 402.123 1270.66 402.31 1270.68 402.419C1270.92 404.058 1272.8 403.817 1271.16 404.057C1269.52 404.298 1267.99 403.165 1267.75 401.525L1267.62 400.511L1267.5 399.528C1267.44 399.017 1265.06 399.065 1265 398.5C1264.73 395.709 1263.88 399.869 1263.89 397.232C1263.91 391.282 1264.72 387.028 1267.05 384.643Z" fill="#DDDDDD"/>
<path fill-rule="evenodd" clip-rule="evenodd" d="M1255.34 390.365C1258.63 387.531 1262.5 388.85 1266.65 392.647C1269.25 395.026 1272.07 398.408 1275.75 403.386L1277.03 405.129C1277.38 405.622 1277.76 406.138 1278.16 406.694L1282.26 412.393C1288.18 420.571 1289.9 422.604 1291.7 423.64C1293.13 424.468 1293.63 426.302 1292.8 427.737C1291.97 429.173 1290.14 429.665 1288.7 428.837L1288.2 428.538C1285.45 426.84 1283.65 424.615 1275.95 413.913L1272.72 409.406C1272.35 408.894 1272 408.413 1271.65 407.946L1270.95 406.985C1267.47 402.285 1264.85 399.129 1262.6 397.074C1261.36 395.936 1260.32 395.239 1259.6 394.991L1259.33 394.902C1259.3 394.893 1259.29 394.894 1259.27 394.901L1259.24 394.925C1257.62 396.299 1256.77 398.264 1256.56 400.804C1256.38 403.029 1261.32 403.034 1262 405.5C1262.16 406.068 1262.92 406.227 1263.09 406.711L1263.31 407.322L1263.46 407.715C1264.11 409.239 1263.4 411.001 1261.88 411.651C1260.35 412.301 1259.15 411.024 1258.5 409.5C1258.2 408.802 1257.23 408.215 1256.82 406.726C1255.96 403.639 1250.34 403.343 1250.58 400.32C1250.91 396.302 1252.41 392.854 1255.34 390.365Z" fill="#DDDDDD"/>
<path fill-rule="evenodd" clip-rule="evenodd" d="M1247.68 396.256C1249.64 394.755 1251.97 394.763 1254.14 395.987C1255.62 396.828 1257.07 398.228 1258.68 400.239L1259.12 400.805C1260.17 402.16 1261.29 403.772 1262.68 405.893L1267.56 413.419L1268.21 414.4C1273.13 421.789 1276.79 426.048 1280.35 428.012C1281.8 428.812 1282.33 430.637 1281.53 432.088C1280.73 433.538 1278.9 434.065 1277.45 433.265C1272.68 430.634 1268.5 425.73 1262.89 417.247L1261.49 415.089C1260.21 413.122 1258.41 410.314 1257.97 409.639L1257.43 408.828C1256.05 406.736 1254.97 405.213 1253.99 403.987C1252.89 402.614 1251.98 401.711 1251.31 401.289L1251.14 401.188L1251.09 401.254C1250.09 402.477 1249.91 406.098 1250.87 411.221L1250.95 411.608C1251.37 413.734 1251.94 416.008 1252.64 418.353C1253.09 419.856 1249.42 408.263 1249.9 409.639L1250.19 410.454C1250.31 410.791 1250.42 411.107 1250.53 411.401L1250.94 412.476C1251.55 414.016 1250.8 415.76 1249.26 416.373C1247.72 416.986 1245.98 416.236 1245.37 414.696L1245.13 414.089C1244.99 413.71 1244.83 413.289 1244.66 412.829L1244.54 412.477C1243.93 410.771 1247.46 421.981 1246.89 420.066C1246.14 417.549 1245.52 415.093 1245.06 412.762C1243.51 404.848 1243.89 399.155 1247.68 396.256Z" fill="#DDDDDD"/>
<path fill-rule="evenodd" clip-rule="evenodd" d="M1292.8 391.686C1292.51 385.791 1297.09 383.081 1302.63 384.018C1307.34 384.815 1311.7 387.908 1312.18 391.881C1312.36 393.349 1312.62 393.918 1313.43 394.639L1313.57 394.768C1313.53 394.735 1318.02 398.036 1320.1 399.904C1323.03 402.531 1324.58 407.357 1325.36 413.937C1325.82 417.913 1325.95 422.058 1325.86 425.812L1325.83 426.863L1325.82 427.135L1325.86 427.226C1325.9 427.375 1325.95 427.535 1326 427.707L1326.08 427.972C1326.83 430.823 1326.77 434.244 1325.43 438.027C1323.64 443.096 1319.72 448.146 1313.32 453.024C1312.2 453.879 1311.05 454.653 1309.88 455.347C1300.38 460.999 1290.28 461.162 1280.92 458.082C1278.94 457.433 1277.42 456.775 1276.42 456.262L1276.25 456.173L1275.6 455.918L1274.97 455.657C1273.84 455.18 1272.57 454.611 1271.22 453.948C1267.34 452.058 1263.47 449.795 1259.83 447.151C1249.2 439.409 1242.7 429.998 1242.7 418.838C1242.7 414.378 1242.98 411.766 1243.81 410.173C1244.65 408.538 1246.31 407.591 1248.19 408.092C1249.3 408.385 1250.14 409.061 1251.03 410.093C1252.37 411.646 1258.75 422.126 1260.25 424.328C1264.12 429.974 1267.77 433.935 1271.53 436.156C1272.95 436.999 1273.43 438.839 1272.58 440.265C1271.74 441.691 1269.9 442.164 1268.47 441.321C1263.95 438.644 1259.88 434.305 1255.71 428.302L1255.3 427.716C1254.23 426.147 1251.53 421.785 1249.37 418.38L1248.71 417.343L1248.71 417.492C1248.71 417.808 1248.7 418.14 1248.7 418.486L1248.7 418.838C1248.7 427.716 1254.13 435.574 1263.37 442.3C1266.69 444.72 1270.27 446.81 1273.85 448.556C1274.92 449.079 1275.92 449.538 1276.84 449.933L1277.29 450.124C1277.56 450.237 1277.81 450.337 1278.03 450.425L1278.54 450.623C1278.63 450.658 1278.72 450.697 1278.81 450.741L1279.18 450.929C1279.34 451.013 1279.58 451.127 1279.89 451.263C1280.73 451.642 1281.7 452.024 1282.79 452.382C1290.65 454.968 1299.01 454.832 1306.82 450.19C1307.79 449.613 1308.74 448.968 1309.68 448.252C1315.2 444.048 1318.39 439.929 1319.78 436.022C1320.7 433.431 1320.73 431.233 1320.27 429.5L1320.21 429.275C1320.15 429.078 1320.11 428.967 1320.1 428.949C1319.88 428.491 1319.78 427.984 1319.8 427.476L1319.83 426.821C1319.84 426.719 1319.84 426.607 1319.84 426.487C1319.96 422.782 1319.86 418.577 1319.4 414.638C1318.79 409.439 1317.59 405.708 1316.1 404.372L1315.8 404.11C1313.84 402.422 1309.87 399.492 1309.67 399.325C1307.6 397.556 1306.59 395.636 1306.22 392.596C1306.13 391.837 1304.02 390.338 1301.62 389.934C1299.43 389.563 1298.73 389.981 1298.8 391.411C1298.94 394.771 1300.63 400.174 1303.31 406.592L1303.75 407.642C1305.99 412.78 1306.57 418.6 1305.44 424.227C1305.12 425.851 1303.54 426.905 1301.91 426.58C1300.29 426.255 1299.23 424.675 1299.56 423.05C1300.41 418.769 1300.02 414.363 1298.42 410.447L1297.73 408.799C1294.81 401.782 1292.98 395.929 1292.8 391.686Z" fill="#DDDDDD"/>
<path fill-rule="evenodd" clip-rule="evenodd" d="M1659.6 498.438C1661.26 498.438 1662.6 499.782 1662.6 501.438C1662.6 503.036 1661.35 504.342 1659.78 504.433L1659.6 504.438H3C1.34315 504.438 0 503.095 0 501.438C0 499.841 1.24892 498.535 2.82373 498.444L3 498.438H1659.6Z" fill="#225696"/>
</svg>
