<?xml version="1.0" standalone="no"?>
<!DOCTYPE svg PUBLIC "-//W3C//DTD SVG 20010904//EN"
 "http://www.w3.org/TR/2001/REC-SVG-20010904/DTD/svg10.dtd">
<svg version="1.0" xmlns="http://www.w3.org/2000/svg"
 width="2048.000000pt" height="2048.000000pt" viewBox="0 0 2048.000000 2048.000000"
 preserveAspectRatio="xMidYMid meet">
<metadata>
Created by potrace 1.11, written by Peter Selinger 2001-2013
</metadata>
<g transform="translate(0.000000,2048.000000) scale(0.100000,-0.100000)"
fill="#000000" stroke="none">
<path d="M4660 19979 c0 -12 -323 -14 -2243 -14 l-2242 0 -1 -9674 0 -9674
2272 2276 2272 2276 1 4113 c0 2262 0 4135 0 4162 l1 48 2792 -2791 c2504
-2502 2794 -2789 2808 -2776 14 13 18 13 31 0 13 -13 196 166 1592 1565 914
915 1582 1577 1590 1575 7 -3 511 494 1197 1179 651 652 1187 1183 1190 1181
3 -2 5 -1870 4 -4153 l0 -4150 2266 -2271 c1247 -1249 2270 -2271 2273 -2271
4 0 6 4350 4 9668 l-2 9667 -2245 1 c-1235 0 -2251 4 -2258 8 -6 3 -19 -2 -29
-13 -80 -86 -5586 -5586 -5593 -5586 -14 0 -5598 5583 -5621 5620 -10 17 -19
26 -19 21 0 -5 -9 -1 -20 9 -15 14 -20 15 -20 4z"/>
</g>
</svg>
